<mxfile>
    <diagram id="bsAsoOqosXxvJEEudgzl" name="Page-1">
        <mxGraphModel dx="1881" dy="979" grid="1" gridSize="10" guides="1" tooltips="1" connect="1" arrows="1" fold="1" page="1" pageScale="1" pageWidth="827" pageHeight="1169" background="none" math="0" shadow="0">
            <root>
                <mxCell id="rQPKTti5xz2RbczONzEl-0"/>
                <mxCell id="rQPKTti5xz2RbczONzEl-1" parent="rQPKTti5xz2RbczONzEl-0"/>
                <mxCell id="rQPKTti5xz2RbczONzEl-99" value="Ingenii Azure Data Platform&lt;br&gt;&lt;font style=&quot;font-size: 25px&quot;&gt;A Lakehouse Approach&lt;/font&gt;" style="rounded=0;whiteSpace=wrap;html=1;dashed=1;labelBackgroundColor=none;sketch=0;fontSize=45;align=center;fillStyle=dots;fontFamily=Helvetica;verticalAlign=top;labelPosition=center;verticalLabelPosition=middle;" parent="rQPKTti5xz2RbczONzEl-1" vertex="1">
                    <mxGeometry x="-810" y="10" width="2710" height="860" as="geometry"/>
                </mxCell>
                <mxCell id="rQPKTti5xz2RbczONzEl-3" value="" style="rounded=0;whiteSpace=wrap;html=1;labelPosition=center;verticalLabelPosition=middle;align=center;verticalAlign=top;horizontal=1;direction=south;fillColor=#f5f5f5;strokeColor=#666666;fontColor=#333333;fontSize=15;sketch=1;fontFamily=Helvetica;" parent="rQPKTti5xz2RbczONzEl-1" vertex="1">
                    <mxGeometry x="-400" y="160" width="240" height="640" as="geometry"/>
                </mxCell>
                <mxCell id="rQPKTti5xz2RbczONzEl-6" value="Ingest" style="rounded=0;whiteSpace=wrap;html=1;align=center;fontSize=18;sketch=0;fontColor=#FFFFFF;fillColor=#13344C;fontFamily=Helvetica;" parent="rQPKTti5xz2RbczONzEl-1" vertex="1">
                    <mxGeometry x="-400" y="160" width="240" height="30" as="geometry"/>
                </mxCell>
                <mxCell id="rQPKTti5xz2RbczONzEl-10" value="" style="rounded=0;whiteSpace=wrap;html=1;labelPosition=center;verticalLabelPosition=middle;align=center;verticalAlign=top;horizontal=1;direction=south;fillColor=#f5f5f5;strokeColor=#666666;fontColor=#333333;fontSize=15;sketch=1;fontFamily=Helvetica;" parent="rQPKTti5xz2RbczONzEl-1" vertex="1">
                    <mxGeometry x="-760" y="160" width="240" height="640" as="geometry"/>
                </mxCell>
                <mxCell id="rQPKTti5xz2RbczONzEl-11" value="Data" style="rounded=0;whiteSpace=wrap;html=1;align=center;fontSize=18;sketch=0;fontColor=#FFFFFF;fillColor=#13344C;fontFamily=Helvetica;" parent="rQPKTti5xz2RbczONzEl-1" vertex="1">
                    <mxGeometry x="-760" y="160" width="240" height="30" as="geometry"/>
                </mxCell>
                <mxCell id="rQPKTti5xz2RbczONzEl-34" style="edgeStyle=orthogonalEdgeStyle;rounded=0;orthogonalLoop=1;jettySize=auto;html=1;dashed=1;fontSize=13;fillColor=#fff2cc;strokeWidth=1;sketch=0;fontFamily=Helvetica;" parent="rQPKTti5xz2RbczONzEl-1" edge="1">
                    <mxGeometry relative="1" as="geometry">
                        <mxPoint x="-490" y="384.83" as="sourcePoint"/>
                        <mxPoint x="-420" y="384.83" as="targetPoint"/>
                    </mxGeometry>
                </mxCell>
                <mxCell id="rQPKTti5xz2RbczONzEl-18" value="Structured Data" style="whiteSpace=wrap;html=1;verticalAlign=top;fontSize=18;fillColor=none;dashed=1;sketch=0;fontFamily=Helvetica;" parent="rQPKTti5xz2RbczONzEl-1" vertex="1">
                    <mxGeometry x="-725" y="290" width="170" height="190" as="geometry"/>
                </mxCell>
                <mxCell id="rQPKTti5xz2RbczONzEl-23" value="Unstructured Data" style="whiteSpace=wrap;html=1;verticalAlign=top;fontSize=18;fillColor=none;dashed=1;sketch=0;fontFamily=Helvetica;" parent="rQPKTti5xz2RbczONzEl-1" vertex="1">
                    <mxGeometry x="-725" y="540" width="170" height="210" as="geometry"/>
                </mxCell>
                <mxCell id="rQPKTti5xz2RbczONzEl-24" value="Azure Data Factory&lt;br style=&quot;font-size: 14px;&quot;&gt;(Batch)" style="aspect=fixed;html=1;points=[];align=center;image;fontSize=14;image=img/lib/azure2/databases/Data_Factory.svg;rounded=0;labelBackgroundColor=none;dashed=1;sketch=0;fontFamily=Helvetica;" parent="rQPKTti5xz2RbczONzEl-1" vertex="1">
                    <mxGeometry x="-314.5" y="640.5" width="69" height="69" as="geometry"/>
                </mxCell>
                <mxCell id="rQPKTti5xz2RbczONzEl-25" value="Media" style="shape=image;verticalLabelPosition=bottom;verticalAlign=top;imageAspect=0;aspect=fixed;image=data:image/png,iVBORw0KGgoAAAANSUhEUgAAAgAAAAIACAYAAAD0eNT6AAAABHNCSVQICAgIfAhkiAAAAAlwSFlzAAAOxAAADsQBlSsOGwAAABl0RVh0U29mdHdhcmUAd3d3Lmlua3NjYXBlLm9yZ5vuPBoAAB0uSURBVHic7d150GZZXdjxb/ewL8MygyD7sIuCC2pKBQIWEBeI66gkUUyCBBOjpoxiibhUWQZcUFGjGMtoUtEIEkXRUKAgiFkEESTgICACOowMwzZszjB0/rjd9fY03dPv8jzPuc9zP5+qUz0zVf2cc+6853d+772/59wCAAAAAAAAAAAAAAAAAAAAAAAAAAAAAAAAAAAAAAAAAAAAAAAAAAAAAAAAAAAAAAAAAAAAAAAAAAAAAAAAAAAAAAAAAAAAAAAAAAAAAAAAAAAAAAAAAAAAAAAAAAAAAAAAAAAAAAAAAAAAAAAAAAAAAAAAAAAAAAAAGODY6AEMds/qkpPtntU9qovOaMeqm1S3HDJCAA7qQ9U11YnqqjPa26q3Vn9d/dXJf1+kJSUAD6g+r/qc6kEn222GjgiA0d5f/Xn1uupV1f+q3jh0RBuyywnAvasvqh5TfX518djhALAlrmxKBF5UvbDpTsHO2aUE4Fj1D6pLq8dV9x07HAB2xBurF1TPqf5k8FhWZhcSgE+pvrH62qZn+ACwLm+tfr36leqywWM5km1NAG7e9Jv+N1UPHTwWAJbp5dUvVs+tPjp4LAe2bQnAHap/UX1b9cmDxwIANdUM/FL1U9U7B49l37YlAbhb9T1Nt/pvNnYoAHBWH2lKBJ5e/c3gsZzX3BOAO1Tf0fQbv40fgG1wTfXL1Q9Wl48dyrldMHoA53CL6qlNz1UeWd1o7HAAYN8uqB5SPfnkP7+y+tjQEZ3F3O4AHKu+rnpG021/ANh2b6u+q+lrhLMxpwTgkurnmw7uAYBd88Lqm5uOIR5uDo8ALqi+vfqNpuN6AWAX3ad6YvXhpscCJ0YOZvQdgLs3HabwiMHjAIBNemn1DQ38tsDxUR1Xj69em80fgOV5ZNMeeOmoAYx4BHCj6oern8hX+wBYrlOn2t656cVD122y800/Arhz01f7Pn/D/QLAnP1xUzKwsZMEN5kAPKT6nRzhCwBn87fVY6vXbKKzTdUA/KOmggebPwCc3V2qVzQlAWu3iRqAJ1f/Lc/7AeB8blJ9TdOjgFevs6N1JwDfWf1kY79tAADb5Hj1uOqD1f9eVyfrTACe0nSk7+izBgBg2xxrOhn35tXvr6ODdSUAP1D90Jo+GwCW4qHVx6uXr/qD15EAfHv1H9bwuQCwRI+sPtL0VcGVWXUC8OTqWbntDwCr9Kjq8lZYGLjKjfpLquc3nfQHAKzWddVXVr+9ig9bVQLwWdXLqlut6PMAgE90dfXwVnBY0CoSgDtXr8ohPwCwCX9bfXZ1xVE+5Kjfz79x9d+z+QPAptyl+h9NhwYd2lGLAH+2+qojfgYAcDB3qy6sXnjYDzjKI4DHV796hL8/J9dWl1VvrP7y5J9vbnrW8qHqvSf/vGbUAAHYl5tUt6xu11SXdqvqPtX9T7b7VQ9ouoO9C766et5h/uJhE4C7Vq+tbn/Ivz/adU2b/CuaTlh6UfX+oSMCYFNu0fRa+kc1HbTzuW1vQvC+6tOrt2+is+PVS6oTW9he33RE8R1XflUA2Fa3r57U9Evh6H3qMO1lbeblfv27AZM7SvtA9ePVp67jYgCwUz6tembTI+DR+9dB2reu42Kc7p5tz0V5f/X0tvcxBQDjXNh0x/iqxu9n+2kfrC5Zy5Voqhd40Qwmeb72oeqp1a3XcxkAWJALq6c17S2j97fztd9d0zXo8TOY3Pnab1X3WNcFAGCx7tl03P3ofe58beVfzb9FU4Xh6Imdq729euyqJw0AZ3hc894P/6q62Son/IMzmNS52u9UF61ysgBwAy6qXtD4/e9c7amrmugnN89nH9dU35FXDwOweceq72w6SG70fnhmu7r6pFVM8qdnMJkz21XVF6xicgBwBA+r3tP4ffHM9syjTuxu1UdnMJHT2+XVg486MQBYkQc2v7qAjzS9NOjQfm4Gkzi9vaG6+1EmBABrcPfqLxq/T57ennXYyXxS9eEZTOD0zf/iw04GANbs4uaVBHyoQxbJz6ny/2/y/X4A5u+u1dsav2+eak876ARuXr1rBgM/0VTw98CDTgAABvnU5nOE8N91wHMBvmEGgz7R9FU/1f4AbJuHNe1ho/fRE9U/PcjA/2gGAz7R9D1/ANhG39X4ffRE9dL9DvgB1cdnMODfzSE/AGyvY03vqBm9n55o2tvP60dmMNC353hfALbfxdU7Gr+v/vD5BnqseusMBvq48w0UALbElzV+X31L57mr/nkzGORv7utyAsD2+O3G76+ffUMDfObgwX0o3/cHYPdc0vjD9X70hgb4l4MHt7JXGALAzHxfY/fYN5xrYJcMHthV1a0PcCEBYJtc2Pg3B97r1GCOnzawL139XA/kWU3vMAaAXfSB6mcGj+ExZ/uPz29cRvKB6varniUAzMxFTb/sjtpvn3fmgI5VVw4c0I8f5ioCwBYaWXB/xZmDecDAwZyoHnSoSwgA2+dTG7vn3rf2agA+f40TPZ9XV68b2D8AbNLrq9cM7P8Lai8BuMHDAdbsvwzsGwBG+K8D+37I6f8y6u1/H6s+aW1TBIB5ulN1XWP23pedGsSx6v2DBvEnR7t+ALC1Xt2Yvfe91bHj1d2bDicY4aWD+gWA0V4yqN/bVnc5Xt170ABq3OQBYLSRvwTf63h1z0GdX1u9YlDfADDay5v2whEuOd70DoARLmt6+x8ALNHV1ZsG9X3J8epugzr/y0H9AsBcvHFQv3c/Xt1hUOeXDeoXAOZiVAJw8fGmFxOMMGrSADAXo/bCi0YmAG8d1C8AzMVfDer34uONOwPg/YP6BYC5eN+gfi88Xt10UOcfGNQvAMzF1YP6venx6iaDOh81aQCYi2EJwLGmF/JcMKLz6poB/QLAXNy0+uiAfq871vRigBGODeoXAOZkyD58fESnAMBYEgAAWCAJAAAskAQAABZIAgAACyQBAIAFkgAAwAJJAABggSQAALBAEgAAWCAJAAAskAQAABZIAgAACyQBAIAFkgAAwAJJAABggSQAALBAEgAAWCAJAAAskAQAABZIAgAACyQBAIAFkgAAwAJJAABggSQAALBAEgAAWCAJAAAskAQAABZIAgAAC3Sj0QOALXST6pHVY6tPr+5f3aq6cXVl9bbq/1S/X72o+tiYYQLcsBODGmyb21bfW72r/f+cX1F9X1OCAHA2w/ZhCQCc39dU7+zwP+9XVE+ojm164MDsSQBghi6ontXqfu5fXj1wozMA5k4CADNzQfW8Vv+z/9Hq+6ubbm4qwIxJAGBm/mPrXQOXVY/Y1GSA2ZIAwIx8eZtbC8+p7rCZaQEzJAGAmbhNB6v0X0W7MkWCsFQSAJiJ72/culAkCMsjAYAZOHWYz6h1cSJFgrA0EgCYgS9t7OZ/entT9ej1TheYgSExxrsA4PoeM3oAp7lP01HCigSBtXAHAPb8ceN/8z9be0/1pBQJwi4atg9LAGDPUY773URTJAi7RwIAM/CRxm/y52vXVE+vbramawBslgQAZmD05n6QpkgQdoMEAGZg9KZ+mKZIELabBABmYPRmftimSBC215C4caxxm7FAxRxte3L6R9WTqzeMHgiwb0PijnMAYLc8rHpNigSB83AHAK5v2+8AnO7N1b+uXjx6IMANcgcAWCknCQLnJAGA3Xdp9cYUCQKn8QgArm+XHgGcjSJBmB+PAIC1UyQIVO4AwJl2/Q7A6RQJwjy4AwBslCJBWDAJAKBIEBbIIwC4viU9AjgbRYKweR4BAMMpEoSFcAcArm/pdwBOp0gQNsMdAGBWFAnCDpMAAOejSBB2kEcAcH0eAdwwRYKweh4BALOnSBB2hDsAcH3uAOyfIkFYDXcAgK2iSBC2mAQAOCpFgrCFPAKA6/MI4GgUCcLBeQQAbD1FgrAl3AGA63MHYHUUCcL+uAMA7BRFgjBjEgCYh2+s3j16EGtyaVNNwBNy5w9m5cSgBnM0cj3crnp29fGB41h3e3n1wP39r4DFGBZ3RgY8mJs5rIeHVa8fOJZ1t2tSJAinGxZ35hDwYC7msh5uXD2l+sjAMa27val69Ln/V8BiDIs7cwl4MAdzWw+nCulGb9brbIoEWbphcWduAQ9Gmut6uLR618Dxrbu9JycJslzD4s5cAx6MMOf1oEgQdtOwuDPngAebtg3rQZEg7JZhcWcbAh5syrasB0WCsDuGxZ1tCXiwCdu2HhQJwvYbFne2LeDBOm3relAkCNtrWNzZ1oAH67DN60GRIGynYXFnmwMerNourAdFgrBdhsWdXQh4sCq7sh4UCcL2GBZ3diXgwSrs2npQJAjzNyzu7FrAg6PY1fWgSBDma1jc2dWAB4exy+tBkSDM07C4s8sBDw5qCetBkSDMy7C4s4SAB/u1lPWgSBDmY1jcWUrAg/1Y2npQJAjjDYs7Swt4cEOWuh4UCcI4w+LOUgMenM2S14MiQRhjWNxZcsCDM1kPigRh04bFHQEP9lgPE0WCsDnD4o6AB3ush+tTJAjrNyzuCHiwx3o4O0WCsD7D4o6AB3ush3NTJAjrMSzuCHiwx3o4P0WCsFrD4o6AB3ush/1RJAirMyzuCHiwx3o4GEWCcHTD4o6AB3ush8NRJAiHNyzuCHiwx3o4PEWCcDjD4o6AB3ush6NTJAgHMyzuCHiwx3pYDUWCsH/D4o6AB3ush9VSJAjnNyzuCHiwx3pYvWPVN1ZXNn6zXle7svrKFV0vlmdY3BHwYI/1sD4XV7/cbhcJ/nR1wYquF8sxLO4IeLDHeli/R1SXNX6zXlf79epGq7pYLMKwuCPgwR7rYTN2vUjwJ1d3qViAYXFHwIM91sNm3b96aeM37HW0S1d4ndhtw+KOgAd7rIfN29UiwXdWt1ndZWKHDfkZPb6RqQGc24mm4sD7Vb/Q7iREd6q+ZfQg4FyONW6xOVObObIexntE9fNNjwe23buqu1bXjh4IszYk7rgDAMzNH1YPqr67+ujYoRzZJ1WPHD0IOBsJADBH11bPqD6jKSHYZl8yegBwNhIAYM7e2PQb9Nc0FQluo88aPQA4GwkAsA2e2/Qa3l9p+4oE7zN6AHA2igDh+qyH+XtYU5HgA0cPZJ8+Wt189CCYNUWAAPtwrO1KmLbtjgULIQEAtsWplwn9YfUpQ0dyMO8bPQA4Gy+sALbBpdXPVncYPZBDeNPoAcDZSACAObt/0/P+Rwwex1H82egBwNl4BADM0am3Bb6m7d78q14wegBwNr4FANdnPYz3iHbnKOC/azoK+GOjB8Ks+RYAsGi3q55dvaTd2PyrnpXNnxnz+lPYYz1s3q6+DvjyvA6Y/RkWdwQ82GM9bNb9q5c2frNeR/vKFV4ndtuwuCPgwR7rYTNOFfl9pPEb9TraM1d3qViAYXFHwIM91sP6PaK6rPGb9Lrar1UXrOpisQjD4o6AB3ush/U5dZLfxxu/Sa+r/VSKqzm4YXFHwIM91sPq7WqR3+ntyjzz5/CGxR0BD/ZYD6t1n+rFjd+g19me03YeUcx8DIs7Ah7ssR5WY9eL/E40nfH/qFVdMBZtWNwR8GCP9XB0D6/e0PgNel3tmurp1c1WdcFYvGFxR8CDPdbD4Z06yW+Xi/xe1na9ipjtMCzuCHiwx3o4nEurdzV+g15Xe0/1pLyzgfUYFncEPNhjPRyMIj84umFxR8CDPdbD/ijyg9UZFncEPNhjPZyfIj9YrWFxR8CDPdbDuSnyg/UYFncEPNhjPZydIj9Yn2FxR8CDPdbD9Snyg/UbFncEPNhjPUwU+cHmDIs7Ah7ssR7qYSnyg00aFncEPNiz5PWgyA/GGBZ3lhzw4ExLXQ+K/GCcYXFnqQEPzmZp60GRH4w3LO4sLeDBDVnKelDkB/MxLO4sJeDBfixhPSjyg3kZFneWEPBgv3Z5PSjyg3kaFnd2OeDBQe3qelDkB/M1LO7sasCDw9i19aDID+ZvWNzZtYAHR7Er60GRH2yPYXFnVwIerMIurAdFfrBdhsWdXQh4sCrbvB4U+cF2GhZ3tjngwapt63pQ5Afba1jc2daAB+uwbetBkR9sv2FxZ9sCHqzTtqwHRX6wO4bFnW0JeLAJ27AeFPnBbhkWd7Yh4MGmzHk9KPKD3TQs7sw54MGmzXU9KPKD3TUs7sw14MEIc1sPivxg9w2LO3MLeDDSXNaDIj9YjmFxZy4BD+ZgDutBkR8sy7C4M4eAB3Mxcj0o8oNlGhZ3RgY8mJtR6+EJ1ZUD+193u/LkHBX5wScasi6PNW4zFgiYI8np6j23+jdNSQDwiYbEnRuN6BRYhDdX31z9/uiBAJ/o+OgBADvn2uoZ1YOy+cNsuQMArNLLqydXfzF6IMANcwcAWIX3Vv+qekQ2f9gK7gAAR6XID7aQBAA4LEV+sMU8AgAOSpEf7AB3AICDUOQHO8IdAGA/FPnBjnEHADgfRX6wgyQAwLko8oMd5hEAcCZFfrAA7gAAp1PkBwvhDgBQivxgcdwBABT5wQJJAGC5FPnBgnkEAMujyA9wBwAWRpEfULkDAEuhyA+4HncAYPcp8gM+gQQAdpciP+CcPAKA3aPIDzgvdwBgtyjyA/bFHQDYDYr8gAM7MajBHI1aD0dpz6nusI6LAWzEsH1YAgB7Rm/mB2lvqh61nssAbJAEAGbgI43f2M/XrqmeXt1sTdcA2CwJAMzA5Y3f4G+ovaz6lLXNHhhhSDxRBAjX91ejB3AOivyAlZIAwPW9avQAzuK51f2rX8jdM2CFPAKAPV/c+Nv8p5oiP1iGYfuwBAD23Lh6V2M3/o9W31/ddM1zBeZBAgAz8bTGrQtFfrA8EgCYiQvb/F2AK6snVMc2MD9gXiQAMCNf1ubWgpP8YNkkADAzP9N618BlTV/rA5ZNAgAzc0HTV/BW/bOvyA84nQQAZuiCpmN3V/Vzr8gPOJMEAGbsq6p3dvif9ytS5AecnQQAZu621fd2sG8IXF49tbrlgPEC22HIPnyscZux34TYVjeuvrD6kuozq/tUt2taS+9pep/AK6sXn2zXjRkmsCWG7MMSAAAYa8g+7GVAALBAEgAAWCAJAAAskAQAABZIAgAACyQBAIAFkgAAwAJJAABggSQAALBAEgAAWCAJAAAskAQAABZIAgAACyQBAIAFkgAAwAJJAABggSQAALBAEgAAWCAJAAAskAQAABZIAgAACyQBAIAFkgAAwAJJAABggSQAALBAEgAAWCAJAAAskAQAABZIAgAAC3S8um5Q3zcZ1C8AzMVNB/V73fHqmkGd32pQvwAwF7ce1O/fj0wARk0aAOZiaALw94M6v3BQvwAwF0MTgPcP6vw2g/oFgLm47aB+33+8umpQ55cM6hcA5uJeg/p998gE4P6D+gWAuRi1F151vHr3oM4fMKhfAJiLoQnA2wd1fr9B/QLAXIxKAN52vHrroM4fkLMAAFiuW1f3HdT3Xx+v/npQ5zeuHjqobwAY7eFNe+EIbz1evWVQ51VfOLBvABjpkQP7fkvVseq91YkB7ZVrnyIAzNOfNWbvvaqmlwGdqF637lmew2dWdxzUNwCM8snVgwf1/braex3wnw8axAXV4wf1DQCj/JP29uBNe22ndf6ngwZR9fUD+waAEf7ZwL5fffq/3K8xzyFOtQeta5YAMDOf2tg99961dwfgTdWV65vref3zgX0DwCY9cWDfV3SWb//9ZuOykQ9Ut1/DRAFgTi6qrm7cfvvcUwM5vQDh99cw0f26dfWtA/sHgE349saegvvis/3HSxr7TOJ91W1WPFEAmIsLG3fuzql2j3MN7rLBA3vaAS4kAGyTH2jsHvv6Gxrcjw0e3Ieqe+7rMgLA9rhX9eHG7rHPuKEBfu7gwZ2ofmt/1xIAtsbvNH5//czzDfLNMxjk485/LQFgK3x54/fVN+9noE+fwUDf3vRVCQDYZhdX72j8vvpD+xns/auPz2Cwv9v0pkIA2EbHquc3fj/9eHXf/Q765TMY8InqO/c7YACYme9u/D56onrJQQb99TMY8InqmuphBxk4AMzAP6yubfw+eqLpzYP7drPq72Yw6BPVVU0vTgCAbfBp1Xsav3+eaDr7/2YHncD3z2Dgp9rf5nwAAObvrtXbGr9vnmrfc5hJXNz4QwtOb39xckwAMEcXN+1Vo/fLU+2DHeFFez87gwmcmQTc/bCTAYA1uUfz2vxPVD95lAnduXndBThRXV49+CiTAoAVemDT+TWj98fT20equxx1Yj85g4mc2a7KtwMAGO8fNp+Cv9Pbj65icndqeo4wejJntmubzglwWBAAm3asekrz+arf6e0D1R1WNdGnzWBC52ovru64qokCwHlc3HRa7ej971ztKauc7M2rv57BpM7V3lH941VOGADO4suax9n+52pvqW666kl/zQwmdr7229Ulq544AIt3r+bxSt/ztS9f1wX4nzOY3Pnah5sOMbpwTdcAgOW4TfUDze8bcef6JXht7lFdPYNJ7qd9oPqppiJGADiIi5o2/jlW+J9rz7vbOi7E6b5tBhM9SLu6emb1oHVcDAB2yoOqn2h7ftk91b5lHRfjTMerPxgwuVW01zdVR7orAMApF1VPql7R+H3qMO0Pm/bmjbhL9e41TmYT7S3Vs6tLq9uu9vIAMGO3rB5VPb16VXVd4/ekw7b3dMhb/0c5ROfS6jlH+Ptz8rHqjSfbX578801NByBdXb3v5D9fM2qAAOzLTapbNf1id+uT7b7V/U62B5z880ajBrhCJ6qvqJ5/mL981FP0fqr61iN+BgBwcD/WdCLuoRw1AbhRUz3Aw4/4OQDA/r20ekzTHexDWcU5+ndqeoZy5LcOAQDn9Y7qs6t3HeVDVlE1eEX1RdX7V/BZAMC5XV09riNu/rW6rw38v+rrOsKtCADgBl1bfXX12lV82AWr+JCT3ly9sykz8YpeAFidE9UTq+et6gNXmQBUvbp6b/XFK/5cAFiy76x+bpUfuOoEoOr/NmUqj1zDZwPA0jy1+pFVf+g6EoCql1UfbTppCQA4nGc0veF25daVAFT9cdNxwV+cmgAAOIgT1XdUP7SuDtaZAFS9srq8KQnY2IsKAGCLXVt9Uyt+5n+mTf1m/ujqN6oLN9QfAGyjD1ZfW/3eujva5K35z6hekBMDAeBs3lE9tvrzTXS2ydvyr6k+s3rJBvsEgG3w8upz29DmX+uvATjTh6tfrW5aPXTDfQPAHP1C02m6H9hkpyOr87+qadK3HzgGABjl3U2n+z1/ROejv553p+o/N71MCACW4g+qJ1R/O2oAm34EcKYPVr9Wvad6WHWTscMBgLW6uvr31b9tw7f8zzT6DsDp7lz9TPUVowcCAGvwe9U3V28fPZCa1+E8l1df2fSqw7cOHgsArMpbmn65/dJmsvnX+EcAZ/MX1bOb3iXwuXksAMB2urr6gerrq9ePHconmmMCUPWx6o+q/9R0HvJDqhsPHREA7M/fV7/U9G23F1bXjR3O2c2pBuCG3Ln67upfVrcYPBYAOJsPVb9YPb26YvBYzmtbEoBTblN9Y/VdTUkBAIz2rqYX9/x0ddXgsezbtiUAp9ysqVjwidXD2955ALCdTlR/2PQb//OabvtvlV3YOO/XdJjC11b3HjwWAHbbm6tfr3755D9vrV1IAE73OdWl1eOqBwweCwC74Q1Nb7N9TvWng8eyMruWAJzunk1HDD+6+oLqjkNHA8C2uKJ6RfXipir+2Xx3f5V2OQE4032bEoGHVA+qHlzdbuiIABjtvU2v4H1d9arqj9vyW/v7taQE4Gzu2lQ3cM/qkuoe1UVntAuaziC41ZghAnBAVzedJ/OxpnfNXHWyvbvpt/m3nmxvaeDLeAAAAAAAAAAAAAAAAAAAAAAAAAAAAAAAAAAAAAAAAAAAAAAAAAAAAAAAAAAAAAAAAAAAAAAAAAAAAAAAAAAAAAAAAAAAAAAAAAAAAAAAAAAAAAAAAAAAAAAAAAAAAAAAAAAAAAAAAAAAAAAAAAAAAAAAAAAAAAAAAAAW6f8D8juZzZOqwoAAAAAASUVORK5CYII=;fontSize=14;sketch=0;fontFamily=Helvetica;" parent="rQPKTti5xz2RbczONzEl-1" vertex="1">
                    <mxGeometry x="-695" y="585" width="40" height="40" as="geometry"/>
                </mxCell>
                <mxCell id="rQPKTti5xz2RbczONzEl-26" value="Logs" style="shape=image;verticalLabelPosition=bottom;verticalAlign=top;imageAspect=0;aspect=fixed;image=data:image/svg+xml,PHN2ZyB4bWxucz0iaHR0cDovL3d3dy53My5vcmcvMjAwMC9zdmciIGlkPSJfeDMxX3B4IiBlbmFibGUtYmFja2dyb3VuZD0ibmV3IDAgMCAyNCAyNCIgaGVpZ2h0PSIyNCIgdmlld0JveD0iMiAwIDIwIDI0IiB3aWR0aD0iMjAiPjxwYXRoIGQ9Im0xOS41IDI0aC0xNWMtMS4zNzkgMC0yLjUtMS4xMjItMi41LTIuNXYtMTljMC0xLjM3OCAxLjEyMS0yLjUgMi41LTIuNWgxNWMxLjM3OSAwIDIuNSAxLjEyMiAyLjUgMi41djE5YzAgMS4zNzgtMS4xMjEgMi41LTIuNSAyLjV6bS0xNS0yM2MtLjgyNyAwLTEuNS42NzMtMS41IDEuNXYxOWMwIC44MjcuNjczIDEuNSAxLjUgMS41aDE1Yy44MjcgMCAxLjUtLjY3MyAxLjUtMS41di0xOWMwLS44MjctLjY3My0xLjUtMS41LTEuNXoiLz48cGF0aCBkPSJtMTIuNSAyMWgtMWMtLjgyNyAwLTEuNS0uNjczLTEuNS0xLjV2LTNjMC0uODI3LjY3My0xLjUgMS41LTEuNWgxYy44MjcgMCAxLjUuNjczIDEuNSAxLjV2M2MwIC44MjctLjY3MyAxLjUtMS41IDEuNXptLTEtNWMtLjI3NSAwLS41LjIyNC0uNS41djNjMCAuMjc2LjIyNS41LjUuNWgxYy4yNzUgMCAuNS0uMjI0LjUtLjV2LTNjMC0uMjc2LS4yMjUtLjUtLjUtLjV6Ii8+PHBhdGggZD0ibTguNSAyMWgtM2MtLjI3NiAwLS41LS4yMjQtLjUtLjV2LTVjMC0uMjc2LjIyNC0uNS41LS41cy41LjIyNC41LjV2NC41aDIuNWMuMjc2IDAgLjUuMjI0LjUuNXMtLjIyNC41LS41LjV6Ii8+PHBhdGggZD0ibTE4LjUgMjFoLTJjLS44MjcgMC0xLjUtLjY3My0xLjUtMS41di0zYzAtLjgyNy42NzMtMS41IDEuNS0xLjVoMmMuMjc2IDAgLjUuMjI0LjUuNXMtLjIyNC41LS41LjVoLTJjLS4yNzUgMC0uNS4yMjQtLjUuNXYzYzAgLjI3Ni4yMjUuNS41LjVoMS41di0xaC0uNWMtLjI3NiAwLS41LS4yMjQtLjUtLjVzLjIyNC0uNS41LS41aDFjLjI3NiAwIC41LjIyNC41LjV2MmMwIC4yNzYtLjIyNC41LS41LjV6Ii8+PC9zdmc+;fontSize=14;sketch=0;fontFamily=Helvetica;" parent="rQPKTti5xz2RbczONzEl-1" vertex="1">
                    <mxGeometry x="-625" y="585" width="37.5" height="45" as="geometry"/>
                </mxCell>
                <mxCell id="rQPKTti5xz2RbczONzEl-27" value="Binary" style="shape=image;verticalLabelPosition=bottom;verticalAlign=top;imageAspect=0;aspect=fixed;image=data:image/png,iVBORw0KGgoAAAANSUhEUgAAAgAAAAIACAMAAADDpiTIAAAAA3NCSVQICAjb4U/gAAAACXBIWXMAAA3XAAAN1wFCKJt4AAAAGXRFWHRTb2Z0d2FyZQB3d3cuaW5rc2NhcGUub3Jnm+48GgAAAcJQTFRF////AAAAAAAAAAAAAAAAAAAAAAAAAAAAAAAAAAAAAAAAAAAAAAAAAAAAAAAAAAAAAAAAAAAAAAAAAAAAAAAAAAAAAAAAAAAAAAAAAAAAAAAAAAAAAAAAAAAAAAAAAAAAAAAAAAAAAAAAAAAAAAAAAAAAAAAAAAAAAAAAAAAAAAAAAAAAAAAAAAAAAAAAAAAAAAAAAAAAAAAAAAAAAAAAAAAAAAAAAAAAAAAAAAAAAAAAAAAAAAAAAAAAAAAAAAAAAAAAAAAAAAAAAAAAAAAAAAAAAAAAAAAAAAAAAAAAAAAAAAAAAAAAAAAAAAAAAAAAAAAAAAAAAAAAAAAAAAAAAAAAAAAAAAAAAAAAAAAAAAAAAAAAAAAAAAAAAAAAAAAAAAAAAAAAAAAAAAAAAAAAAAAAAAAAAAAAAAAAAAAAAAAAAAAAAAAAAAAAAAAAAAAAAAAAAAAAAAAAAAAAAAAAAAAAAAAAAAAAAAAAAAAAAAAAAAAAAAAAAAAAAAAAAAAAAAAAAAAAAAAAAAAAAAAAAAAAAAAAAAAAAAAAAAAAAAAAAAAAAAAAAAAAAAAAAAAAAAAAAAAAAAAAAAAAAAAAAAAA/CAi6QAAAJV0Uk5TAAECAwUHCAkKCwwNEBMUFRYXGBkaGx0fISUmKCkqKywuMTc6Ozw+P0BBQ0VGSEpLTVBRU1RVVldYWVpbXF5gYWJlbW5xc3V2d3h5en1+f4CBh4yOj5GSk5SVlpeZmpydoaKnqKmsrbCyt76/wsPExcbHyMnKztHS1NXW19nc3d7f4OLj5ebq6+zt7/Dz9PX29/j5/f7Az0PeAAANDUlEQVR42u3d7XsU1RnH8UMWSTZYG1QCNhWjJtioBLBq01TRBpQYDWCzpIhAVKpEbUKaolW0GsRoCoawSc7/2xeA5mF2d2bvOGdmft/7ndc19zKe74c8LHvtOleI6RysTC16mVmcqgx2OubelF6vermpDpcof2e6/uUlZ7aL9s45d+C2F50lBDjnDlS97MzyXUC6v/fD9Jfu76ud9NeeQfprT4X+2jNFf+1ZpL/40B8A9AcA/QFAfwDQHwD0BwD9AUB/ANAfAML9Tw8UcE4DIPbf/4Ei/q8PACD2138AiH//B4D4z38AEP/5HwDiv/8BQPz3fwCIP/8DAPHn/wCg3R8A4v0BIN4fAOL9ASDeHwA6/f8DAO3+vwWAdn8HAO3+ABDvDwDx/gAQ7w8A8f4AEO8PAPH+ABDvDwDx/gAQ7w8A8f4AEO8PAPH+ABDvDwDx/gAQ7w8A8f4AEO8PAPH+ABDvDwDx/gAQ7w8A8f4AEO8PAPH+ABDvDwDx/gAQ7w8A8f4AEO8PAPH+ABDvDwDx/gAQ7w8A8f4AEO8PAPH+ABDvDwDx/gAQ7w8A8f4AEO8PAPH+ABDvDwDx/gAQ7w8A8f4AEO8PAPH+ABDvDwDx/gAQ7w8A8f4AEO8PAPH+ABDvDwDx/gAQ7w8A8f4AEO8PAPH+ABDvDwDx/gAQ7w8A8f4AEO8PAPH+ABDvDwDx/gAQ7w8A8f4AEO8PAPH+ABDvDwDx/gAQ7w8A8f4AEO8PAPH+ABDvDwDx/gAQ7w8A8f4AEO8PAPH+ABDvDwDx/gAQ7w8A8f4AyEH/9AcA2v0BIN4fAKlO120PAGEApX97ACgDeN0DQBnA7tsZBPAnAKQ2f/Z8BZAGMAYAbQD/BIA2gMUsAngeAKlNFvv7xwAgDeBWCQDSAKYdAKQBjAFAGsCNhwEgDeBlBwBlAJMOAMoAJh8AgDCAGwX9+g+AWL//T4897ACQAQCnBwLM84+VXJEnTwAGHAMABgAMABgAMABgAMAAgAEAAwAGAAwAGAAwAGAAwACAAQADAAYADAAYADAAYADAAIABAAMABgAMABgAAAAAAAAAAAAAAAAAAAAAAAAAAAAAAAAAAAAAAAAAAAAAAAAAAAAAAAAAAAAAAAAAAAAAAAAAAAAAAAAAAAAAAAAAAAAAAAAAAAAAAAAAAAAAAAAAAAAAAAAAAAAAAACCAGjvPTpxMfZMDPWUm77jx4ffPjP+Ykfu9osMoHt2xSeclcv7mrnd7W98dWd/deYJ075Pfb+4AEojy76JqR5vSXy3e6/8sr964f5c7RcWQNu0b3Km2xLe7LM31++35mm/sADGfdMznuxeD1Q37E+WcrRfVAB9q80DWO0znb/3QznaLyiA8pw3zFzZdP7+u+352S8ogH5vmn7T+Xv/Sm72iwpg1AZg1Hb+/qJx/4O09gsLYNIGYNJ2/v6znOwXF8C8DcC87fz9T/nYLzAAbxzb+Xu/Iw/7ALABqHP+sQKE3geADUC9848TIPQ+AGwA6p5/jACh9wFgA1D//BsHCL0PABuABuffMEDofQDYADQ6/0YBQu8DwAag4fk3CBB6HwA2AI3Pv36A0PsAsAGIcf51A4Te1wUwE/VK0JmkBxDn/OsFCL0vDGBgKw4g1vnXCRB6HwC2A4h3/rUDhN4HgO0Anol3/jUDhN4HgO0AOn70pgCh9wFgPIAPvS1A6H0A2A7gBW8LEHofAMYDuG4MEHofALYD2O1tAULvA8B4AIeMAULvA8B4ACeMAULvA8B4AOeMAULvA8B4AEPGAKH3AWA8gB5jgND7ADAeQPuKLUDofQBYD+CTiCurCQKE3geA8QAeWdp04RdDCQKE3geA9QCObbzuy46BJAFC7wPAeAAtU+svu7rLJQoQeh8A1gNoraz5QWz1TNklDBB6HwDmA+j5+t413zxVe39HZvcBYD2A1sMnL127dunkc2XXVIDQ+wDY2gP4dQKE3gcAAAAAAAAAAAAAAAAAAAAAAAAAAAAAAAAAAAAAAAAAAAAAAAAAAAAAAAAAAAAAAAAAAAAAAADILoCteatYAOQWQIIBAAAAAAAAAAAAAAAAAAAAAAAAAAAAAAAAAJAHAPO2/vPx/6T9UfsL+dkvKIBJG4DJ+H9S5Ls3fpyf/YICGLUBGE1wq1cj9k/lZ7+gAPptAPoT3Or7EfsH87NfUADlOUv/uXKCW3063/sFBeD6Vpvvv9qX6F7fzfV+UQG48eYBjCe71/Zv87xfWABt0832n25LeLNPLuR4v7AAXGlkuZn81eMtie/2wTW/dS6PlHK1X1wAznXPriTNv3J5X1P3e+T7u/uz3TnbLzIA59p7j05cjD0TQz3lpu/4oYNvnT/a2567/WIDYADAAIABAAMABgAMABgAMABgAMAAgAEAAwAAAAAAAAAAAAAAAAAAAAAAAAAAAAAAAAAAAAAAAAAAAAAAAAAAAAAAAAAAAAAAAAAAAAAAAAAAAAAAAAAAAAAAAAAAAAAAAAAAAAAAAAAAAACZBXDf4RN/O3fqD/fFuDTFt5p9fPjtM+MvdqS+Lwdg74Ubdx7t9rnfNLg0vTeb3v7GV3cfYOaJlPfVAPzx5i+P97+/1rsyxbeb33tlzcd9XLg/1X0tANvG1j/i8dqXpviBE8/eXL/fmua+FIBtZzd+us7LNa9N7yNnDlQ3fmphKcV9JQCb+nu/vLvGtel96NSmft4PpbgvBCCiv/eV6GvT+9i5iH7+u+3p7esAiOzvbz0QeXFqHzwZ1c/7V1Lb1wEQ3d/7w5FXp/XRs9H9/Adp7esAqNW/xi8CKX34dI1+/rOU9nUA1OzvL0Ren87Hz9fq539KZ18HQO3+/lL8Pz/B2Pp5vyONfR0AdfoHBFCnX6yA1n0dAPX6hwNQr1+cgNZ9HQB1+wcDULdfjIDWfR0A9fuHAlC/X+OA1n0dAA36BwLQoF/DgNZ9HQCN+ocB0Khfo4DWfR0ADfsHAdCwX4OA1n0dAI37hwDQuF/9gNZ9HQAx+gcAEKNf3YDWfR0AcfonATAT9UrQmaQHGKdfvYDWfR0AsfonATCwFQcYq1+dgNZ9HQDx+qcNIF6/2gGt+0IA3vEZBPBMvH41A1r3hQAM+gwC6PjRmwJa94UA7FrIIoAPvS2gdV8IwEc+gwBe8LaA1n0hAD0+iwCuGwNeB0DcOZZFALu9LaB1XwnAe1kEcMgY8BAAYs/nWQRwwhjwBABizw9ZBHDOGPAcAGLPp1kEMGQMOASA2FPJIoAeY8AeAMSeI1kE0L5iC2jdVwKwZylivxr6eYBP4t5UjYDWfaVnAl/bvH72H6EBPLKZ5RdDCQJa95UAtGx6ocbZbReD/1vApuenvuwYSBLQuq/0r4Fdt9Yvv7PNhQfQMrX+squ7XKKA1n0lAK5r7deAhUHnMgDAtVbW/CC3eqbsEga07isBcC2v/fwt86NdLhsAnOv5+t413zxVe3/Hr7YvBMC5PUcqn/7w+XvHeu78ZyYAuNbDJy9du3bp5HNl11RA674SgA2TDQCx9ncE3gcAAAAAAAAAAAAAAAAAAAAAAAAAAAAAAAAAAAAAAAAAAAAAAAAAAAAAAAAAAAAAAAAAAAAAAAAoLoCteatYAOQWQIIBAAAAAAAAAAAAAAAAAAAAAAAAAAAAAAAAABAMwFjUg56NvHTe1n8+/k3tj9pfSG9fCUDkp8i8GnnppA3AZPybinz3x4/T21cC8LuoB+2OvHTUBmA0wV1djdg/ld6+EoBtNzc/5lIp8tJ+G4D+BHf1fsT+wfT2lQC4v29+zPPRV5bnLP3nyglu6umw+1IAyv/ddFQ7a1zat9p8/9W+RHf1btB9KQCud8NPTCv7a1463jyA8WQ31f5tyH0tAG5knYCVkdpXtk0323+6LeFNPbkQcF8MgNu/5pv73P56V5ZGlpvJXz3ekvimHlzzW+fySCnVfTUAbuf5u+8ifev8zgaXds+uJM2/cnlfU3d15Pu7+7PdKe/LAXCu9OhLY2MvPRrnL0p779GJi7FnYqin3PRdPXTwrfNHe9tT3xcEwACAAQADAAYADAAAAAAAAAAAAAAAAAAAAAAAAAAAAAAAAAAAAAAAAAAAAAAAAAAAAAAAAAAAAAAAAAAAAAAAAAAAAAAAAAAAAAAAAAAAAAAAAAAAAAAAAAAAAAAAAAAAAAAAAAAAAAAAAAAAAAAAAAAAAAAAAAAAAAAAAAAAAAAAAAAAAAAAAAAAAAAAAAAAAAAAAAAAAAAAAAAAAAAAAAAAAAAAAAAAdQCnB5gtn9M5AsCkNgAAAAAAAAAAAAAAAAAAAAAAAAAAAAAAAEA6s0iDkLMYHMAUEULOVHAAFSKEnEpwAINECDmDwQF0VqkQbqqd4V+nMEyGcDOcgReqlGbpEGpmS1l4qVLXEiXCzFJXNl6s1sXXgCBz5fdZebliaZifBFOf5TdLLjvTOViZ4jnB9J7/m6r8Zc/WlPs/TiVyaW3bIhAAAAAASUVORK5CYII=;fontSize=14;sketch=0;fontFamily=Helvetica;" parent="rQPKTti5xz2RbczONzEl-1" vertex="1">
                    <mxGeometry x="-695" y="660" width="40" height="40" as="geometry"/>
                </mxCell>
                <mxCell id="rQPKTti5xz2RbczONzEl-28" value="Custom Apps&#10;Databases&#10;etc." style="shape=image;verticalLabelPosition=bottom;verticalAlign=top;imageAspect=0;aspect=fixed;image=data:image/png,iVBORw0KGgoAAAANSUhEUgAAAgAAAAIACAYAAAD0eNT6AAAABHNCSVQICAgIfAhkiAAAAAlwSFlzAAAOxAAADsQBlSsOGwAAABl0RVh0U29mdHdhcmUAd3d3Lmlua3NjYXBlLm9yZ5vuPBoAACAASURBVHic7d13nGVFmf/xT0/PkGYYBoZhyAw5zJARRUAYGVAQBBNiIIruKuAgyrK7uoph/RkxrQqGVXFdV1lEMoLkIeekDFmEITM5T3f//qjbS9PT3ff2fZ6qOuH7fr2eF4h9Tj1V99xTdU+oAhEREREREREREREREREREREREREREREREREREREREREpio7cCYiIiDjqBCYB2wDbN/45CVgLGN2ItRv/BFgIzG78cwEwD3gKmAk83Pjn34CuNOmnowGAiIiU2RjgLcBbgf2BKcCqzmUsBR4ArgOuBW4gDBZEREQkoR2ALwE3AcuBnsSxvFH2FwlXGURERCSStYGPATNI3+E3i4eAM4CJ0WovIiJSM/sBFwLLyN/RN4tlwB8JtyRERESkDfsAfyZ/p95uzAAOQ8/aiYiItOQI4E7yd+BecQfwTtcWEhERqZCtgCvI32HHimvQA4MiIiL/Z3XgTGAJ+Tvp2LEM+B7h1UUREZHaOhB4gvwdc+p4HJjm0H4iIiKl0kn41d9F/s44V3QTrgaMsjWliIhIOWxEmEkvdwdclLi+0SYiIiKV9TbgRfJ3ukWLFwi3Q0RERCrnGPJM21uWWAF8tO3WFRERKaDphHveuTvZokc34dkIERGRUusAvkn+jrVs8X1gRBvtPSyaolBERGIYAfyCcOk/h5eAe4CZwMPAI4R77QuB2Y1/AowmLDQ0mrCYz7Z9YldgQtKsX/Mr4HjCgEBERKQ0vkvaX82LgIuAU4Gd8PmB2wHs3NjnxcDixHU6y6EOIiIiyfwr6TrJOwnPGIxPUK+1CFc0riLdMw1nJKiXiIiI2UeI3zkuAc4GtkxUp4FsBZxD/CmMuwm3AkRERArrbcR91W8R4bJ4kSbO2Yhwu2MR8eq9HM0TICIiBbUR4cG7WJ3gxcDmyWozfFsAlxKv/i8CGyarjYiISAtGEm9636eBI9JVxexdwN+J0xbXEdZREBERKYSvEqfDuxBYJ2E9vKwFnEecNvlSwnqIiIgM6iD8V/VbSnj1rsxz1XQApwHL8G2bLuCAhPUQERFZyRrAE/h2cK8C+6SsRGRvIUw85NlGjwGrp6yEiIhIX1/Bt2ObRZh4p2om4/9cwJkpKyAiItJrW3zfgX8UmJSyAolNItTRq72WAFunrICIiAjAn/HrzJ6l2p1/r00IbzV4tduVadMXEZG6exd+ndirwI5p089qJ3yfCXhn2vRFRKSuOoC78Om8llKtB/5atR9+bwfcnjh3ERGpqYPx+/U6PXHuRfIZ/NrxoMS5i4hIDd2IT6d1MeV+z9+qA/gjPm15feLcRUSkZvbHp8N6Glg7beqFNB54Bp823Tdx7iIiUiMX4dNZlWlu/9jei0+b/jF14iIiUg8T8Hlw7fLUiZeAxyqCy4B1UycuIiLVNx17J7WIYi/pm8vWwGLs7Xty6sRFRKT67sTeQZ2VPOvy+AH29r0tedYiIlJpO2DvnJYAG6VOvEQ2IcyLYG3n7VotcIRf7iIiUlEfcNjHLwlT/srA/g6c67Cfoxz2ISIiAsDN2H6VdgNbJs+6fLYmtJWlrW9MnrWIiFTSmtif/r8uddIlZp1oaRkwppWCdAtARESG8hZglHEfv/ZIpCasbTWKeq6vICIizr6F7RfpYmBc8qzLay3C65KWNv968qxFRKRyrK//XZQ+5dKzTgzU0gqBugUgIiKD6QQmG/dxjUciNWNtsymofxcREYMtsf0S7QF2Sp51+e2Kvd0nNStEIwQRERnMtsbtXwIe8EikZu4DXjHuo+mEQBoAiIjIYKwDgLsJv0ZleLqBe4z72KbZH2gAICIig7EOAGa6ZFFP1rZr+tlpACAiIoOZZNz+EY8kaso6AGi66qIGACIiMpixxu11BaB91rZr+tlpACAiIoNZ07j98y5Z1JO17Zp+dhoAiIjIYKwDgPkuWdSTte00ABARkbZpAJCPBgAiIpJNS6vKDWGBSxb1FH0AMLKFnegdThERkXLpaPYHugIgIiKxWK8g1Jn19kvTqy8aAIiISCzWTqzONAAQEZHS0gCgfRoAiIhIaa2fO4ESs7bdwmZ/oAGAiIjEYl1LoM6sbfdysz/QAEBERGLRAKB9TZfzbeKxZn+gAYCIiMSiAUD7rG33eLM/0ABARERi2Y0W3keXlYwAdjHuQwMAERHJZl1gx9xJlNAuwHjjPnQLQEREsjogdwIlNNW4/VLgiWZ/pAGAiIjE9NbcCZSQddB0B7Cs2R9pACAiIjFNA8blTqJE1sY+aLqxlT/SAEBERGJaDXhv7iRK5EhgVeM+ZrTyRxoAiIhIbEfnTqBErG3VDdzayh+28nqGlgMWERGLHmAbWngyvea2AR7G9urkHcCePumED84SIiJSbmdg7wvOSZ51+fwMezuf7pmQBgAiIvW2KeHSsqUvWNbYjwxsE8Lre9Y+d0vPpDQAEBGRGdj7g+8kz7o8/gN7+97hnZQGACIichL2/mAxzr9QK2IbYAn29j3DOzENAEREZD3CZXxrn3Bp6sRL4Ers7boU2NA7MQ0AREQE4FzsfUIP8K7UiRfYkfi06bkxktMAQEREAHbC/jBgD/A0sE7i3ItoXeBZfAYAe8RIUAMAERHp9Sd8OqxLqPdSwR3AH/FpyxtiJakBgIiI9JqGT6fVA5yWOPci+Sf82jHaLRUNAEREpK+b8Om4lgFvSZx7EUzF54HKHuAWIl5J0QBARET6eiM+zwL0AHOBXdKmn9WOwGz8fv3vEzNZDQBERKS/3+DXiT0LbJ42/Sw2B2bh124XxE5YAwAREelvU2ARfp3Zo1R7ELA5YTEkr/ZaDmwfO2kNAEREZCBfwK9D6yH8Ot4paQ3S2BnfX/49wFdSJK4BgIiIDGQUcBe+HdtsYL+UlYhsKjAH3zZ6AFg1RfIaAIiIyGC2J8zx79nBLQfOBEakq4a7DmA6fk/7922bKJP+DCT3AKDs5SvyhhTfROAo4LvAFcBM4FXC3OZLG/8+s/H/fQd4P2FeeimOzxDn+3sxMD5hPbysS1jzIEabfDlhPbKfgMteviJvSDGtA5wM3EZ7n2s3cCthhTpNKZvfWMLrfDG+w88A701XFbMj8Zvet39cR7jtkkzuE3DZy1fkDSmWDYGzgAX4fcbzgW8DGySsh7xmDGEq2tjf5SuArRPVqR3b4LOq32DxNBmufOU+AZe9fEXekGIYBZyOb8ffP+YDnybxL6SaS9X598YS4AfAJikq16JNgf8g5Bar3ouBN6SqUF+5T8BlL1+RNyS/rYG7SfeZ3wlsmaRm9Za68+8bS4GfkveKwDbAzxq5xK7vsYnqtJLcJ+Cyl6/IG5LX4cS7NzxUzAEOS1C/usrZ+feNbuBG4KPAuKg1DtYG/gGYgd9UyM3i9AT1GlTuE3DZy1fkDcnnRGAF+T775cAJ0WtZP0Xp/PvHYsKT96cR1hbweIVwBLAr4dbSZcS9zD9QnOlQh0G1soKQ9SRqXaWo7OVLXnVebzynE4GfkL/9exq5/GfmPKpiDKEj3Dd3Ii14BbiH8Arpw8AjwAuEZ0XmEJ5HgVCnccCahFdStwW2I1zi35V8ryF+k7BkcFa5f4GVvXxF3pD0DifvL//+sRw4NGqN66Gov/yrGF8n/+AZsFek7uUr8oaktRV57vk3i3mEX3TSnjWAa8j/OVY9VhDmxygMa4XqXr4ib0g6o0j7tP9w4w5gZLTaV5d++aeJRcARLX4mLso8z7KIFMuphHumRbUHcEruJEqmTPf8y2wWcADwx5SF6iHA+OVLXoW4j1YDGxIeshqdO5Em5hNuBTyfO5ESiNn5zyc8dCehjY8DXkpdsK4AiIiHz1D8zh9Cp3Na7iRKYA3gIuJ0/jcTZvI7lbBSXl2tAL5ImK8ieeffKut9jbqXr8gbEt86xJ3i1zvmEyZ0kYHFvOc/g9f/8t8deChSWUWO+0i4pK+FtaJ1L1+RNyS+k8n/OQ83Ph6lJcov5tP+NzHwZf9RwHTCwCz3cRE7FhIm91lliM+gUKwVFpFqux2/E+QDhM5gMuGWwujGv09v/H9e5dwSpSXKLeUv/4FsDlwQqfwixHnARk3aoHA0ABCRwUzEZ070pcBJQOcQZXUSrjZ4LL7SDUww1746cnf+fe1FWPc+d4ftFZcDbx5G/QtFAwARGcxR+HT+BwyjzAPwGQQc2VaNq6dInX9f04ArI+UVO7qBS4A926x7YWgAICKD+S72c8RJbZR7ikO5Z7VRbtUUtfPva2fgl4SJcnJ37M1iNvBDwmJElaABgIgM5nJs54cHGPqy/2A6gQeNZV/aRrlVUobOv6+1CEvx3kK6pXhbiW7CLYujgdWd65ydBgAiMpjHsJ0fphvK/pSx7EcMZZdd2Tr//jYhPA9yFT63g4Ybc4HzCStNlu7BvuHQAEBEBvMytvPDDoaypxjLLuzkK5GVvfPvbw1gKvAFwoDgpTZzHyqeIryh8PlGWaNSVKwINAAQkcFYf31ZOos1jWUvMZRdVlXr/AezAXAQ9jodQJjoqrY0ABCRwSwh3wBgrLHsRYayyyjHJD+5qf8yUgOKyGCex3Z+yHkL4DlD2WVTl1/+/an/GoIWAxIRiznG7Q8ybHugsWxr7mURc1W/m4CDCdP4SgVpBCUig7kI2/nhQdp/DdC6iEzStdczqesv/17qv4agKwAiYnG/cfvJwCfa2O4kbLcPIMxBUGX65S9mGkGJyGAOx36OWEqY9rVV0wjryFvLfWdbNS6Huv/y76X+y0gNKCKDGYP9TYDeQcApDH07YCRh4iCPzn8xYaXBKlLn/xr1X0ZqQBEZinU64L7xEGGGvymEjmxM499Pw37Pv29cFqUl8lPn/3rqv4xyN2DZy1fkDYnPY0XA1PH+KC2RVx3f829G548hdLTwN9ZGaKWMKpcveVk/f2luFPAk5ZkT/XlgM8KthKpYg7D87NQI+74ZeDvlfOAvd/9RaHoLQESsVgVeyZ3EMLwErJI7CUdjgCuI0/nfRHk7f3GQ+xJK2ctX5A2JazRwLfk/5+FGWS9p96fL/kPT+cModwOWvXxF3pB4ytr590bZOzh1/s3p/GGUuwHLXr4ib0gcZe/8e6OsHZ06/9bo/GGUuwHLXr4ib4i/qnT+vVG2Dk+df+t0/jDK3YBlL1+RN8RX1Tr/3ihLx6fOf3h0/jDK3YBlL1+RN8RPVTv/3ih6B6jOf/h0/jDK3YBlL1+RN8RH1Tv/3ihqR6jOvz06fxjlbsCyl6/IG2JXl86/N4rWIarzb5/OH0a5G7Ds5SvyhtjUrfPvjaJ0jOr8bXT+MMrdgGUvX5E3pH117fx7I3cHqc7fTucPo9wNWPbyFXlD2jMGuJE4n8n9wHOO+5sF3Bcp1xsbbZFazFX9bqQenT/o/GGWuwHLXr4ib8jwxez8ezvUVQirCF4OLG5jP4uBS4EjCYsRpcg5FXX+fnT+GIJWA4xfvuRV6dW8IhhD6JT3ibDvGcDBwIJ+/300MA3YA9gJ2BYYB6zV+P/nAHOBh4EHgDuAq4GFBcjd2xjgMmDfCPueARxCvRb2yd1/lJ5GUCL1UIVf0TnqMAY4Avh34GJgJvACsKQRLzT+20XAVxp/O9h+9Mvfl/ovIzWgSPVVofPvlfIWxhWETn64+1nS2Paoxr7U+ceh/stIDShSbVXq/HvFrNN9hAcPvfb3HHEfYqxr5w/qv8zUgCLVFfNVvxnk7Xzq/hpj7vYvAvVfRmpAkWqqcuffq66DgKK0f27qv4zUgCLVU4fOv1fdBgFFa/+c1H8ZqQFFqqVOnX+vugwCitr+uaj/MlIDilRHHTv/XlUfBBS9/XNQ/2WkBhSphjp3/r2qOggoS/unpv7LSA0oUn7q/F9TtUFA2do/JfVfRmpAkXJT57+yqgwCytr+qaj/MlIDipSXOv/BlX0QUPb2T0H9l5EaUKSc1Pk3V9ZBQFXaPzb1X0ZqQJHyqeL0vrGMAe4nf6featxHtdo/JvVfRmpAkXLRL//hWQV4nvwde6sxq5GzNKf+y0gNKFIe6vyH70Pk79SHG++P0hLVo/7LKHcDlr18Rd6oE132b8+f8GunB4DpwGTCYGx049+nN/4/r3Iui9IS1aPzh1HuBix7+Yq8URfq/NuzJrAEexstBU4COocoqxM4ufG31vIWU93PxJPOH0a5G7Ds5SvyRh2o82/fu7C30VLggGGUeQA+g4DD26pxvej8MYQRuRMQEZMxwOXAPhH2PQM4GFgQYd9FsYfDPk4Drh7G318NfMahXI/cRYaUewRV9vIVeaPK9Mvf7mJs7fQAQ1/2H0wn8KCx7AvbKLdudP4Ygq4AiJSTfvn72Nq4/c+Arja26wJ+bix7G+P2UnMaAIiUjzp/P+OM21+VaVuw5y4119HC31gvg7RSRpXLl7ysn3/RjAYuAfaPsO+bCJ3//Aj7LqolwKqG7dek/cHSmsA8Q9lLgdUM29dB7v6j0EbmTkCkBiYCU4E3AdsBmwMTCJ15DzAXmAPMJNxTvoPwoFj/jli//P1ZT/CV7iBEcj9EUfbyFXkjl3UI73zfNkhezWIJYYKaDxCmfdUDf3G8jK3tdjCUPcVY9kuGsuuirOePwsjdgGUvX5E3UtsQOIvwS9qrDs8Tb7GaOnf+AI9ia79TDWV/ylj2I4ay66Js54/Cyd2AZS9fkTdSGQWcjm/HHzvq3vlDuKViacMHaf81wIeMZV/aRrl1U5bzRxZ6C0DEbmvCpf5vEO7rl0Fd7/n3N9O4/WTgE21sdxK22wdgz12kqdwjqLKXr8gbsR1OeIgvdz2HE/rl/5r3Y2/PpcC0YZQ5DVjmUO772qpxvRT9/FF4uRuw7OUr8kZMJwIrClDH4YQ6/9dbD+jG3q5LgVMY+nbASMKqgB6dfxewrrn21Vfk80cp5G7AspevyBuxnIhPx5Ey1PkP7Fb82vghwsN9UwhtPabx76dhv+ffN26K0hLVU9TzR2moAUVe73D0y79KTiL/5zPc+McoLVE96r+M1IAir9ka3fOvmnUo19sb84C1o7RE9aj/MlIDigSjgLvJ3wGo8/f3bfJ/Vq3G1yO1QRWp/zJSA4oEp5P/5K/OP44NCFMv5/7MmsVcwoOL0hr1X0ZqQJEww1+ZLhOr8x++T5P/c2sW06PVvprUfxmpAUXC9L65T/6txn2o82/HKOBO8n9+g8VtaAG34VL/ZaQGlLor20NiswidmQzfloSVGXN/hv1jNmEVSRke9V9GakCpu5PJ3wEMN94fpSXq4TBgOfk/w95YDhwStcbVpf7LSA0odXc7fifzBwj3cScT1g0Y3fj36Y3/z6ucy6K0RH2cQDEmeuoGjo1c1ypT/2WkBpQ6m4jfVLEnMfRUsZ2Eqw1LHcpbjJ4DsDqBvFcClqPO30r9l5EaUOrsKHw6/wOGUeYB+AwCDm+rxtLXoeR5JmA2uuzvQf2XkRpQ6uy72L8DJ7VR7ikO5X65jXJlZVsAd5Cu878NPfDnRf2XkRpQ6uxybMf/Awx92X8wncCDxrIvbKNcGdhIwiI/84jX8c8lPAuiV/38qP8yUgNKnT2G7fi3TNzyKWPZfzWULQObCHwT31kD5xGm99UMf/7UfxmpAaXOXsZ2/O9gKHuKseznDGXL0NYGPgHcQnsPiXYTlvT9R7SwT0zqv4bQ0cLfWBuhlTJEimopsIph+7GEX4vtWJPw67BdS4DVDdtLayYAU4E3AdsRnhlYl/D5Qfj8XwaeIFyVuRW4tvHfJC71X0MowwCg7OVLXtbPP+cAYCzhvnC7lgKrGbYXKbvc/UehjcidgEjBtdt599rEsO2mxrKtuYtIhWkAIDK02cbtDzJse6CxbGvuIlJhGgCIDO0x4/Yn0v5rgCcay37UuL2IVJgGACJDm2ncfjLhafHhOgnbGwRgz11EKkwDAJGh3eKwj28B04bx99Ma21h55C4iNZb7Pcqyl6/IG1br4bcY0CkMfTtgJGHioGUO5XURXkUTqbPc549C02uA8cuXvDxe47kVeKPDfgD+AvwMuAp4qvHfJhEeFvwI9sv+vW4G9nbal0hZ5e4/Ck1zTos092v8BgA7AGc57Wsov05QhoiUmK4AxC9f8vIYwa8DPA2MdthXCvOBzdBrgCK5+49C00OAIs29CpyTO4lh+BHq/EWkCV0BiF++5OU1gt8AeAQY47S/WOYBWwMv5k5EpABy9x+FpisAIq15Dvhi7iRa8HnU+YtIC3QFIH75kpfnCH4U4d363R336el2wpP/K3InIlIQufuPQtMAIH75kpf3F3hL4C5gLef9Ws0BdgOezJ2ISIHk7j8KTbcARIbnceBoivUrewXwIdT5i4gzzaQksrIT8Jkh0BrdwLGR6ypSVuq/jNSAIgM7Bp9pe9uNFdhXDBSpMvVfRmpAkcEdSrj/nrrznw0ckqB+ImWm/stIDSgytC2AO0jX+d8GbJ6kZiLlpv7LSA0o0lzvSn5zidfxLwDOQGt4iLRK/ZeRGlCkdROBbxLm4/fq+OcBXycsTSwirVP/ZaQGFBm+tYFPECYOaudtgW7gJuAfG/sSkeFT/zWEMkwEJFJ2E4CpwJuA7QjPDKwLrNn4/+cDLwNPAH8FbgWubfw3EWmf+q8haAAgIiJVpf5rCJoJUEREpIY0ABAREakhDQBERERqSAMAERGRGtIAQEREpIY0ABAREakhDQBERERqSHOKS9GVfTauSr9HLCLlpSsAIiIiNaQBgIiISA1pACAiIlJDGgCIiIjUkAYAIiIiNaQBgIiISA1pACAiIlJDGgCIiIjUkAYAIiIiNaQBgIiISA1pACAiIlJDGgCIiIjUkAYAIiIiNaQBgIiISA1pACAiIlJDI3MnIBJZh3H7HpcsREQKRlcAREREakgDABERkRrSAEBERKSGNAAQERGpIQ0AREREakgDABERkRrSAEBERKSGNA+AiEhxrQ5sCWwMrAtMaPxz/T7/e3VgbOPvxwCjCOf2NRv/bTZhPos5ff7ZDcwFVgAvAH/v88/ngWca/3tFzMpJXq1MkmKdCMU6EYvUW+7jL3f5Un0jge2BHYCtCB1+b2yUMa9u4EXgb8ADwF+ABxvxXMa8hkPf3yFoACBFl/v4y12+VMsqwI7Abn1iJ2C1nEm14VVeGxTcB9wEPETxZs7U93cIGgBI0eU+/nKXL+W2BvBmYP9GvIEwCKiiV4EZwA3AjcDd5L+FoO/vEDQAkKLLffzlLl/KZSSwD/BWYCqwJ9Xt8JtZANxCGBBcCtyTIQd9f4egAYAUXe7jL3f5UnyrA9OAQ4HDgYl50ymsp4ErgEsa/1yeoEx9f4egAYAUXe7jL3f5UkzjgXcROvxplO8efm6vEgYCFwJ/AhZGKkffX6MeY4hY5D7+cpcvxdFJ6OzPBRZhPzYUIRYDv2+0rXeHq+/vEHQFQIou9/FX9vJzq8L3fzJwNHA8sF7mXKru78B/Az8mvH5olfv7W2gaAEjR5T7+yl5+bmX9/q8GfBD4JLBz5lzqqIvwnMB/AhfT/vMCub+/haYBgBRd7uOv7OXnVrbv//rAsYSOf8PMuUjwAnA28D3CrIbDkfv7W2gaAEjR5T7+yl5+bmX5/r8BOBV4H2EqXSmeucA5hIHArBa3yf39LT09RCE55T7+yl5+7ii6NxEuMXeTv60UrcVSwoOYkwf4PPur+vEbnRpQcsp9/JW9/NxRVHsTXj/L3T6K9qOL8BrhUM9oVPX4TUYNKDnlPv7KXn7uKJq9gavI3y4Kv+gCfg1MYmXWfdeeGlByyn38lb383FEUmxIuG+tSf3VjGeEZgb4zMVr3WWl6CFCKLvfxV/byc8v9/R8HfJbwVH+Z5+SfAzwLPE9YivfFxv/+tnG/nyYsObwe4a2HiY3/Pc6435zmAt8EvoN9hsHcx29UGgBI0eU+/spefm65vv8jgY8BXwTWzZTDcHUBM4H7gUf7xSuDbBPr+FwX2ArYGtim8c+dGv/eaSwzleeADYz7qHT/pQGAFF3u46/s5eeW4/v/JuAnwI4Zym5VD/AQYbW8expxP2GK4eHux2K4n89owkBg10bsBezQxn7Koqr1AjQAkOLLffyVvfzcUn7/1wS+CnwCGJGw3FZ0ETr46xsxA3jZYb+5j08IVwv2BfYD3kJ4Kr9o7d+u2vdfeohCcsp9/JW9/NyRyjsIc8fnrm/fWECYY+Bj2C9FD6aIn894woRK5xJW/cv9ORStfUpFDSg55T7+yl5+7ohtInBexvr1j2eAswi/hkdGrHevon8+I4H9CQ/kPeuQb9WO38JTA0pOuY+/spefO2I6kDAlbO46vkr4tXsYaTr9vor8+fQ3AtiHMJXvCw65l/34LQU1oOSU+/gre/m5I4bVgO+T953+LuBS4HDyrh1QxM+nFaOAI4DLCG2Z+zgtWvsURu4GzH0A5K5/3eVuf5VfrON/B+Beh7zajVnA14DNI9StHUX7fNqxEXAGxXuGoyjtk1XuBsx9AOSuf93lbn+VX5zj/2RgsUNO7cQdwJGkv8TfTJE+H6uRwPuBO8nzGRe9fbLI3YC5D4Dc9a+73O2v8vMf/6sB/+mQSzsxg3Bvv6iK8PnEsA/FWKWx9nI3YM4PXwdQfrnbX+XnLX8LwiQ5Kb+z3cDvgSkO+ceW+/OJbUfCWx65BgK1l7sBc3zoOoCKI3f7q/x85b+dMAVuqu9qN/BHhl5etmhyHx+p7EJY+jfVsdAb709RuSLLfYCl/sC9Q2xyt7/Kz1P+vwIrHMpvNa4E9jDkm0vu4yO1PUm7nHM38DlqPCNg7gMs1QcdK8Qmd/ur/LTljwTOdii31XiEMGtdWeU+PnKZBjxIuuPkf4DVk9SsYHIfYKk+4FghNrnbX+WnK38M4d36FN/L2YRXz1YdZo5Fk/v4yGkUMJ3wWaY4Zm4mLJtcK7kPsBQfbMwQm9ztr/LTlL8BcLdDea3EucCE4TVDYeU+PopgPeDXpDl2HgO2TVOtIQziRAAAIABJREFUYsh9gKX4UGOG2ORuf5Ufv/wdgKccymoWTwBvG34TFFru46NI9gNmEv84eoXwLEIt5D7AYn+YsUNscre/yo9b/h7Ef9J/OfANYI0226DIch8fRbMG8C3CZx7zmJoNvDlRnbLKfYDF/BBThNjkbn+VH6/8FJ3/E4RJZaoq9/FRVHsSHvCMeWwtBA5KVaFcch9gMT/AFCE2udtf5ccpf29grsP+h4pzCQ8WVlnu46PI1iCsPBjzGFsKvDtVhXLIfYDF/PBShNjkbn+V71/+VGCBw74HixcJK83VQe7jowzeBbxEvONtGRWeMCj3ARbrQ0sVYpO7/VW+b/kHEi6dxvq+3URYXa4uch8fZbEx4TW+WMfdcsLS0JWT+wCL9YGlCrHJ3f4q36/8NwLzHfY5WJwDrOJQ5zLJfXyUyUjCUs6xjr+lwMHJapNI7gNM5Zc7ctdf5Rej/CnEe+BvPhW+BNtE7uOjjN4FzCHOsbgQeEu6qsSX+wBT+eWO3PVX+fnL3wKY5bCvgeIJYLJDPcsq9/FRVjsSb+6JOcBuyWoSWe4DTOWXO3LXX+XnLX8DwuxpMY6tWk7N2k/u46PMJgK3EufYfBHYLl1V4sl9gKn8ckfu+qv8vOXf57CPgeK3wGoO9Su73MdH2a0O/I44x+jjVGDK6dwHmMovd+Suv8rPW36M+HdqvDxrP7mPjyroAP4fcY7VGZR8oJr7AFP55Y7c9Vf5ecv3jG7gdIc6VUnu46NKPkk4xryP299R4gFr7gNM5Zc7ctdf5ect3ytWACc61Kdqch8fVXMMcdYR+ELKSnjKfYCp/HJH7vqr/Lzle8QSKj7dqkHu46OK3kt4p9/zGO4GPpiyEq0YmTsBEZEhLAPeB1ycO5ECWAXYEtgc2KwRVl8D/taIJwkPri1z2G+Z/S+hDc7Db2KpDuDnwF+Be5z2adbKfQnrKNF670Pll1vu+qv8vOVbLCdM8HNBxhxyGUtY0e6NwE6EiZS2BkZFLnc5YRW9h4D7gduA24F5kcstoncD/4Nvmz9GWAVzruM+o8p9iUnllzty11/l5y2/3VhO+OVfF2sRFjD6IfAA0EX+725vdDVy+mEjx7UitUERHYn/MwHnU6KHAst+Aqp7+bkjd/1Vft7y24kuCni/NIItCW813EicB89ixXLC622nN+pQdR/Cf0B2atIaGJT9BFT38nNH7vqr/LzltxOfdMi7qDYBPku8CZJyxL2NOm3i2E5Fcyq+bbYMeFPSGrSp7CegupefO3LXX+XnLX+48TWHnItmVcKvyKso1qV97+gCriRcvVnVpeWK5Zv4ttffgHWS1qANZT8B1b383JG7/io/b/nDid9QonujLVgfOAN4hvzfw9TxAmEwV6WrAh3AL/E/5gut7CegupefO3LXX+XnLb/VuIr4T7insi2ho1hG/u9f7ljWaIttDe1ZJKsA1+DbRu9JWoNhKvsJSOWrfJWfr/xW4lFKcCm0BVMIr41V+TJ/u9HVaJspbbducYwnLEPt1TYvUuBVLct+AlL5Kl/l5yu/Wcyj/J3CJsA5hOmKY7dX2aML+D2wRVstXRzbE97l92qXP6ZNv3XWiql8la/y61v+UNEFvNMhx1zWJDwYtpi47VTFWAx8o9GGZfVufBcP+lDa9FtjrZTKV/kqv77lDxVfcMgvlw8AzxK3feoQzwBHDbPti+TL+LXFq4QHRwvFWimVr/JVfn3LHyz+DIxwyC+1LYCridcudY0/E9Y4KJtO4Dr82uFXSbNvgbVCKl/lq/z6lj9QvABs4JBbSh3Ax4D5xGkTBSwivDZZtoHhROA5fNqgG9gvbfpDs1ZI5at8lV/f8vtHFzDNIa+UNgGux78tFAPHNcDGLX0yxfF2/N7+uJcCrdRrrYzKV/kqv77l949/d8gppSOAV/BvB8XQ8TLle0D0G/jVP8l02FoOWOWrfJUfs/y+7iMscVuG9eZHAd8GTsmdSD89wJOEdeWfAJ4C/k54l/yVRiwhtPHCxjajCRPYrEZ4h3084b3zTYFJhHvvOzT+vUgzMfYA3ycsOrQ8cy6tWBW4E5/XWucA2xFul2VlHcmofJWv8utbfm8sA3ZxyCeFicAN+NXdEs8S3pufDryZuK/NjQX2Jix8cx4wK2O9+8b1FHiinH52x28GyF8kzn1AZT8BqXyVr/Lbs5ND+b3xeWMuqbyB8Ivaq97DjaWEBXU+RTGmz90eOI2Q01LytcvThM61DL6IT51XAJMT576SOp8AVb7Kr3P5FzmU3wPcRTnm+X8n4bK5R52HE8uBy4HjgHGxK2mwNnA8cAUh59TttAA4NHot7UYB9+BT5wsS576SOp8AVb7Kr2v5e+Izy1lXY19FdyLpO7VnCCvmbZqgft42ILyy9zhp22wF8IkE9bPaA7+pofdKnPvr1PUEqPJVfp3Lv9ah7B7gB4YcUjkTn7q2GjcAh1O+990HMoLwpsSNpG3Df0tROaMf41PXq1Mn3lddT4AqX+XXtfyDHMrtIUyOslabOaTQge+rW83iEspxNaRdbyLcykjVnl9LU622rU14it+jrgcmzv3/1PEEqPJVfp3Lv9Wh3B4KurhJQwfh6oRHPZvFNWS+jJvYm/GdHneo+G6aKrXtWHzqeTuZXtGs4wlQ5av8upY/1aHMHsJl7iK9U95fil/+z1LuhW6sPkiaVwmLfCWgA7gFn3oelDh3MCRb1hOgylf5dS7/Cocyuwm/Aovq37DXcahYDnyP8F593Y0mdNCxH7D8XKoKteFN+DxQe1XqxDEkW9YToMpX+XUtf2d8TlTntVPRRD6OvX5DxU2EdpTX2wW4mbht//FktRm+C/Cp466pE6/TCVDlq/w6l/8bh/KWAVu3U9EEDiHeL9EVhLcJOlNVpoQ6CK8Oer0eN9BncHiy2gzPtvjMEPib1InX6QSo8lV+XcvfDJ/Osaiv/b2BMJGMtX4DxbPA/slqUn5TifdswHyKO2Pg2djrt5zwXU2mLidAla/y61z+1xzKWgJs1G5FI5pImHTHWr+B4mrCpDgyPBOI98rgLGDDdFVp2Sb4TKf8nZRJ1+UEqPJVfl3LXxWf95V/aKloJKOIM0lNN+FhwipM5pPLCOAL+Dx30j+up5jTT5+DvW7ziLso1OvU4QSo8lV+ncv/gEM5SynmlLYx3vVfBhyTshIVdxxxns34XsI6tGpzfJ4F+KhHMq28p2s9ieVej1zlq3yVP7QbgH2N5fwMp5OSo3cBf3De5yLgSOBS5/0O11hgG8LDZds1/n0TYAzh1bu1G/+EsMDRbMIzEAsJqx3OBB4GHmnEvIS5D+RQ4HfAGs77PQK40HmfVr8kTBBkcRvh9cLo6vALSOWr/LqWP9mhjBXAltaKOtsEeAV73frGK+Sb0W80MI3wrMadhEWWPOv2OOHy9PvItyLhm4FXh8ixnXgZ2DhlJVqwLT6f344pkq36CVDlq/w6l/9dhzKK9gtrBOEesLVefeMZ0q/NvhZhlcLrSbtS4XLCYlAnkH4yo8mEtyo863MNxXtW4xLs9UpyiyP2CUjlq3yVn6f8TsKCPdYy3upQT0+fwl6nvjEH2ClR7h3A24HfEm43eNajnVgE/Hcjp1RTO++A/9WbUxLl3iqPBbdmA6vHTjTmCUjlq3yVn698j5PQAxRrzv8t8H3ffyFpLvuPAA4jXN73yt07HiA8/DgyUhv0tTeh7b1yn094AK8oOoCHsNfrg7ETjXkCUvkqX+XnK/+XDvv/mEMdvXQQLvda69QbywizB8bUSbjU/ohj3rFjJuHJ/dizHh6G762PP1Osweo/Yq/TJbGTjHkCUvkqX+XnKX91YK5x33Pxf2rb4kPY26s3uoGjI+e7O2GZV6+cU8c9xL86cjy+8wR8IHK+wzGa8PaFpT5LCM+KRBPrBKTyVb7Kz1f+kQ77/olD/byMxXd62X+LmOvahAe4vJ/kzxHdwLmEmf1i+aJjvs8QXpUsip9hr9OHYyZoTS53+blD9Vf9q1r/XK/EDeRb+NXrT8R7avww4CXHXIsSLwLvcGynvkYQplz2yvXrkfJsxz7Y6/PHmAlak8tdfu5Q/VX/KtZ/JsW5nzqJcCnUo17PA+tHyHEkYbXAKvzqHyy6CVc2VvFpsteZiN8VnqWEh0WL4mFs9VlCxNc1rY2du/zcofqr/lWs/xkOdfPya3zq1AUcECG/zYBbnHIsQ9xEmIjJ2/74LSX8ywj5tetz2OtzVKzkrInlLj93qP6qf9Xq302cE3w7dsLvV3WM+/6747PQUtnieWBXh/brz+t5gBXAlAj5tWNz7PU5L1Zy1sRyl587VH/Vv2r1v82hXl7Ox6dON+F/339/7G9alDnmE+aa8NQJ3OyU3++dc7Owzv8wm0jzM1gbOXf5uUP1V/2rVv/THerlYTt8fv2vAHZxzu0IYLFDbmWPpYQ3Tjxth88zH12EWQeL4F+x1yfK4kDWpHKXnztUf9W/avXfyqFeHn6FT32+45zXe/G7V12FWAG8x9SiKzvTKbdfOOfVrm2x1+VzMRKzJpW7/Nyh+qv+Var/vQ518rAJPrPEPYvvE9RT8XsjoUqxFDjQ0K79rQY84ZDXMmAjx7wsHsRWl+uGW2CKOZ1FpDouzp1Awz/gc/46jTAbm4fdCO9kr+q0v1a8CNxI6DweJkwpPJuwgNGCxt+MISzxuzbhl+Z2hFX33kLcCXz6WoXwoNr++AwilwD/hP3ht1GEY+nz5ozsLsK24uRehNkFF/qkE1hHWLnLzx2qv+pfpfrv61Anq1XxebL+GsecNnPKqZW4g7Di4RRsczF0ENaUP410ixA9h+8bJDc45PQ8ceYuGK6p2OtysHdS1oRyl587VH/Vvyr1n0f4xZTbh/Gpj9dMhqOI/57/PODbxH1obTJwFuHp/Zh1mYHf1ed9nXKKvqpeC1bFvpLlt7yTsjZs7vJzh+qv+lel/hc61MeDx4p/nquoeU5D3D9eBb4ArOOYbzPjCe/bz3asR//wnI73Sod8rnTMx+IybPWY4Z2QtWFzl587VH/Vvyr1P9mhPlab4vPq355O+bwD39XqeqN3kZ31nPJsxzrEW7SoGzjcKc+9HfLpAjZ2ysfiVGz1WIjzs33Whs1dfu5Q/VX/qtS/CO9MfxZ7PW5wymU8cRb2eYywSExR7IvPE/f940X8rmx4TA70z065WOyMvR47eSZkTSZ3+blD9Vf9q1D/2cRbIW84rK9K9eD3y/OnDrn0jwsIT+sXzVjgd/jX98dO+b3bIZf7nHKx6CQ872GpxwmeCVkbNXf5uUP1V/2rUP8/OdTFahvs9XgCn4HMXvheGu8GPuOQV0wdhEWgPG95dOFzO2YE8JRDPls65GL1Z2x18BpUgTGRHs9ERKRt1vXUz0ye8cr+Gfv56LMOeXQCdzvk0hvLcf7VFtmHCRPoeNX/TkKbWn3BIZciDMK+gq0Od3gmowGASPk9g+17/Pb0Ka/E+qrdcmBDhzxOMObRN5YBhznklNo78R0EHOOQ0ybYp2B2f4q+De/AVoelOE5GpQGASLmNwX7ZNuVraANZG/vJ/XKHPDqBmcY8eqMbOM4hp1w+hN/tgL/ic2vmKmMey4G1HPKwWBd7e1pmFHwdDQBEym13bN/hZ9KnvJL3YD8XHeuQxwcc8uiNIlxutjoDv/bwWDXwRIc8vB4StXgOWx2O8EpEAwCRcvsgtu/wFelTXsnZ2OqwFPvT9R3A/cY8esM6h31RdAB/wKdN7sU2tTGEz3ipMY/vG3PwYL2S0dKS3UV4rUdE4trWuP1DLlnY7Gfc/nrCq4wWbyPMnW/1OOGXahX0AB8hPIFvtTP2FQNnAzcZ9zHVuL2HB43bb9PKH2kAIFJ91gGA9WRkNQ57HS5zyOM4h330NPYz12FfRTEbOB6fK77HOuzDesVqB/I/B/AX4/Zbu2SBbgGIlN092L7DXtPmtusg7Oeh7Yw5jAUWOeTxc2MeRfZr7O2zCHvnO8UhjwOMOVjthS3/Z70S0QBApNxexvYdXjd9yq/zb9jy9zgZejxc9iowwSGXopoIzMHeTscb8+jAvjSzx3wRFhOx5d9NePtnSLoFIFJto7C9wreAMIDIaWfj9tZ7wgBHO+zje4S1A6rqBeA/HPZjbese7O/zW485qxeBxYbtO4DNPBLRFQCR8toI2/c39/1/gIex1WG6sfw1Ce+HW3JYQP4rKSmMB+Zja6vlhDa3OM2YQxEefLUe900fZtQVAJFqsy4n+7RLFu1bFfv87NapUffDvsTqOeS/kpLCK8DPjPsYSViB0OJ24/ZbA6sY92H1lHH7pt99DQBEqm2icfu/uWTRvm2wdb49wAPGHN5q3B7gFw77KAvrAADsr+L1rhrZrlHAVsYcrKzfPQ0ARGrOOgCY5ZJF+yYZt3+ScEnawjoAuJNi3EpJ5SHCpD4W1jafA/zduI/NjdtbWb97Tb/7GgCIVJv1FsCrLlm0z/ogk/V96rHYJ//5b+P2ZWSt8y608BR7E9bP3uUhOgPrd09XAERqbn3j9rnvW1tPwk8at98W+3nyKuP2ZWSt8whanM1uCNbPflPj9lavGLdvOgCwPtjSCr0JIFJe1ulzrTYybv+UcXvrDIQvUownylO7jzB4tLz5sC1wt2F76wBgY+P2VtYrAE3nnNAVABEZivVXiNV44/bWtxisv0JvpJ4/gnoIdbewDr6sD9FZjz0r63dv9WZ/oAGAiAwl9xUAyyRGYL+FYZ1CuE4P//VnvfJhHQBYP3vrsWdl/e6t2uwPNAAQkaEsyVy+dfIc68x71lsQM43bl9nDxu03MW5vHQDkvgKw1Lj9as3+QAMAERnK8szlW58Et95Htc5I94hx+zKz1t3a9tZL6NbyrawDAF0BEBET60nIyjob2yLj9mON2+d+iyIna92tHbD1s889E+Ay4/a6AiAiJtaTkJX1JGzN39oJWSchKjNr3a1tbx28ln0AoCsAImJS9wGA9RbEAuP2ZVb2AUDTDjQyPQMgIll1ZC6/jq/QiQ/rsZv72LPm33R7DQBEZCi5fwVZf8FbryBYf8FbryCUWe7bJ9ZjN/fzL01/wTfRNH8NAERkKNaTkFXu+7i5L2OXWdkHALlfgdUAQESyyj0AsJ6ERxu3n2fc3jqPQZlZ624dAKxh3D73FQDrAKbp1TMNAERkKLlvAVhf5bLO5mbthKxTCZeZte7WwZf1s7cee1bRb2FoACAiQ8k9ALC+S279FfqMcXvrdLZlZp1G+e/G7ZsuhtOEdRZJq6Zz+TehAYCImFhPQlbWk7C1E7BO5TvFuH2ZTTZub51J0Dr4yz2Jk/X2W9PbZxoAiMhQrB2olXUAYF3T3ToA2Jf8r1LmMIJQdwvrWgKbGbd/0bi91XrG7ZtOgz2yhZ3U8eAVqYpvAZ82bD/RK5E2WU/Ck4zbWwcA6xGuAjxg3E/Z7Iz9F7i17ScZt899CyD6AEBXAESqzdqBWk9CVk8Zt9/cuP1MoNu4jwON25eRtc7dwKPGfVg/+yeN21tZv3tNF0PSAECk2qy/YnJfAXjcuP0Oxu3nA/cb9/FB4/ZlZK3zPdgnYbI+f2E99qzWN27f9LuvAYBItVmvAJR9ADAJ+4p+1xi33x3Y0biPMplMuAVgYW3zccBGxn08Ztzeyvrd0xUAkZor+y2AvwHLDdt3YO98rZ0RwHEO+yiLjzrs41rj9jtie35tGfZXQK2sD+DqGQCRmrMOAKxPUlutwP40+BuM29+AbRAC8A/UY1bA8cBHjPtYAcww7mNP4/Z/BbqM+7CyfvdmNfsDDQBEqu15bA+xbQl0OuXSrnuM2+9t3H4+cJNxH6OBU4z7KIPTsC+AdD32GRitn7n1mLMaCWxh3MdTDnmISMk9TVjatN3YMn3KrzMdW/5Nfwm14ARjDj3AbPLfUolpA2Au9nY6zphHB/CCMYfcg7WtseXfRf51PESkAK7DdjJ5e/KMX+8t2PLvwT4t7VhgoUMevzTmUWS/wd4+C7GvIriTQx7WKwhWh2LLv6XnF3QLQKT6rE/S517Q5i7s9+APMW4/D7jQuA+AYwgDmqqZCnzAYT8XYL/8bx2wLiP/LYCtjds/1cofaQAgUn1PGLe3noysFgJ3GvfhcRXjVw776CBcBRjnsK+iWAf4BT6zxnq08cHG7W8n/0qA1kF3S995DQBEqs/6PrN1URcP1xm33w9Y27iPK7FPCgRhhrpzqcY06x3Az/F5W+Q+4M/GfayL/fL99cbtPVgnsLIO+kWkInbDdj9xLvl/LLwN+33d4x3yeL9DHr1xhkM+uX0Wv/Z4r0M+H3XIY5pDHhadhFtOudtSRCpgNcI9dMsJxfoQndVowmVZSx2ucMijkzAvgUeH1014u6CsPkyog0db/AWfQeafjXksJP8S2JOxt+e2ybMWkcJ6ENsJ5ej0Ka/kYmx1WI59elgIr6l5dHo9hAfO3umQU2qHYx9U9o0PO+S0MWESIUseFzjkYXUctjososW5O3Jf1hORNO4zbm+dTc/DRcbtR+JzG+BcwoNiHkYBfwBOdNpfCscA59HacvKtuAv4rcN+TsQ+adXFDnlYWb9rD5B/FkMRKZDTsf2quCV9yitZn3Bis9TjSXx++LzRIZe+0U14JqDIDwZ2EO75e1327yG04R4OuXUS1o2w5pJ78SuA27DV4+fpUxaRIjsI20llMcWYWewG7J3OEU65nOOQS/+4kPBaXdGsRfjV713fHzrl9x6HXK5zysViNWAJtnpMT561iBTaBOy/3N6aPOuVeTzlfaNTLusQFlvy7hSfJLy2WBRTCRPLeNfzBeyvZva6xSEf6yJGHqZhr8ebkmctIoU3E9uJ5avpU17JOMLViKKcJA/G95J437iY8GBbLusTnneIUb9u4DCnPPd1yGcx4SpHbl/DVo9FwCrJsxaRwvs5tpOL14NvVv+L/YR/mWM+33DIZ7CYA3yZtEsJTwD+Hfu76EOF52DS+upfD/A7x3ws7sZWj2vTpywiZXA8tpPLCopxf9pjUqAe/ObkH0VYLjhWZ9lDmB//O8COTjkPZCfgu8CCyHW5Ab83CPZxyulAp3wsxmN/sPQrybMWkVLYCvuJsggzjHVgv53Rg+9DX5sAzznk1ErcQ3irYxdsbzSMaOzjn4B7E+X+LD5zMUA4DmY45PQwxXj7wmOWSeuiVyJSYdZO6pz0KQ9oOj4d0gcdc9qFMG1yio60N14izCPw5UZd9gC2IFypWaUR6zT+2x7Ahxp/+wfg5cS5ziFcZfBypFNen3TMycJ6i66Lai0yJSLO/gfbSeZ57JOteFgbWIr95D8LGOuY1/74PKRYtViK7xz7q+PzZsJS/N5EsBhJGMxZ6lKUZ3REpKCOw37S3D9xzv3tDdyBX+f0Pef83ot9StoqxQrg3aYWXdmXHfO7A/sKglYer/99KXnWIlIq62N/res/kmcdbESc19JWALs653oEuhLQQ5jU5khjW/Y3BZ+rP/3jYmCSc66tOruF/JrFXsmzFpHSuQvbiWYWadcRWR34PGGltlgd1c3412l/wn3v3J1wrpiP/9P1nfhM+jNYLCQcaylXBOwk3Fqz5P0Kxbg1JyIF9xXsJ8p9E+V6GGFmvBQd1ucj5D8FeCZR/kWK5wgPRXrzvPQ/VDxDWPQoxdsBUx3y9VhMSURqYG/sJ5zYtwF2w2fe/+HECsLJ2NvGhOmHc3fKqeI24lxKPxDfBZhaiRsIx2JMP3LI89jIOYpIRXQS5mG3nHBeJc7iQBOBn5L+RN8bs4izItxI4MyM9UoR3YQHKkf5NNnrbID9Mnm70UU4JmMcF6sDs435LSftTJEiUnIevzo+5JjPKMK7/UW4Z34N8e6nHkKcBYRyxwvA2x3bqa8RwFUFqOMCwiBuVce6HeOQ1+WO+YhIDeyH/cRzrVMuhwKPOOTjGV9wqttAxhF+KVfhVcEuwpsZMX+Bprrv32o8QjhmPVzvkM8JTrmISE2MwP5wWjewtSGHbYBLjDnEim7iLw+7G3BrAerabtxF/KVnjybeaovW+DO2tRm2cajbMoqxPoeIlMz3sJ8E21nVbW3Csqcx3uX2jBXAu9qo33B0Ei4D/zVzXYcTfyF0zLFfBT2McH87d32HiuWE6bEntFG/rzuUf3Eb5YqIuLwN8DytPwzYCXyc9HPQW2Ih8OYW62cxgtDhec5w6B33EwYrKd4334ewtn3uOrcaLxOO7VbbZjXsD+L2EAZiIiLD1oHPvfePtlDWVOA+h7JyxBxg5xbq6KEDOAj4DcXoABcC/0V4BS/VinmTCRPb5K57O/FXWnsY8h8cypoPrNlCWSIiAzoDn5PeYJeDtwDOdygjdzxL6JhSGgscT3grIeWl8GWE+9vHkr6DmUJo69yftzXOJxz7AxlBWILYWsZPWm1UEZGBrE844VtPRof12+8YwvMBuebDn4/PJda+8Sr5Fo0ZTVgw5mvAnfjOJ9AFPES4l/0+YK1EdepvH0Ibe35mLxCOhRzH4GLCd2BMv3q+02n/bxhW64qIDOAC7Cej6xv76iB0In9z2Gc70Q38HtgUeCP+DxouAd7TRht7G0N4i+ADhHfTfwvMAO4FHidcQl/aiFca/+1ewoyEv21sc1RjH/07qBwOw/+WxzLCgG0DwuAm5+RSH+O1q2Qes0Le10Ybi4is5BB8TnQfJ0wDm+Mk20NYJGbPfnU7NUI5ywnLKouPjxDnFsf0fuXsSdyFhJrFbYTviMe+Th5OA4uIDKaTfL/YPeIZwtPQAz2k1gGcF6HMbuCLaAU2i07CJD8x3vP/3SBldhCOlTIv0LSQMJmUiIiLT5P/xDbcWExY2XB0k7qNBR6MlMPVhOcoZHg2IDzcGOMzeYDmDy+OJhw7uZ5RscSPmtRNRGRY1qQY8/C3Ghcz+FPWA5lEWKI2Ri4vAm8bRi51N5VwXzzGZzEL2GwYuWxMmMq4qLMN9o8ubLNvioiWMN7TAAALx0lEQVQM6NvkP8E1i7/Qfme7O2FBlxh5dROe0NctgcF1Eh4+jLUGwiLCg5/t2I/wkGTu47tZ/G+b9RMRGdJmFHfq1RcJk6dYO9gjiLsIz82kny+gDKYQ9wG8FYTX6yw6CcdYkVdr3MtYRxGRQf2W/Ce5vrEM+A6+Dz0dT9xLvksJv3RbnSK5ylYHvkTcdR+6CJMWeRlHOOY85sfwjBmOdRQRWclOFOd+6GXAdpHq+fEE9XwSeG+k/MvgSOAp4rZxN+FXewzbEY7B3N+D3rBe4RARaSrGa3PDiYeBd0SvJXwqUX1uAPZNUJ+i2I/wazVF234yQX3egc/UvZa4g3RrMYhIjU0hz6xpc4DTgFHxq/h/TiPdFY8ryTeVcAr7EtYQSNGW3aTp/HuNIhwrud6UOTh+FUVEgt+R7uS2grCwyXpJarayY0n78OPNwLsZfAGlMhlBmBo55Qx7y8m3DO56hGM15oOk/eOmJDUTEWnYgTRXAW6l/Ve3PMWYi75ZPEN4dXBS/Oq525CwkuQTpG2zJYTBU267ANeRps5vTVMlEZHXnEu8k9pThEWDimRf4CXSdmg9hF+TVwEnAuOj17J944GPEi7zp/wF3BsvUbxnKd5H3Acdr01WExGRPjYmzDvueUJbAPwb4fWwItocuJ/0nVtvLCNML3w6sGPkurZiJ+CfCNP25pwj4j6Ke6VkdcIx7T3JVBda8ldEMvoifie0SwmDiqIbg88SyR7xAvAHwgNo+wBrRaz3OMIv7NMI9X8hY737xh8oxpLFzWxMOMa96v2L2AnrtQIRGcpo4BHCPV+ru4E3EyaFKboRwGeBzwMjM+fS39+AvxLmGXgS+Duhs36lEYsIl+jnN/5+TUId1iBcxh8PTAQ2IVzx2ALYHtg0WQ1as4IwodJXCR1i0a1KeBhyV4d9zQe2JaxfISKSzXH4/ar5dtrUzd4IPE7+X8F1i78RrniUyVn41f+MxLmLiAxoBHA7Pie2buDtadM3Wxs4n/ydYl3iPMq33v3B+M0n8TjhaoKISCHsit9DYM8TLkGXzTHAy+TvIKsaLwEfbvnTKI718X1e4rC06YuINPct/E5yV1DOZ5DWAc4hf2dZtfg9MGEYn0NRdACX4NcOv0ubvohIa0bj+87zvyTN3tehpJ8Ep4rxGHDIMNu+SD6HX1u8SriaICJSSAfjd8LrotwrnK0CTCff/PBljvmUf8nkw/GdLfOEtOmLiAzfb/E76c0lTDtcZhOAH5N3opyyxHLgR5Tzcn9fU4B5+LXL1ZTzlpiI1Mw6hHnsvU5+jzb2WXZbAD8lzHOQu6MtWiwlLKKzRdutWxzj8X01dAGwVdIaiIgYHITvMrpXUbwJd9q1KfBDYDH5O97csRj4AWHSoSoYRZgW2bONTkxaAxERBz/A90T4w7TpRzcB+GfCbH25O+LU8QRhMpt1za1YLGfj207np01fRMTHGoQpaT1PiGemrEAinYSHHS8jzyp6qWI5YS78QwmTR1XNl/Ftr2co9uqPIiJD2p2wRrvnifHkpDVIayJwCnATvrdQckU3MAM4CVjPsZ2KZjq+7dYFHJC0BiIiEXwc/5PjB5PWII9JwKeAP1Gu5wUWEyZyOhXYzLtRCuho/AdrX0taAxGRiP4L3xPkMsKcA3WxBvAO4PuEVROL9ErhcuCuRm6HNHKti8Pw/yyupjoPvIqIMAZ4CN8T5UJgaspKFMgawL7A6YRpcu/D/1bLQLGkUdbvgc80cqhTh9/XNMLSyp7t+zQFmgNBEw+IiJcdgNsIgwEvi4H3AJc77rOsOgmX3LclvDc+AdiQ8FzBRMIDZZ3AWMK5vXdFvd6ZCucRbq+8Qli85gVgFmERnseAmYSpnrtTVKbg3gH8L74zFS4F3kJYWVNEpHLeje/0qD2EE+cRKSshtfYe4kzm9LGUlRARyeFf8D95LgeOSlkJqaUPEuf5i7NTVkJEJKef4n8SXYEWTJF4PkyceRquQA/9iUiNjAKuxf9k2k01JwuSvKbjf+uqB3gQWCthPURECmEC4eEy75NqD/ALwnK8IharAL8izjH6DLBxuqqIiBTLFoQnzWOcYGdQoFeqpHTWIc5Vqh7CGxe7pKuKiEgxTSG8ehbjRPso4bU4keHYEv91LHpjKfC2dFURESm2vQkT+8Q44b5EmLRFpBVvA14mzrG4jLAYkoiI9HEI4QQZ48TbRXg4sDNVZaR0Ogkr+sV42K+H8AbBkclqIyJSMu8g7pS21wIbJKuNlMV6wJXEO+66gY8mq42ISEkdTpyZ1npjFrB/qspI4b0VeJ64nf8nktVGRKTkDiPulYAVhFsCoxLVR4pnFcIl/xiT+/Q9zo5PVSERkap4O2Gxn1gn5x7gfmD3VBWSwtiJsIRxzGNrGbrnLyLStgMI70zHPlGfia4G1MEqwJeI97BpbyxGT/uLiJjtRtx7tL1xL5qcpcp2I1zxiX0czSM8VyAiIg62JEzqE/vkvQz4NpqfvUrGAd8hzip+/eMZYOc01RIRqY/xwC3EP4n3ECaCmY7mDSizDuAY0lw96iFcXdg0Sc1ERGpoDHA+aU7oPYQHxfZJUjPx9AbSDRZ7CHMI6KqRiEhkHYQHubpJc3LvBn4NbJ6icmKyBfBfpDs2eoCzgZEpKiciIsH7iLd+wECxDDgX2CpF5WRYNgO+R9y5I/rHEsJtIhERyWA34GnSnfR7BwI/IXQ6ktck4KfEf62vfzwN7Bm/eiIiMpTxwCWk7QB6CNMVnw1sE7+K0s+2hEFY6o6/B7gamBC/iiIi0ooO4HTydAhdwGWEmQs7Yle0xkYABwOXk/Yef9/P+Wvofr+ISCG9AXiC9J1DbzwKnEF491x8rAl8DHiIfJ/r84QBnoiIFNg6wO/J11n0AHOAHxNeIdRVgeHrAPYFzgHmkvezPJ9wm0lERErifcBL5O08eggPjH0PTTPciu0J6zI8Rv7PbRF6yl9EpLQ2IM8DgoPFncCn0YODfW0LfAa4m/yfT29cjV73FBGphI8As8nfsfSNRwlXBg4CVo1X9cJZDXgb8H2K8Uu/b7wKnIBu24iIVMpEwox+OZ4gbxYLgAuBTxIeZKzS0sSjCHX6JHARoa6523ug+B2wfqQ2EBGRApgK/JX8Hc5QsRC4nvDa2eHAelFaIo6JhJy/DtxAuJeeuz2HiseBw6K0RMnpMoiIVNEqhHkD/gUYnTmXVj1HGLjMBP4CPNz4389mymdjYDvCg3vb9/n3svyKng98lbBU8NLMuRSSBgAiUmUbAl8Ejqe8S//OI6xD/zwwC3iRMCh4sfG/5xImsZlHuP3R+1rdnMb24wjn+rUIk+2MJbTFOMJDlOsBGzX+uSGhg9+E8H5+GXUT1nT4V8KgSkREamwKcCn5L0cr4sa1hOcRREREXucA4Dbyd1QK37ip8dmKiIgMaR/gGvJ3XApb3EeYEEpERGRYphGeZM/dkSmGFzcB70TPsYmIiNFbgAsID9Pl7twUA0cXYd7+vQb5DEVERNq2BXAW4Qn63B2eIsRC4EfA1kN8biIiIi7WBE4m7xK1dY97G5+Bll4WEZEsJhNm7CvCyoNVj3mEd/intfTJiIiIJLAacBRwBbCc/J1lVWIpYUXHo4ExLX8aIiIiGawNHANcDCwhfydatlgBzACmAxOG2fYiIiKFMI7w6/V89PDgUPEK8D/AscC6bbW0uNI7lCIifkYCbwQOAg4E9qS8axBYdQN3A5c34nbCq3xSEBoAiIjEMw7Yj/Du+l7AHsAaWTOKZzFwB3AjcHMj5gy5hWSlAYCISDojgV14bTAwBdiB8IBhmSwiLFl8H/AAYX2FuwgPR0pJaAAgIpJXJ7AlsCPhlcPtgc2ASYSleXOdp3sIy+k+CTzRiAeB+4HH0eX80tMAQESkuFYlDAY2AzYmPDy3LjAeWKfPP3tvK4wjnNdH8dordQsIv8y7CO/ZQ5hdbw7wMuHhvJf7/PvzhE7/KcIreiIiIiIiIiIiIiIiIiIiIiIiIiIiIiIiIiIiIiIiIiIiEtn/B9qJVF7Gv5jNAAAAAElFTkSuQmCC;fontSize=14;sketch=0;fontFamily=Helvetica;" parent="rQPKTti5xz2RbczONzEl-1" vertex="1">
                    <mxGeometry x="-662.5" y="330" width="45" height="45" as="geometry"/>
                </mxCell>
                <mxCell id="rQPKTti5xz2RbczONzEl-29" value="" style="rounded=0;whiteSpace=wrap;html=1;labelPosition=center;verticalLabelPosition=middle;align=center;verticalAlign=top;horizontal=1;direction=south;fillColor=#f5f5f5;strokeColor=#666666;fontColor=#333333;fontSize=13;sketch=1;fontFamily=Helvetica;" parent="rQPKTti5xz2RbczONzEl-1" vertex="1">
                    <mxGeometry x="-40" y="550" width="800" height="250" as="geometry"/>
                </mxCell>
                <mxCell id="rQPKTti5xz2RbczONzEl-30" value="Store" style="rounded=0;whiteSpace=wrap;html=1;align=center;fontSize=18;sketch=0;fontColor=#FFFFFF;fillColor=#13344C;fontFamily=Helvetica;" parent="rQPKTti5xz2RbczONzEl-1" vertex="1">
                    <mxGeometry x="-40" y="550" width="800" height="30" as="geometry"/>
                </mxCell>
                <mxCell id="rQPKTti5xz2RbczONzEl-32" value="Raw Format" style="verticalLabelPosition=bottom;html=1;verticalAlign=top;align=center;strokeColor=none;fillColor=#00BEF2;shape=mxgraph.azure.storage_blob;rounded=0;dashed=1;labelBackgroundColor=none;fontSize=14;sketch=0;fontFamily=Helvetica;" parent="rQPKTti5xz2RbczONzEl-1" vertex="1">
                    <mxGeometry x="57.94" y="652.5" width="50" height="45" as="geometry"/>
                </mxCell>
                <mxCell id="rQPKTti5xz2RbczONzEl-35" value="Bronze Tables&#10;(Ingestion)" style="shape=image;verticalLabelPosition=bottom;verticalAlign=top;imageAspect=0;aspect=fixed;image=data:image/png,iVBORw0KGgoAAAANSUhEUgAAAK4AAACbCAYAAAD7u6DwAAATv0lEQVR4Xu1dfbBdVXX/rfPu5UGg1GRGOiOtMtX3wrv3igSKCMTWyICQSpJ7MAoZaTp+TQmjIVOKYqTaGqdOxSGEIdgxMBgcAiXcly+JkiFgDVFAooF378tLdMTpaKdxGtK0Ppq8d8/q7HOSl6/3cc4+e6/zcU/+gnl7rb33Wr+z7957/fZahOKfeQswE/qH5oC8K+HxmyBnM9y+veY76lyN1LlTtzTzzb+dhpE3NoD5muM9kAeHvox6ZYWlXjtObQFc0y5vDHwHjL8aV61Dt6Be/a7pLjtRXwFck15vDM0Gj/xoQpVE+3HmGT2Y23PIZLedqKsArimvM3ehf3AX2LtoUpUOVqJeW2aq207VUwDXlOf7W7fC81ZPqY4wCnRVi8PalJaatEEB3Hj2C6S/PzADw7QPzDNCqSPaCrc6N1TbotG4FiiAawIY/QMPwMOSSKqIFsCtbowkUzQes0AB3LhgaLRqYN4NsBNJFdE+9HINtdqRSHJFY98CBXDjAqHReg7sfUBLjePcXdztalmuAK6e2Y5KNVo3gb112joIwyiXe3HDzN9o6+hQwWLF1XW8HyE7sBeM83VVBL95zjq4lUWxdHSgcAFcXac3mivAvFxX/CQ5Kr8f7swdRnR1iJICuDqO7h+8AJ63B+BuHfHTZAivoF69HERtI/o6QEkBXB0nN5obwTxPR3RCGcdZgnrlQaM6c6ysAG5U5zb2fBA8+mxUsSnbKx7DNO7DdbUDU7YtGhS3CpEw4PMRWq+BuS+SXNjGDlajXrstbPNOblesuFG832h+Dsz3RRGJ1NbnMTiz4FYGIsl1YOMCuGGd3vjFecDhwdB8hLB6T21HzvNwK3N0xTtFrgBuWE83Br4NxqfCNo/VjuijcKtPxtKRc+ECuGEcvKl1CUb45ch8hDC6x2tD9Dp6eWbBY5jYgAVww4DrqdYLgHdlmKbG2hB9DW71S8b05UxRAdypHNrf/Dg8fnSqZub/TsNwnCrqfa+b1519jQVwJ/OhKT6CLk6I1sOtLtQVz7NcAdzJvNsY+Gcw/i5RAFDpargXbk90DCnsvADuRE5pDPaCvVeN8RF0nU/Oq6j3XVLwGE42YAHcCYHbfBrM1+vizagc0VK41VVGdWZcWQHc8RzY37weHj+dGt8SHcA07il4DMc9UgD3VHQODJyBvfRza3wE3a+BsAZu7dO64nmTK4B7qkefav4twPekz9HkoUyXYV5lV/rGJj+iArgn2jzgI6j8COfKuyJEjwWPYcxIBXBPAu4kCetC4EqkSZE4zzdzAdxjaOsfei+80R+L8RF0UU74DcozenHD24Z1VeRBrgCu8qKfiLn5MhiXZsKphG/Ard2ZibFaGmQBXGXYRvMTYH7Iko0tqKXDcJwLO5nHUAD36X3n4v+OqAPZeRYQZk8l0Sa41fn2Oki35gK4/QP3wsPt6XbTBKPrYB5DZwNX8RHQboJRyiZwaRD1yrs7kcfQ4cBNER9B+8uhO3Bj9Zva4hkV7FzgNprzwbwho347PmyiQ0B3D9x37c/8XCJMoDOBG/ARBsDcE8FW6W1KWAu3tji9AzQ/ss4EbmPgC2D8k3lzJqVR1VErXYH6zJeSGoF0v50H3M1D52NkRKUHnSZtbLv9OTvh9s0GEdvtJx3aOw+4jdZjYO9m++anwyBsBnC2GCGd6JNwqw/bn1vyPXQWcKcqoGfMH+SBuq4ZeysmRZXsoAKAnQNcP2Fd80URPsKppG9JLkSH8Bg6B7hhC+jFXXUnup4SY5+pLYpzUd4LAHYGcIMCeiphnX0+wmQPGycrUB33gzlRvgMKAHYGcHUK6OkAiaYIwUq+sMh5AcD8A1cV0IP3MxE+QhjSi9xBLdcFADsBuPoF9KKsumHTJUlG7Qh3wa19Pco0stI238BtNBeC+V/tOyMisVsqb4M6KJZLlTwWAMwvcIOVbQjMF1gHrk5K0IYQMy2nBQDzC9z+5pfh8Vfsg1bz8aJYbrJ88hjyCdyggF4TYPt8BHJuhlt5XOsDkcoGGRQAvCxPPIZ8ArfRfBLMH9ECUyQhZydurFwVSeTExv57t8Ot2PWAwwwgZzyG/AHXVgG908BhKCWSVMbznPEY8gVcn48wuAvsXRRmEYrVxlQSOsVjaAzuEKkx4WAl6rVlseadEuF8Add2Ab1jTjOd9lOKx5CjAoD5AW7AR1D5EWZYXxRsJFqWqqNGtA1u9VrrNrLcQX6AK+d4O0/CZXkMmS8AmA/gShbQC8NH0F1t5HgMmS8AmA/gNlrp4iPoAlcyG7rj3I16ZYXuUJOWyz5wG62bwN46+4aMyEfQHZAYjwHDKJd7s8pjyDZwJQvoOfQV1Kv/oIvHSHKN5kYwz4sko9M4LKNNR7dlmWwDt9FcAebllm2k0l/LJlMW4zGo1N7l98OducO6DQ13kF3gBnyEPSIF9IjkT+FiH2U2CwBmF7hiP6fO83ArcwwvGFOrE90GOUtQrzw49aDS0yKbwM0aH0HX33I8hswVAMwecH0+Qus1kQJ6DlajXrtNF3dG5J5qvSDEY0h+rhEMlj3gyl3Sp2MVEguuqOw79B64lYEI+EmsabaAKxkWdVK07xMLZye0n9eAf8aAO/BtMD6lMc9oIpSyk3bwwaqEJgIEohgvOqJZOVbr7ABXivqnzGmTj6DrLjnK5usoT6+mvQBgNoArSbZOazRJ8lCq82pZ94PUlMsGcKWuhUDDcJxqagvfyV0Dpr4AYPqBK3oRL8hH0FxpIPUQNK2/PEftln7gij3hpkzs7SAa6i5dPZacWvdDsySXbuCKkk0S4CPoOlWMx5DeAoApB65YmqJk+Ai6wJXcPtl4X6c77xPk0gtcKUI1shUxGvOdFIHe9ItmA6D1bywN6TGrRjIVZxr4CLrWE3uyhDVwa5/WHaYNuXQCV6qAXkpXk9COluQxlOkyzKvsCj02yw3TB1y/gN5oC8znWp47kCY+gu5kpcoEIGaeNN35TSCXPuCKFfhIGR9B17GSiVAcugX16nd1h2pSLl3AleQjZPx59kkgEOMxCL+9mwTp6QGuZBE7/1hKB0BYBS49i96Rl1CrHTG5Iojqkk329w24tTtF5zdOZ+kBbqP5CTA/lIhBCMMAvQDwdlB5Oxb0vpy5JMiSPIYUFABMB3D9BMdHVMI6+wX0wnwZ6jk68BhKzuNpOklPOXQ5HsMmuNX5U47HYoN0ALd/4F54uN3iPPVVq6J7hCdQKq1JfdYXyRICDs1FvbpV37DxJJMHrmQBvTi2CnLLPgnqWon6zJfiqLIqK1a0hQbRyxcndTZIAXCbz4D5GqvONK2cnOcBXgm3utG06tj6fB7DG02RMlmgO3Bj9Zuxx6yhIFngNprzwbxBY9wpEXF2gro+n7oURlKFCSeqFC/gneSAK1lAz7YhiTYBtDxVT7vleAxr4dYW2zbxqfqTA25/60vwvK9KT9hef6oQHq9CacbyVDw0VGcH5t0AO/bm7F+Ie3BKV0jv+5MBrs9HGNkLhv0Cena9drp2otdBWJLkiXtsUFI8hgQKACYD3EbrMbB3szSmRPsjrMWZ3Z/F3J5Dov2e2Jkkj0G4AKA8cBtDs8EjP0rMmZId+6tv6WPSP6MnTbG/dSs8b7X1aQsXAJQFrmRM3bqnwnZAh0G4E251VVgJo+0kbU4Q4zHIAlfq6zfqeUPK1HPv8vTFiRzcpH7l/CBNVxVu315DVptQjRxwJfdbx6arGGDgXwH0K4APgnAEjN8DdATg/wXTCBwaBvNhAOeA6Fywpwjs0wF6B4ALwHi7sazn6hBTLs9PJHQsx2PYCrc6Nz/AtXXC9cFJr4K8FpiGAPwaJfp3lMq/MHIwUj+1G/b8Cdh7DwgXg3EJgPdpE4IUgafkzBMn70je5BAtsB1VlFlxjd0p0jCIXgK8l30aYrn000RWL7WcqJwP5L0XTHMB/lCkTIp+xKn0l+IRNzkewz70cs0mj0EKuJoF9NTBhn4MwrNA1zNY0PsKiNq2f4Yi6/dX5b2XgkfnAXwdmGZNffGvPkIssr0ynTQXyWgl4S64ta9HtmVIAfvAjRo392mE/ANwaTN6R3fY/GpD2ih6M0UvhLcYjL+elOyiDjNUvkr0uiyqP6LPPpBQ5HyLBQAFgNvaDfYumuR4OArQcwC2gJxNqc2UqONA/znS0BxgVMXyF4FROk2N4BXSWN9iPAZnHdzKIh3TTSUjANymemred/JA/Owx/wbwo5jGG3Bd7cBUA83839XhaHTkDjA+c1KoO5EaalI8BnsFACWAuxCMR/0rJRVJAv8LcObDcN+1P/Ng1JmAuhZ801kC5itBtDmx+mK2bnlOtUnAY7jc9NnEPnDVRNRqw+0/wg19u01PQAc7hQyA4F5d1ZWw/87PQuIVGeBKIsUv9NHuBdp/DMJ0sPeHAGaAcPbRYaggxIgfhGC8AQf/Ce76LeDtR6+3N5OHQV37SkUyFY9hGveZ3BJmF7j+wWdPD+DNBvgKALMA6omXukntvfFLAIMAXgPhBZzFL5o0uC7GrMj5PIbmi2BcakX/iUodrES9tsxUP9kCbvDztgCAeho9O9Klv7bFfDAPAbwFVF6fyZwLk81dlMfgzDL1SiT9wA1qfN0EUB3Mfz71xb42QsMJqpAtYSO49BTqM3+Yiz27FD9aPTI1VNA7vcBVKwHa6vTtGiO5hINm+FZq70a8Huw8aGolCd+5wZayPIaPwq0+GXf06QJuEJL8OEBLJw1axJ21DXmibSDciwWV72cufZOyh9QbQHUl2ssz4x6C0wHcoPicii7dLZMPwAZyj+r0Q9Z0P0pv+U4i3FvdqUnyGJz4ZbmSBa5/MzD4MYD/Ecw9ujZPpZzaRgBfQy9/K+7qIjY/sTwX8QshJgdcRQtE+zGRqxgxz4/TkR8tpLvgVh5Pchih+24IZRaKWQAwGeCqi2/27snl8/QJEeLshNO1TJQJFhqtJzSUzOUWo9i3LHCDq61HwHy9jk2zL+OTi54A0RdTzYKTyp5J+uUM5ICr0uTzSAOM87MPwLgzUAR5XoUzu1cYeV4UdzinykvmK9bkMcgA169+jjWpvY817fiw+o6l8z+L709dWFmOx3AA07gn6vztAtd/0tK8J7VJm8MCzHY7/w0a7ge6V6WG7qnC67+n34lEKjWKJNoDrn8v6DyS+1RLRkHtbyGeAJUfSPwQp/w3RG+KANcvS+v0RcnHYAe4QXLh9Z17CDOAZkXABq0Fuh9PZBWWqhV8zFQUreyqeeCqjf2bI1sB70oD7itU+NlhaBuA9UD3FusgPh4UekCGfTcWcTyEemVGWNKSWeCqlfbIwW0FaG19b+QB9BMQP+dzhbn7FSNADq4p/wLgawGaJ/IqYjwTOeXLw26RzAHX3x4c/B7Y+4AttxV6x43MqdCySuD8cxC96r/mKHkH0aYDOKt9CB+q/je2/Ec3RobPAUbeAjjngUYvAPBOMM30SfjM6v+T/xeh5KoZ4AYEjQ3ie1r/NM77AMULoIMg742j/90Ge6PHPUHngHg6GOcA9NajOcH+tLieSx6rJ42AaGnYrJZmgGu7cLRfMI9aIN4X5AfrGkCZhmKlXzqWEwxeHxhXgWkOwJcWYE4QzBGSQ8cHrnEepx8WHQB5O8D0PKbxs1Evp7VN7293Dr0PGL0OoIWp+QnVnlDGBCMU/YsHXFNXJkHaped8oKL7h0YOHHF95p+u914FGrkZTB9J7MASdx6ZkScPZ/Nbwy5S+sANMjC+CLBeARJFsIC3DuhqRLl4TsQPAdH9wwBuA+NqmUv5RGaaXKcR36PpATd4bfuTyORv/1Jd3UdmAKwTudBPL9q+FUyq2rtKAl38M2GBiDl19YDbaG4E87xQ4w0OVo8AztrUr6yhJnS0kdoPjx5cDOY7i71wFMONe6W3DW712ihaogO30fwcmO+bvBM/F8EWEL6FBZVnwkZDogw8NW2D4iALAU8ltLOfWCM1Ezc0ELWwlcuXR70higbcYF/70wmvjIKaCw+BulanmihtyOanqWns+SDQ/kLmimrbssdUev13eXS1ztP+8MCdrOwQ0T4Q3Zu5l61TGVb37z5pfnQ5GB8uDnITGFEdzonm6y5w4YE73n2tfzPAK1CvNHK9HdAFsP9+C18Es3rJbLmmru4gE5BTTLDyjKVxnu+HA67KdHJk9JdjW4SAcvdV0foFCdjXWJcqtT63l4Pplo6OzPlbSfyNXCYb3/DebsBPzPz3BWA1IR2kOloKptu07781u05czC9QWLo96iFsonGHW3GVtCLS1GpHEjdAHgbgZyWnz4Khbmhm5GFKE8/B2Qnq+rzp0ljhgZtv6yYzu+N3wcsiB3OSGXGEXlUeCXX+qW6NIBS6aQHc0Kay2HAspEy3Z5vP7N/fN4DSfaZX2FOtXwDXIh61VG9qXYJRT4WUF2VmH3wsOkrOGt3rrai2KoAb1WJS7YMHpzcBvCSVETlVgA/0NAgPJxEdLYArBcQ4/ahVuO3dAqYFifIigoLfPwD4CZSnb4tzDxvHHEq2AG5cC0rLq6AG8Y1gviFczeAYAwwSlSjq6nZQeXuaaikXwI3h18RF/Rxf7T8Dt2eBSD07uhjgd0TPgukXxP41gH0ADwHOLoB2oX6hCuVz4vMcZwAFcNPolbhj8gE98nb/RS/afwDgDIC6QBzUEmb8D1D6L6B9EDhjP+rv/F1aATqRKQrgxgVJIZ+IBQrgJmL2otO4FiiAG9eChXwiFiiAm4jZi07jWqAAblwLFvKJWOD/AaYkDRT9LoA5AAAAAElFTkSuQmCC;fontSize=14;sketch=0;fontColor=#C27005;fontFamily=Helvetica;" parent="rQPKTti5xz2RbczONzEl-1" vertex="1">
                    <mxGeometry x="235.04" y="652.5" width="55.8" height="50" as="geometry"/>
                </mxCell>
                <mxCell id="rQPKTti5xz2RbczONzEl-40" value="Silver Tables&#10;(Refined)" style="shape=image;verticalLabelPosition=bottom;verticalAlign=top;imageAspect=0;aspect=fixed;image=data:image/png,iVBORw0KGgoAAAANSUhEUgAAAK4AAACbCAYAAAD7u6DwAAATv0lEQVR4Xu1dfbBdVXX/rfPu5UGg1GRGOiOtMtX3wrv3igSKCMTWyICQSpJ7MAoZaTp+TQmjIVOKYqTaGqdOxSGEIdgxMBgcAiXcly+JkiFgDVFAooF378tLdMTpaKdxGtK0Ppq8d8/q7HOSl6/3cc4+e6/zcU/+gnl7rb33Wr+z7957/fZahOKfeQswE/qH5oC8K+HxmyBnM9y+veY76lyN1LlTtzTzzb+dhpE3NoD5muM9kAeHvox6ZYWlXjtObQFc0y5vDHwHjL8aV61Dt6Be/a7pLjtRXwFck15vDM0Gj/xoQpVE+3HmGT2Y23PIZLedqKsArimvM3ehf3AX2LtoUpUOVqJeW2aq207VUwDXlOf7W7fC81ZPqY4wCnRVi8PalJaatEEB3Hj2C6S/PzADw7QPzDNCqSPaCrc6N1TbotG4FiiAawIY/QMPwMOSSKqIFsCtbowkUzQes0AB3LhgaLRqYN4NsBNJFdE+9HINtdqRSHJFY98CBXDjAqHReg7sfUBLjePcXdztalmuAK6e2Y5KNVo3gb112joIwyiXe3HDzN9o6+hQwWLF1XW8HyE7sBeM83VVBL95zjq4lUWxdHSgcAFcXac3mivAvFxX/CQ5Kr8f7swdRnR1iJICuDqO7h+8AJ63B+BuHfHTZAivoF69HERtI/o6QEkBXB0nN5obwTxPR3RCGcdZgnrlQaM6c6ysAG5U5zb2fBA8+mxUsSnbKx7DNO7DdbUDU7YtGhS3CpEw4PMRWq+BuS+SXNjGDlajXrstbPNOblesuFG832h+Dsz3RRGJ1NbnMTiz4FYGIsl1YOMCuGGd3vjFecDhwdB8hLB6T21HzvNwK3N0xTtFrgBuWE83Br4NxqfCNo/VjuijcKtPxtKRc+ECuGEcvKl1CUb45ch8hDC6x2tD9Dp6eWbBY5jYgAVww4DrqdYLgHdlmKbG2hB9DW71S8b05UxRAdypHNrf/Dg8fnSqZub/TsNwnCrqfa+b1519jQVwJ/OhKT6CLk6I1sOtLtQVz7NcAdzJvNsY+Gcw/i5RAFDpargXbk90DCnsvADuRE5pDPaCvVeN8RF0nU/Oq6j3XVLwGE42YAHcCYHbfBrM1+vizagc0VK41VVGdWZcWQHc8RzY37weHj+dGt8SHcA07il4DMc9UgD3VHQODJyBvfRza3wE3a+BsAZu7dO64nmTK4B7qkefav4twPekz9HkoUyXYV5lV/rGJj+iArgn2jzgI6j8COfKuyJEjwWPYcxIBXBPAu4kCetC4EqkSZE4zzdzAdxjaOsfei+80R+L8RF0UU74DcozenHD24Z1VeRBrgCu8qKfiLn5MhiXZsKphG/Ard2ZibFaGmQBXGXYRvMTYH7Iko0tqKXDcJwLO5nHUAD36X3n4v+OqAPZeRYQZk8l0Sa41fn2Oki35gK4/QP3wsPt6XbTBKPrYB5DZwNX8RHQboJRyiZwaRD1yrs7kcfQ4cBNER9B+8uhO3Bj9Zva4hkV7FzgNprzwbwho347PmyiQ0B3D9x37c/8XCJMoDOBG/ARBsDcE8FW6W1KWAu3tji9AzQ/ss4EbmPgC2D8k3lzJqVR1VErXYH6zJeSGoF0v50H3M1D52NkRKUHnSZtbLv9OTvh9s0GEdvtJx3aOw+4jdZjYO9m++anwyBsBnC2GCGd6JNwqw/bn1vyPXQWcKcqoGfMH+SBuq4ZeysmRZXsoAKAnQNcP2Fd80URPsKppG9JLkSH8Bg6B7hhC+jFXXUnup4SY5+pLYpzUd4LAHYGcIMCeiphnX0+wmQPGycrUB33gzlRvgMKAHYGcHUK6OkAiaYIwUq+sMh5AcD8A1cV0IP3MxE+QhjSi9xBLdcFADsBuPoF9KKsumHTJUlG7Qh3wa19Pco0stI238BtNBeC+V/tOyMisVsqb4M6KJZLlTwWAMwvcIOVbQjMF1gHrk5K0IYQMy2nBQDzC9z+5pfh8Vfsg1bz8aJYbrJ88hjyCdyggF4TYPt8BHJuhlt5XOsDkcoGGRQAvCxPPIZ8ArfRfBLMH9ECUyQhZydurFwVSeTExv57t8Ot2PWAwwwgZzyG/AHXVgG908BhKCWSVMbznPEY8gVcn48wuAvsXRRmEYrVxlQSOsVjaAzuEKkx4WAl6rVlseadEuF8Add2Ab1jTjOd9lOKx5CjAoD5AW7AR1D5EWZYXxRsJFqWqqNGtA1u9VrrNrLcQX6AK+d4O0/CZXkMmS8AmA/gShbQC8NH0F1t5HgMmS8AmA/gNlrp4iPoAlcyG7rj3I16ZYXuUJOWyz5wG62bwN46+4aMyEfQHZAYjwHDKJd7s8pjyDZwJQvoOfQV1Kv/oIvHSHKN5kYwz4sko9M4LKNNR7dlmWwDt9FcAebllm2k0l/LJlMW4zGo1N7l98OducO6DQ13kF3gBnyEPSIF9IjkT+FiH2U2CwBmF7hiP6fO83ArcwwvGFOrE90GOUtQrzw49aDS0yKbwM0aH0HX33I8hswVAMwecH0+Qus1kQJ6DlajXrtNF3dG5J5qvSDEY0h+rhEMlj3gyl3Sp2MVEguuqOw79B64lYEI+EmsabaAKxkWdVK07xMLZye0n9eAf8aAO/BtMD6lMc9oIpSyk3bwwaqEJgIEohgvOqJZOVbr7ABXivqnzGmTj6DrLjnK5usoT6+mvQBgNoArSbZOazRJ8lCq82pZ94PUlMsGcKWuhUDDcJxqagvfyV0Dpr4AYPqBK3oRL8hH0FxpIPUQNK2/PEftln7gij3hpkzs7SAa6i5dPZacWvdDsySXbuCKkk0S4CPoOlWMx5DeAoApB65YmqJk+Ai6wJXcPtl4X6c77xPk0gtcKUI1shUxGvOdFIHe9ItmA6D1bywN6TGrRjIVZxr4CLrWE3uyhDVwa5/WHaYNuXQCV6qAXkpXk9COluQxlOkyzKvsCj02yw3TB1y/gN5oC8znWp47kCY+gu5kpcoEIGaeNN35TSCXPuCKFfhIGR9B17GSiVAcugX16nd1h2pSLl3AleQjZPx59kkgEOMxCL+9mwTp6QGuZBE7/1hKB0BYBS49i96Rl1CrHTG5Iojqkk329w24tTtF5zdOZ+kBbqP5CTA/lIhBCMMAvQDwdlB5Oxb0vpy5JMiSPIYUFABMB3D9BMdHVMI6+wX0wnwZ6jk68BhKzuNpOklPOXQ5HsMmuNX5U47HYoN0ALd/4F54uN3iPPVVq6J7hCdQKq1JfdYXyRICDs1FvbpV37DxJJMHrmQBvTi2CnLLPgnqWon6zJfiqLIqK1a0hQbRyxcndTZIAXCbz4D5GqvONK2cnOcBXgm3utG06tj6fB7DG02RMlmgO3Bj9Zuxx6yhIFngNprzwbxBY9wpEXF2gro+n7oURlKFCSeqFC/gneSAK1lAz7YhiTYBtDxVT7vleAxr4dYW2zbxqfqTA25/60vwvK9KT9hef6oQHq9CacbyVDw0VGcH5t0AO/bm7F+Ie3BKV0jv+5MBrs9HGNkLhv0Cena9drp2otdBWJLkiXtsUFI8hgQKACYD3EbrMbB3szSmRPsjrMWZ3Z/F3J5Dov2e2Jkkj0G4AKA8cBtDs8EjP0rMmZId+6tv6WPSP6MnTbG/dSs8b7X1aQsXAJQFrmRM3bqnwnZAh0G4E251VVgJo+0kbU4Q4zHIAlfq6zfqeUPK1HPv8vTFiRzcpH7l/CBNVxVu315DVptQjRxwJfdbx6arGGDgXwH0K4APgnAEjN8DdATg/wXTCBwaBvNhAOeA6Fywpwjs0wF6B4ALwHi7sazn6hBTLs9PJHQsx2PYCrc6Nz/AtXXC9cFJr4K8FpiGAPwaJfp3lMq/MHIwUj+1G/b8Cdh7DwgXg3EJgPdpE4IUgafkzBMn70je5BAtsB1VlFlxjd0p0jCIXgK8l30aYrn000RWL7WcqJwP5L0XTHMB/lCkTIp+xKn0l+IRNzkewz70cs0mj0EKuJoF9NTBhn4MwrNA1zNY0PsKiNq2f4Yi6/dX5b2XgkfnAXwdmGZNffGvPkIssr0ynTQXyWgl4S64ta9HtmVIAfvAjRo392mE/ANwaTN6R3fY/GpD2ih6M0UvhLcYjL+elOyiDjNUvkr0uiyqP6LPPpBQ5HyLBQAFgNvaDfYumuR4OArQcwC2gJxNqc2UqONA/znS0BxgVMXyF4FROk2N4BXSWN9iPAZnHdzKIh3TTSUjANymemred/JA/Owx/wbwo5jGG3Bd7cBUA83839XhaHTkDjA+c1KoO5EaalI8BnsFACWAuxCMR/0rJRVJAv8LcObDcN+1P/Ng1JmAuhZ801kC5itBtDmx+mK2bnlOtUnAY7jc9NnEPnDVRNRqw+0/wg19u01PQAc7hQyA4F5d1ZWw/87PQuIVGeBKIsUv9NHuBdp/DMJ0sPeHAGaAcPbRYaggxIgfhGC8AQf/Ce76LeDtR6+3N5OHQV37SkUyFY9hGveZ3BJmF7j+wWdPD+DNBvgKALMA6omXukntvfFLAIMAXgPhBZzFL5o0uC7GrMj5PIbmi2BcakX/iUodrES9tsxUP9kCbvDztgCAeho9O9Klv7bFfDAPAbwFVF6fyZwLk81dlMfgzDL1SiT9wA1qfN0EUB3Mfz71xb42QsMJqpAtYSO49BTqM3+Yiz27FD9aPTI1VNA7vcBVKwHa6vTtGiO5hINm+FZq70a8Huw8aGolCd+5wZayPIaPwq0+GXf06QJuEJL8OEBLJw1axJ21DXmibSDciwWV72cufZOyh9QbQHUl2ssz4x6C0wHcoPicii7dLZMPwAZyj+r0Q9Z0P0pv+U4i3FvdqUnyGJz4ZbmSBa5/MzD4MYD/Ecw9ujZPpZzaRgBfQy9/K+7qIjY/sTwX8QshJgdcRQtE+zGRqxgxz4/TkR8tpLvgVh5Pchih+24IZRaKWQAwGeCqi2/27snl8/QJEeLshNO1TJQJFhqtJzSUzOUWo9i3LHCDq61HwHy9jk2zL+OTi54A0RdTzYKTyp5J+uUM5ICr0uTzSAOM87MPwLgzUAR5XoUzu1cYeV4UdzinykvmK9bkMcgA169+jjWpvY817fiw+o6l8z+L709dWFmOx3AA07gn6vztAtd/0tK8J7VJm8MCzHY7/w0a7ge6V6WG7qnC67+n34lEKjWKJNoDrn8v6DyS+1RLRkHtbyGeAJUfSPwQp/w3RG+KANcvS+v0RcnHYAe4QXLh9Z17CDOAZkXABq0Fuh9PZBWWqhV8zFQUreyqeeCqjf2bI1sB70oD7itU+NlhaBuA9UD3FusgPh4UekCGfTcWcTyEemVGWNKSWeCqlfbIwW0FaG19b+QB9BMQP+dzhbn7FSNADq4p/wLgawGaJ/IqYjwTOeXLw26RzAHX3x4c/B7Y+4AttxV6x43MqdCySuD8cxC96r/mKHkH0aYDOKt9CB+q/je2/Ec3RobPAUbeAjjngUYvAPBOMM30SfjM6v+T/xeh5KoZ4AYEjQ3ie1r/NM77AMULoIMg742j/90Ge6PHPUHngHg6GOcA9NajOcH+tLieSx6rJ42AaGnYrJZmgGu7cLRfMI9aIN4X5AfrGkCZhmKlXzqWEwxeHxhXgWkOwJcWYE4QzBGSQ8cHrnEepx8WHQB5O8D0PKbxs1Evp7VN7293Dr0PGL0OoIWp+QnVnlDGBCMU/YsHXFNXJkHaped8oKL7h0YOHHF95p+u914FGrkZTB9J7MASdx6ZkScPZ/Nbwy5S+sANMjC+CLBeARJFsIC3DuhqRLl4TsQPAdH9wwBuA+NqmUv5RGaaXKcR36PpATd4bfuTyORv/1Jd3UdmAKwTudBPL9q+FUyq2rtKAl38M2GBiDl19YDbaG4E87xQ4w0OVo8AztrUr6yhJnS0kdoPjx5cDOY7i71wFMONe6W3DW712ihaogO30fwcmO+bvBM/F8EWEL6FBZVnwkZDogw8NW2D4iALAU8ltLOfWCM1Ezc0ELWwlcuXR70higbcYF/70wmvjIKaCw+BulanmihtyOanqWns+SDQ/kLmimrbssdUev13eXS1ztP+8MCdrOwQ0T4Q3Zu5l61TGVb37z5pfnQ5GB8uDnITGFEdzonm6y5w4YE73n2tfzPAK1CvNHK9HdAFsP9+C18Es3rJbLmmru4gE5BTTLDyjKVxnu+HA67KdHJk9JdjW4SAcvdV0foFCdjXWJcqtT63l4Pplo6OzPlbSfyNXCYb3/DebsBPzPz3BWA1IR2kOloKptu07781u05czC9QWLo96iFsonGHW3GVtCLS1GpHEjdAHgbgZyWnz4Khbmhm5GFKE8/B2Qnq+rzp0ljhgZtv6yYzu+N3wcsiB3OSGXGEXlUeCXX+qW6NIBS6aQHc0Kay2HAspEy3Z5vP7N/fN4DSfaZX2FOtXwDXIh61VG9qXYJRT4WUF2VmH3wsOkrOGt3rrai2KoAb1WJS7YMHpzcBvCSVETlVgA/0NAgPJxEdLYArBcQ4/ahVuO3dAqYFifIigoLfPwD4CZSnb4tzDxvHHEq2AG5cC0rLq6AG8Y1gviFczeAYAwwSlSjq6nZQeXuaaikXwI3h18RF/Rxf7T8Dt2eBSD07uhjgd0TPgukXxP41gH0ADwHOLoB2oX6hCuVz4vMcZwAFcNPolbhj8gE98nb/RS/afwDgDIC6QBzUEmb8D1D6L6B9EDhjP+rv/F1aATqRKQrgxgVJIZ+IBQrgJmL2otO4FiiAG9eChXwiFiiAm4jZi07jWqAAblwLFvKJWOD/AaYkDRT9LoA5AAAAAElFTkSuQmCC;fontSize=14;sketch=0;fontColor=#858585;fontFamily=Helvetica;" parent="rQPKTti5xz2RbczONzEl-1" vertex="1">
                    <mxGeometry x="415.04" y="655" width="55.8" height="50" as="geometry"/>
                </mxCell>
                <mxCell id="rQPKTti5xz2RbczONzEl-41" value="Gold Tables&#10;(Feature/Aggregated&#10;Data Store)" style="shape=image;verticalLabelPosition=bottom;verticalAlign=top;imageAspect=0;aspect=fixed;image=data:image/png,iVBORw0KGgoAAAANSUhEUgAAAK4AAACbCAYAAAD7u6DwAAATv0lEQVR4Xu1dfbBdVXX/rfPu5UGg1GRGOiOtMtX3wrv3igSKCMTWyICQSpJ7MAoZaTp+TQmjIVOKYqTaGqdOxSGEIdgxMBgcAiXcly+JkiFgDVFAooF378tLdMTpaKdxGtK0Ppq8d8/q7HOSl6/3cc4+e6/zcU/+gnl7rb33Wr+z7957/fZahOKfeQswE/qH5oC8K+HxmyBnM9y+veY76lyN1LlTtzTzzb+dhpE3NoD5muM9kAeHvox6ZYWlXjtObQFc0y5vDHwHjL8aV61Dt6Be/a7pLjtRXwFck15vDM0Gj/xoQpVE+3HmGT2Y23PIZLedqKsArimvM3ehf3AX2LtoUpUOVqJeW2aq207VUwDXlOf7W7fC81ZPqY4wCnRVi8PalJaatEEB3Hj2C6S/PzADw7QPzDNCqSPaCrc6N1TbotG4FiiAawIY/QMPwMOSSKqIFsCtbowkUzQes0AB3LhgaLRqYN4NsBNJFdE+9HINtdqRSHJFY98CBXDjAqHReg7sfUBLjePcXdztalmuAK6e2Y5KNVo3gb112joIwyiXe3HDzN9o6+hQwWLF1XW8HyE7sBeM83VVBL95zjq4lUWxdHSgcAFcXac3mivAvFxX/CQ5Kr8f7swdRnR1iJICuDqO7h+8AJ63B+BuHfHTZAivoF69HERtI/o6QEkBXB0nN5obwTxPR3RCGcdZgnrlQaM6c6ysAG5U5zb2fBA8+mxUsSnbKx7DNO7DdbUDU7YtGhS3CpEw4PMRWq+BuS+SXNjGDlajXrstbPNOblesuFG832h+Dsz3RRGJ1NbnMTiz4FYGIsl1YOMCuGGd3vjFecDhwdB8hLB6T21HzvNwK3N0xTtFrgBuWE83Br4NxqfCNo/VjuijcKtPxtKRc+ECuGEcvKl1CUb45ch8hDC6x2tD9Dp6eWbBY5jYgAVww4DrqdYLgHdlmKbG2hB9DW71S8b05UxRAdypHNrf/Dg8fnSqZub/TsNwnCrqfa+b1519jQVwJ/OhKT6CLk6I1sOtLtQVz7NcAdzJvNsY+Gcw/i5RAFDpargXbk90DCnsvADuRE5pDPaCvVeN8RF0nU/Oq6j3XVLwGE42YAHcCYHbfBrM1+vizagc0VK41VVGdWZcWQHc8RzY37weHj+dGt8SHcA07il4DMc9UgD3VHQODJyBvfRza3wE3a+BsAZu7dO64nmTK4B7qkefav4twPekz9HkoUyXYV5lV/rGJj+iArgn2jzgI6j8COfKuyJEjwWPYcxIBXBPAu4kCetC4EqkSZE4zzdzAdxjaOsfei+80R+L8RF0UU74DcozenHD24Z1VeRBrgCu8qKfiLn5MhiXZsKphG/Ard2ZibFaGmQBXGXYRvMTYH7Iko0tqKXDcJwLO5nHUAD36X3n4v+OqAPZeRYQZk8l0Sa41fn2Oki35gK4/QP3wsPt6XbTBKPrYB5DZwNX8RHQboJRyiZwaRD1yrs7kcfQ4cBNER9B+8uhO3Bj9Zva4hkV7FzgNprzwbwho347PmyiQ0B3D9x37c/8XCJMoDOBG/ARBsDcE8FW6W1KWAu3tji9AzQ/ss4EbmPgC2D8k3lzJqVR1VErXYH6zJeSGoF0v50H3M1D52NkRKUHnSZtbLv9OTvh9s0GEdvtJx3aOw+4jdZjYO9m++anwyBsBnC2GCGd6JNwqw/bn1vyPXQWcKcqoGfMH+SBuq4ZeysmRZXsoAKAnQNcP2Fd80URPsKppG9JLkSH8Bg6B7hhC+jFXXUnup4SY5+pLYpzUd4LAHYGcIMCeiphnX0+wmQPGycrUB33gzlRvgMKAHYGcHUK6OkAiaYIwUq+sMh5AcD8A1cV0IP3MxE+QhjSi9xBLdcFADsBuPoF9KKsumHTJUlG7Qh3wa19Pco0stI238BtNBeC+V/tOyMisVsqb4M6KJZLlTwWAMwvcIOVbQjMF1gHrk5K0IYQMy2nBQDzC9z+5pfh8Vfsg1bz8aJYbrJ88hjyCdyggF4TYPt8BHJuhlt5XOsDkcoGGRQAvCxPPIZ8ArfRfBLMH9ECUyQhZydurFwVSeTExv57t8Ot2PWAwwwgZzyG/AHXVgG908BhKCWSVMbznPEY8gVcn48wuAvsXRRmEYrVxlQSOsVjaAzuEKkx4WAl6rVlseadEuF8Add2Ab1jTjOd9lOKx5CjAoD5AW7AR1D5EWZYXxRsJFqWqqNGtA1u9VrrNrLcQX6AK+d4O0/CZXkMmS8AmA/gShbQC8NH0F1t5HgMmS8AmA/gNlrp4iPoAlcyG7rj3I16ZYXuUJOWyz5wG62bwN46+4aMyEfQHZAYjwHDKJd7s8pjyDZwJQvoOfQV1Kv/oIvHSHKN5kYwz4sko9M4LKNNR7dlmWwDt9FcAebllm2k0l/LJlMW4zGo1N7l98OducO6DQ13kF3gBnyEPSIF9IjkT+FiH2U2CwBmF7hiP6fO83ArcwwvGFOrE90GOUtQrzw49aDS0yKbwM0aH0HX33I8hswVAMwecH0+Qus1kQJ6DlajXrtNF3dG5J5qvSDEY0h+rhEMlj3gyl3Sp2MVEguuqOw79B64lYEI+EmsabaAKxkWdVK07xMLZye0n9eAf8aAO/BtMD6lMc9oIpSyk3bwwaqEJgIEohgvOqJZOVbr7ABXivqnzGmTj6DrLjnK5usoT6+mvQBgNoArSbZOazRJ8lCq82pZ94PUlMsGcKWuhUDDcJxqagvfyV0Dpr4AYPqBK3oRL8hH0FxpIPUQNK2/PEftln7gij3hpkzs7SAa6i5dPZacWvdDsySXbuCKkk0S4CPoOlWMx5DeAoApB65YmqJk+Ai6wJXcPtl4X6c77xPk0gtcKUI1shUxGvOdFIHe9ItmA6D1bywN6TGrRjIVZxr4CLrWE3uyhDVwa5/WHaYNuXQCV6qAXkpXk9COluQxlOkyzKvsCj02yw3TB1y/gN5oC8znWp47kCY+gu5kpcoEIGaeNN35TSCXPuCKFfhIGR9B17GSiVAcugX16nd1h2pSLl3AleQjZPx59kkgEOMxCL+9mwTp6QGuZBE7/1hKB0BYBS49i96Rl1CrHTG5Iojqkk329w24tTtF5zdOZ+kBbqP5CTA/lIhBCMMAvQDwdlB5Oxb0vpy5JMiSPIYUFABMB3D9BMdHVMI6+wX0wnwZ6jk68BhKzuNpOklPOXQ5HsMmuNX5U47HYoN0ALd/4F54uN3iPPVVq6J7hCdQKq1JfdYXyRICDs1FvbpV37DxJJMHrmQBvTi2CnLLPgnqWon6zJfiqLIqK1a0hQbRyxcndTZIAXCbz4D5GqvONK2cnOcBXgm3utG06tj6fB7DG02RMlmgO3Bj9Zuxx6yhIFngNprzwbxBY9wpEXF2gro+n7oURlKFCSeqFC/gneSAK1lAz7YhiTYBtDxVT7vleAxr4dYW2zbxqfqTA25/60vwvK9KT9hef6oQHq9CacbyVDw0VGcH5t0AO/bm7F+Ie3BKV0jv+5MBrs9HGNkLhv0Cena9drp2otdBWJLkiXtsUFI8hgQKACYD3EbrMbB3szSmRPsjrMWZ3Z/F3J5Dov2e2Jkkj0G4AKA8cBtDs8EjP0rMmZId+6tv6WPSP6MnTbG/dSs8b7X1aQsXAJQFrmRM3bqnwnZAh0G4E251VVgJo+0kbU4Q4zHIAlfq6zfqeUPK1HPv8vTFiRzcpH7l/CBNVxVu315DVptQjRxwJfdbx6arGGDgXwH0K4APgnAEjN8DdATg/wXTCBwaBvNhAOeA6Fywpwjs0wF6B4ALwHi7sazn6hBTLs9PJHQsx2PYCrc6Nz/AtXXC9cFJr4K8FpiGAPwaJfp3lMq/MHIwUj+1G/b8Cdh7DwgXg3EJgPdpE4IUgafkzBMn70je5BAtsB1VlFlxjd0p0jCIXgK8l30aYrn000RWL7WcqJwP5L0XTHMB/lCkTIp+xKn0l+IRNzkewz70cs0mj0EKuJoF9NTBhn4MwrNA1zNY0PsKiNq2f4Yi6/dX5b2XgkfnAXwdmGZNffGvPkIssr0ynTQXyWgl4S64ta9HtmVIAfvAjRo392mE/ANwaTN6R3fY/GpD2ih6M0UvhLcYjL+elOyiDjNUvkr0uiyqP6LPPpBQ5HyLBQAFgNvaDfYumuR4OArQcwC2gJxNqc2UqONA/znS0BxgVMXyF4FROk2N4BXSWN9iPAZnHdzKIh3TTSUjANymemred/JA/Owx/wbwo5jGG3Bd7cBUA83839XhaHTkDjA+c1KoO5EaalI8BnsFACWAuxCMR/0rJRVJAv8LcObDcN+1P/Ng1JmAuhZ801kC5itBtDmx+mK2bnlOtUnAY7jc9NnEPnDVRNRqw+0/wg19u01PQAc7hQyA4F5d1ZWw/87PQuIVGeBKIsUv9NHuBdp/DMJ0sPeHAGaAcPbRYaggxIgfhGC8AQf/Ce76LeDtR6+3N5OHQV37SkUyFY9hGveZ3BJmF7j+wWdPD+DNBvgKALMA6omXukntvfFLAIMAXgPhBZzFL5o0uC7GrMj5PIbmi2BcakX/iUodrES9tsxUP9kCbvDztgCAeho9O9Klv7bFfDAPAbwFVF6fyZwLk81dlMfgzDL1SiT9wA1qfN0EUB3Mfz71xb42QsMJqpAtYSO49BTqM3+Yiz27FD9aPTI1VNA7vcBVKwHa6vTtGiO5hINm+FZq70a8Huw8aGolCd+5wZayPIaPwq0+GXf06QJuEJL8OEBLJw1axJ21DXmibSDciwWV72cufZOyh9QbQHUl2ssz4x6C0wHcoPicii7dLZMPwAZyj+r0Q9Z0P0pv+U4i3FvdqUnyGJz4ZbmSBa5/MzD4MYD/Ecw9ujZPpZzaRgBfQy9/K+7qIjY/sTwX8QshJgdcRQtE+zGRqxgxz4/TkR8tpLvgVh5Pchih+24IZRaKWQAwGeCqi2/27snl8/QJEeLshNO1TJQJFhqtJzSUzOUWo9i3LHCDq61HwHy9jk2zL+OTi54A0RdTzYKTyp5J+uUM5ICr0uTzSAOM87MPwLgzUAR5XoUzu1cYeV4UdzinykvmK9bkMcgA169+jjWpvY817fiw+o6l8z+L709dWFmOx3AA07gn6vztAtd/0tK8J7VJm8MCzHY7/w0a7ge6V6WG7qnC67+n34lEKjWKJNoDrn8v6DyS+1RLRkHtbyGeAJUfSPwQp/w3RG+KANcvS+v0RcnHYAe4QXLh9Z17CDOAZkXABq0Fuh9PZBWWqhV8zFQUreyqeeCqjf2bI1sB70oD7itU+NlhaBuA9UD3FusgPh4UekCGfTcWcTyEemVGWNKSWeCqlfbIwW0FaG19b+QB9BMQP+dzhbn7FSNADq4p/wLgawGaJ/IqYjwTOeXLw26RzAHX3x4c/B7Y+4AttxV6x43MqdCySuD8cxC96r/mKHkH0aYDOKt9CB+q/je2/Ec3RobPAUbeAjjngUYvAPBOMM30SfjM6v+T/xeh5KoZ4AYEjQ3ie1r/NM77AMULoIMg742j/90Ge6PHPUHngHg6GOcA9NajOcH+tLieSx6rJ42AaGnYrJZmgGu7cLRfMI9aIN4X5AfrGkCZhmKlXzqWEwxeHxhXgWkOwJcWYE4QzBGSQ8cHrnEepx8WHQB5O8D0PKbxs1Evp7VN7293Dr0PGL0OoIWp+QnVnlDGBCMU/YsHXFNXJkHaped8oKL7h0YOHHF95p+u914FGrkZTB9J7MASdx6ZkScPZ/Nbwy5S+sANMjC+CLBeARJFsIC3DuhqRLl4TsQPAdH9wwBuA+NqmUv5RGaaXKcR36PpATd4bfuTyORv/1Jd3UdmAKwTudBPL9q+FUyq2rtKAl38M2GBiDl19YDbaG4E87xQ4w0OVo8AztrUr6yhJnS0kdoPjx5cDOY7i71wFMONe6W3DW712ihaogO30fwcmO+bvBM/F8EWEL6FBZVnwkZDogw8NW2D4iALAU8ltLOfWCM1Ezc0ELWwlcuXR70higbcYF/70wmvjIKaCw+BulanmihtyOanqWns+SDQ/kLmimrbssdUev13eXS1ztP+8MCdrOwQ0T4Q3Zu5l61TGVb37z5pfnQ5GB8uDnITGFEdzonm6y5w4YE73n2tfzPAK1CvNHK9HdAFsP9+C18Es3rJbLmmru4gE5BTTLDyjKVxnu+HA67KdHJk9JdjW4SAcvdV0foFCdjXWJcqtT63l4Pplo6OzPlbSfyNXCYb3/DebsBPzPz3BWA1IR2kOloKptu07781u05czC9QWLo96iFsonGHW3GVtCLS1GpHEjdAHgbgZyWnz4Khbmhm5GFKE8/B2Qnq+rzp0ljhgZtv6yYzu+N3wcsiB3OSGXGEXlUeCXX+qW6NIBS6aQHc0Kay2HAspEy3Z5vP7N/fN4DSfaZX2FOtXwDXIh61VG9qXYJRT4WUF2VmH3wsOkrOGt3rrai2KoAb1WJS7YMHpzcBvCSVETlVgA/0NAgPJxEdLYArBcQ4/ahVuO3dAqYFifIigoLfPwD4CZSnb4tzDxvHHEq2AG5cC0rLq6AG8Y1gviFczeAYAwwSlSjq6nZQeXuaaikXwI3h18RF/Rxf7T8Dt2eBSD07uhjgd0TPgukXxP41gH0ADwHOLoB2oX6hCuVz4vMcZwAFcNPolbhj8gE98nb/RS/afwDgDIC6QBzUEmb8D1D6L6B9EDhjP+rv/F1aATqRKQrgxgVJIZ+IBQrgJmL2otO4FiiAG9eChXwiFiiAm4jZi07jWqAAblwLFvKJWOD/AaYkDRT9LoA5AAAAAElFTkSuQmCC;fontSize=14;sketch=0;fontColor=#A8A247;fontFamily=Helvetica;" parent="rQPKTti5xz2RbczONzEl-1" vertex="1">
                    <mxGeometry x="595.0399999999998" y="655" width="55.8" height="50" as="geometry"/>
                </mxCell>
                <mxCell id="rQPKTti5xz2RbczONzEl-43" value="" style="rounded=0;whiteSpace=wrap;html=1;labelPosition=center;verticalLabelPosition=middle;align=center;verticalAlign=top;horizontal=1;direction=south;fillColor=#f5f5f5;strokeColor=#666666;fontColor=#333333;fontSize=15;sketch=1;fontFamily=Helvetica;" parent="rQPKTti5xz2RbczONzEl-1" vertex="1">
                    <mxGeometry x="-40" y="160" width="800" height="290" as="geometry"/>
                </mxCell>
                <mxCell id="rQPKTti5xz2RbczONzEl-44" value="Prep" style="rounded=0;whiteSpace=wrap;html=1;align=center;fontSize=18;sketch=0;fontColor=#FFFFFF;fillColor=#13344C;fontFamily=Helvetica;" parent="rQPKTti5xz2RbczONzEl-1" vertex="1">
                    <mxGeometry x="-40" y="160" width="800" height="30" as="geometry"/>
                </mxCell>
                <mxCell id="rQPKTti5xz2RbczONzEl-46" style="edgeStyle=orthogonalEdgeStyle;rounded=0;orthogonalLoop=1;jettySize=auto;html=1;dashed=1;strokeColor=#000000;strokeWidth=1;fontSize=13;startArrow=classic;startFill=1;sketch=0;fontFamily=Helvetica;" parent="rQPKTti5xz2RbczONzEl-1" edge="1">
                    <mxGeometry relative="1" as="geometry">
                        <mxPoint x="262.92" y="375" as="sourcePoint"/>
                        <mxPoint x="262.44" y="615" as="targetPoint"/>
                        <Array as="points">
                            <mxPoint x="262.92" y="435"/>
                            <mxPoint x="262.92" y="435"/>
                        </Array>
                    </mxGeometry>
                </mxCell>
                <mxCell id="rQPKTti5xz2RbczONzEl-53" style="edgeStyle=orthogonalEdgeStyle;rounded=0;orthogonalLoop=1;jettySize=auto;html=1;dashed=1;startArrow=classic;startFill=1;strokeColor=#000000;strokeWidth=1;fontSize=13;sketch=0;fontFamily=Helvetica;" parent="rQPKTti5xz2RbczONzEl-1" edge="1">
                    <mxGeometry relative="1" as="geometry">
                        <mxPoint x="82.44" y="375" as="sourcePoint"/>
                        <mxPoint x="82.44" y="615" as="targetPoint"/>
                    </mxGeometry>
                </mxCell>
                <mxCell id="rQPKTti5xz2RbczONzEl-77" style="edgeStyle=none;rounded=0;sketch=0;orthogonalLoop=1;jettySize=auto;html=1;dashed=1;startArrow=none;startFill=0;strokeColor=#000000;strokeWidth=1;fontSize=13;fontFamily=Helvetica;" parent="rQPKTti5xz2RbczONzEl-1" edge="1">
                    <mxGeometry relative="1" as="geometry">
                        <mxPoint x="130" y="310" as="sourcePoint"/>
                        <mxPoint x="220" y="310" as="targetPoint"/>
                    </mxGeometry>
                </mxCell>
                <mxCell id="W0A1yuBgf-S0EIWUTg15-36" value="Raw to Delta" style="edgeLabel;html=1;align=center;verticalAlign=middle;resizable=0;points=[];fontSize=14;labelBackgroundColor=none;fontFamily=Helvetica;" parent="rQPKTti5xz2RbczONzEl-77" vertex="1" connectable="0">
                    <mxGeometry x="-0.225" y="2" relative="1" as="geometry">
                        <mxPoint x="9" y="-18" as="offset"/>
                    </mxGeometry>
                </mxCell>
                <mxCell id="rQPKTti5xz2RbczONzEl-45" value="Databricks" style="shape=image;verticalLabelPosition=bottom;verticalAlign=top;imageAspect=0;aspect=fixed;image=data:image/svg+xml,PHN2ZyB4bWxucz0iaHR0cDovL3d3dy53My5vcmcvMjAwMC9zdmciIGlkPSJiMWU3MTQ3OS0yMTM4LTQ0ZTAtYWRmMC0wMmZlOWZlZDVjMWUiIHdpZHRoPSIxNS42OTAwMDE0ODc3MzE5MzQiIGhlaWdodD0iMTciIHZpZXdCb3g9IjEuMTU0OTk5OTcxMzg5NzcwNSAwLjUgMTUuNjkwMDAxNDg3NzMxOTM0IDE3Ij48cGF0aCBkPSJNMS4xNTUsNC45M3YuNTEyTDksOS44NjhsNy4wMDYtMy45NTcsMCwxLjZMOSwxMS40OTEsMS41NSw3LjI1OGwtLjM5NS4yMlYxMC41NEw5LDE0Ljk1NWw3LjAwNi0zLjk0MiwwLDEuNTg2TDksMTYuNTgxLDEuNTUsMTIuMzQ3bC0uMzk1LjIydi41MTlMOSwxNy41bDcuODQ1LTQuNDE0VjEwLjAyMWwtLjQtLjIxOEw5LDE0LjAzNiwxLjk5MiwxMC4wNTRWOC40NzZMOSwxMi40MTQsMTYuODQ1LDhWNC45NzhsLS40LS4yMTlMOSw4Ljk5MywyLjM1Miw1LjIxNSw5LDEuNDZsNS40NzYsMy4wOTQuNDc5LS4yNjlWMy44NjNMOSwuNVoiIGZpbGw9IiNmZjM2MjEiLz48L3N2Zz4=;fontSize=14;sketch=0;fontFamily=Helvetica;" parent="rQPKTti5xz2RbczONzEl-1" vertex="1">
                    <mxGeometry x="50" y="270" width="65.88" height="70" as="geometry"/>
                </mxCell>
                <mxCell id="rQPKTti5xz2RbczONzEl-52" style="edgeStyle=orthogonalEdgeStyle;rounded=0;orthogonalLoop=1;jettySize=auto;html=1;dashed=1;startArrow=none;startFill=0;strokeColor=#000000;strokeWidth=1;fontSize=13;sketch=0;fontFamily=Helvetica;" parent="rQPKTti5xz2RbczONzEl-1" edge="1">
                    <mxGeometry relative="1" as="geometry">
                        <mxPoint y="310" as="targetPoint"/>
                        <mxPoint x="-200" y="310" as="sourcePoint"/>
                        <Array as="points">
                            <mxPoint x="-100" y="310"/>
                            <mxPoint x="-100" y="310"/>
                        </Array>
                    </mxGeometry>
                </mxCell>
                <mxCell id="rQPKTti5xz2RbczONzEl-51" value="Streaming" style="shape=image;verticalLabelPosition=bottom;verticalAlign=top;imageAspect=0;aspect=fixed;image=data:image/svg+xml,PHN2ZyB4bWxuczpkYz0iaHR0cDovL3B1cmwub3JnL2RjL2VsZW1lbnRzLzEuMS8iIHhtbG5zOmNjPSJodHRwOi8vY3JlYXRpdmVjb21tb25zLm9yZy9ucyMiIHhtbG5zOnJkZj0iaHR0cDovL3d3dy53My5vcmcvMTk5OS8wMi8yMi1yZGYtc3ludGF4LW5zIyIgeG1sbnM6c3ZnPSJodHRwOi8vd3d3LnczLm9yZy8yMDAwL3N2ZyIgeG1sbnM9Imh0dHA6Ly93d3cudzMub3JnLzIwMDAvc3ZnIiB4bWxuczpzb2RpcG9kaT0iaHR0cDovL3NvZGlwb2RpLnNvdXJjZWZvcmdlLm5ldC9EVEQvc29kaXBvZGktMC5kdGQiIHhtbG5zOmlua3NjYXBlPSJodHRwOi8vd3d3Lmlua3NjYXBlLm9yZy9uYW1lc3BhY2VzL2lua3NjYXBlIiB3aWR0aD0iMTkuNzA5MDAzNDQ4NDg2MzI4IiBoZWlnaHQ9IjMxLjk5OTk5ODA5MjY1MTM2NyIgdmlld0JveD0iNi4wMDAwMDA5NTM2NzQzMTYgMC4wMDAwMDE5ODkyNTM0MDU1NTQzMzY1IDE5LjcwOTAwMzQ0ODQ4NjMyOCAzMS45OTk5OTgwOTI2NTEzNjciIHZlcnNpb249IjEuMSIgcHJlc2VydmVBc3BlY3RSYXRpbz0ieE1pZFlNaWQiIGlkPSJzdmcyIiBpbmtzY2FwZTp2ZXJzaW9uPSIwLjQ4LjQgcjk5MzkiIHNvZGlwb2RpOmRvY25hbWU9ImthZmthLWljb24uc3ZnIj4mI3hhOyAgPG1ldGFkYXRhIGlkPSJtZXRhZGF0YTEyIj4mI3hhOyAgICA8cmRmOnJkZj4mI3hhOyAgICAgIDxjYzp3b3JrIHJkZjphYm91dD0iIj4mI3hhOyAgICAgICAgPGRjOmZvcm1hdD5pbWFnZS9zdmcreG1sPC9kYzpmb3JtYXQ+JiN4YTsgICAgICAgIDxkYzp0eXBlIHJkZjpyZXNvdXJjZT0iaHR0cDovL3B1cmwub3JnL2RjL2RjbWl0eXBlL1N0aWxsSW1hZ2UiLz4mI3hhOyAgICAgIDwvY2M6d29yaz4mI3hhOyAgICA8L3JkZjpyZGY+JiN4YTsgIDwvbWV0YWRhdGE+JiN4YTsgIDxkZWZzIGlkPSJkZWZzMTAiLz4mI3hhOyAgPHNvZGlwb2RpOm5hbWVkdmlldyBwYWdlY29sb3I9IiNmZmZmZmYiIGJvcmRlcmNvbG9yPSIjNjY2NjY2IiBib3JkZXJvcGFjaXR5PSIxIiBvYmplY3R0b2xlcmFuY2U9IjEwIiBncmlkdG9sZXJhbmNlPSIxMCIgZ3VpZGV0b2xlcmFuY2U9IjEwIiBpbmtzY2FwZTpwYWdlb3BhY2l0eT0iMCIgaW5rc2NhcGU6cGFnZXNoYWRvdz0iMiIgaW5rc2NhcGU6d2luZG93LXdpZHRoPSIxMzk2IiBpbmtzY2FwZTp3aW5kb3ctaGVpZ2h0PSIxMDE4IiBpZD0ibmFtZWR2aWV3OCIgc2hvd2dyaWQ9ImZhbHNlIiBpbmtzY2FwZTp6b29tPSIyNS42MjUiIGlua3NjYXBlOmN4PSIxNiIgaW5rc2NhcGU6Y3k9IjE2IiBpbmtzY2FwZTp3aW5kb3cteD0iNjUiIGlua3NjYXBlOndpbmRvdy15PSIyNCIgaW5rc2NhcGU6d2luZG93LW1heGltaXplZD0iMCIgaW5rc2NhcGU6Y3VycmVudC1sYXllcj0ic3ZnMiIvPiYjeGE7ICA8ZyBpZD0iZzQiIHRyYW5zZm9ybT0ibWF0cml4KDAuMDY3MDMxNzgsMCwwLDAuMDY3MDMyMDQsNS42MDk1ODY2LDEuMDE1MDgxKSI+JiN4YTsgICAgPHBhdGggZD0ibSAyMzcuNjE2ODYsMjQ5LjI2Nzc0IGMgLTE4LjU5MDE3LDAgLTM1LjI1NjU1LDguMjM2MTQgLTQ2LjY2OTUzLDIxLjIwMzA5IEwgMTYxLjcwMjIsMjQ5Ljc2NzM2IGMgMy4xMDQ0OSwtOC41NDczOSA0Ljg4NzAyLC0xNy43MjUzMyA0Ljg4NzAyLC0yNy4zMzE2NyAwLC05LjQzOTggLTEuNzIwNTEsLTE4LjQ2MzgzIC00LjcyMjc4LC0yNi44ODQ4OSBsIDI5LjE3OTY2LC0yMC40ODQxIGMgMTEuNDExODQsMTIuOTAxNDggMjguMDM0NTcsMjEuMDkyODMgNDYuNTcwNzYsMjEuMDkyODMgMzQuMzEyNDYsMCA2Mi4yMzIxOCwtMjcuOTE1MTMgNjIuMjMyMTgsLTYyLjIzMjE4IDAsLTM0LjMxNzA0OSAtMjcuOTE5NzIsLTYyLjIzMjE3MSAtNjIuMjMyMTgsLTYyLjIzMjE3MSAtMzQuMzEyNDUsMCAtNjIuMjMyMTcsMjcuOTE1MTIyIC02Mi4yMzIxNyw2Mi4yMzIxNzEgMCw2LjE0MjM2IDAuOTI4MDIsMTIuMDY1MzUgMi41OTMzOSwxNy42NzQ3OSBMIDE0OC43Nzg5LDE3Mi4wOTY1OSBDIDEzNi41ODE0NywxNTYuOTY0NjUgMTE5LjAxOTIzLDE0Ni4zOTkyOCA5OS4wMDk0NzMsMTQzLjE3NDIgbCAwLC0zNS4xOTEwOCBjIDI4LjE4OTYxNywtNS45MjA3IDQ5LjQyOTQ1NywtMzAuOTY2NzgyIDQ5LjQyOTQ1NywtNjAuODk0MTM2IDAsLTM0LjMxNzA1MiAtMjcuOTE5NzEsLTYyLjIzMjE3NCAtNjIuMjMyMTY3LC02Mi4yMzIxNzQgLTM0LjMxMjQ1OCwwIC02Mi4yMzIxNzQsMjcuOTE1MTIyIC02Mi4yMzIxNzQsNjIuMjMyMTc0IDAsMjkuNTI2NTE1IDIwLjY4OTY5NCw1NC4yNjM2NDYgNDguMzE1Mzg2LDYwLjYwNjk5NiBsIDAsMzUuNjQ4MiBjIC0zNy43MDE3ODIsNi42MTc4NiAtNjYuNDY1NjcxMiwzOS41MjEwNiAtNjYuNDY1NjcxMiw3OS4wOTE1MSAwLDM5Ljc2MzQgMjkuMDQ4NzI1Miw3Mi43ODcyIDY3LjAyMjcxMDIsNzkuMTc5OTQgbCAwLDM3LjY0MjA2IGMgLTI3LjkwODIzMSw2LjEzNDMyIC00OC44NzI0MjUsMzEuMDIzMDYgLTQ4Ljg3MjQyNSw2MC43NTA1NyAwLDM0LjMxNzA1IDI3LjkxOTcxNiw2Mi4yMzIxNyA2Mi4yMzIxNzQsNjIuMjMyMTcgMzQuMzEyNDU3LDAgNjIuMjMyMTY3LC0yNy45MTUxMiA2Mi4yMzIxNjcsLTYyLjIzMjE3IDAsLTI5LjcyNzUxIC0yMC45NjQxOSwtNTQuNjE2MjUgLTQ4Ljg3MjQxOCwtNjAuNzUwNTcgbCAwLC0zNy42NDMyIEMgMTE5LjE4MjMyLDI5OC4zMTEzIDEzNi40MjE4MiwyODcuOTU0OTcgMTQ4LjQ5NDA2LDI3My4xNTg0IGwgMjkuNDQwMzgsMjAuODM3ODYgYyAtMS42MzQzNyw1LjU1ODkgLTIuNTQ5NzUsMTEuNDIzMzIgLTIuNTQ5NzUsMTcuNTAzNjYgMCwzNC4zMTcwNSAyNy45MTk3Miw2Mi4yMzIxNyA2Mi4yMzIxNyw2Mi4yMzIxNyAzNC4zMTI0NiwwIDYyLjIzMjE4LC0yNy45MTUxMiA2Mi4yMzIxOCwtNjIuMjMyMTcgMCwtMzQuMzE3MDUgLTI3LjkxOTcyLC02Mi4yMzIxOCAtNjIuMjMyMTgsLTYyLjIzMjE4IGwgMCwwIHogbSAwLC0xNDUuNTEzNTMgYyAxNi42Mzg4MiwwIDMwLjE3MiwxMy41Mzg5MiAzMC4xNzIsMzAuMTczMTQgMCwxNi42MzQyMiAtMTMuNTMzMTgsMzAuMTcxOTkgLTMwLjE3MiwzMC4xNzE5OSAtMTYuNjM4ODEsMCAtMzAuMTcxOTksLTEzLjUzNzc3IC0zMC4xNzE5OSwtMzAuMTcxOTkgMCwtMTYuNjM0MjIgMTMuNTMzMTgsLTMwLjE3MzE0IDMwLjE3MTk5LC0zMC4xNzMxNCBsIDAsMCB6IE0gNTYuMDMzNjIyLDQ3LjA4ODk4NCBjIDAsLTE2LjYzNDIyIDEzLjUzNDMyNywtMzAuMTcxOTkyIDMwLjE3MzE0MSwtMzAuMTcxOTkyIDE2LjYzODgxNywwIDMwLjE3MTk4NywxMy41Mzc3NzIgMzAuMTcxOTg3LDMwLjE3MTk5MiAwLDE2LjYzNDIyIC0xMy41MzMxNywzMC4xNzE5OTEgLTMwLjE3MTk4NywzMC4xNzE5OTEgLTE2LjYzODgxNCwwIC0zMC4xNzMxNDEsLTEzLjUzNzc3MSAtMzAuMTczMTQxLC0zMC4xNzE5OTEgbCAwLDAgeiBNIDExNi4zNzg3NSw0MDAuMDA4MjYgYyAwLDE2LjYzNDIyIC0xMy41MzMxNywzMC4xNzE5OSAtMzAuMTcxOTg3LDMwLjE3MTk5IC0xNi42Mzg4MTQsMCAtMzAuMTczMTQxLC0xMy41Mzc3NyAtMzAuMTczMTQxLC0zMC4xNzE5OSAwLC0xNi42MzQyMiAxMy41MzQzMjcsLTMwLjE3MiAzMC4xNzMxNDEsLTMwLjE3MiAxNi42Mzg4MTcsMCAzMC4xNzE5ODcsMTMuNTM3NzggMzAuMTcxOTg3LDMwLjE3MiBsIDAsMCB6IE0gODYuMjA0NDY2LDI2NC41MTU2OCBjIC0yMy4yMDYxMzMsMCAtNDIuMDg0NTg4LC0xOC44NzUwMSAtNDIuMDg0NTg4LC00Mi4wNzk5OSAwLC0yMy4yMDYxMyAxOC44Nzg0NTUsLTQyLjA4NDU5IDQyLjA4NDU4OCwtNDIuMDg0NTkgMjMuMjA0OTg0LDAgNDIuMDgzNDM0LDE4Ljg3ODQ2IDQyLjA4MzQzNCw0Mi4wODQ1OSAwLDIzLjIwNDk4IC0xOC44Nzg0NSw0Mi4wNzk5OSAtNDIuMDgzNDM0LDQyLjA3OTk5IGwgMCwwIHogbSAxNTEuNDEyMzk0LDc3LjE1NzM4IGMgLTE2LjYzODgxLDAgLTMwLjE3MTk5LC0xMy41Mzg5MiAtMzAuMTcxOTksLTMwLjE3MzE0IDAsLTE2LjYzNDIyIDEzLjUzMzE4LC0zMC4xNzE5OSAzMC4xNzE5OSwtMzAuMTcxOTkgMTYuNjM4ODIsMCAzMC4xNzIsMTMuNTM3NzcgMzAuMTcyLDMwLjE3MTk5IDAsMTYuNjM0MjIgLTEzLjUzMzE4LDMwLjE3MzE0IC0zMC4xNzIsMzAuMTczMTQgbCAwLDAgeiIgaWQ9InBhdGg2IiBpbmtzY2FwZTpjb25uZWN0b3ItY3VydmF0dXJlPSIwIiBzdHlsZT0iZmlsbDojMDAwMDAwIi8+JiN4YTsgIDwvZz4mI3hhOzwvc3ZnPg==;sketch=0;fontSize=14;fontFamily=Helvetica;" parent="rQPKTti5xz2RbczONzEl-1" vertex="1">
                    <mxGeometry x="-305" y="265" width="50" height="80" as="geometry"/>
                </mxCell>
                <mxCell id="rQPKTti5xz2RbczONzEl-57" style="edgeStyle=orthogonalEdgeStyle;rounded=0;orthogonalLoop=1;jettySize=auto;html=1;dashed=1;startArrow=classic;startFill=1;strokeColor=#000000;strokeWidth=1;fontSize=13;sketch=0;fontFamily=Helvetica;" parent="rQPKTti5xz2RbczONzEl-1" edge="1">
                    <mxGeometry relative="1" as="geometry">
                        <mxPoint x="442.44" y="375" as="sourcePoint"/>
                        <mxPoint x="442.44" y="615" as="targetPoint"/>
                    </mxGeometry>
                </mxCell>
                <mxCell id="rQPKTti5xz2RbczONzEl-67" style="rounded=0;sketch=0;orthogonalLoop=1;jettySize=auto;html=1;dashed=1;startArrow=none;startFill=0;strokeColor=#000000;strokeWidth=1;fontSize=13;fontFamily=Helvetica;" parent="rQPKTti5xz2RbczONzEl-1" edge="1">
                    <mxGeometry relative="1" as="geometry">
                        <mxPoint x="810" y="345" as="sourcePoint"/>
                        <mxPoint x="910" y="345" as="targetPoint"/>
                    </mxGeometry>
                </mxCell>
                <mxCell id="rQPKTti5xz2RbczONzEl-100" style="edgeStyle=orthogonalEdgeStyle;rounded=0;orthogonalLoop=1;jettySize=auto;html=1;dashed=1;fontSize=13;fillColor=#fff2cc;strokeWidth=1;sketch=0;fontFamily=Helvetica;" parent="rQPKTti5xz2RbczONzEl-1" edge="1">
                    <mxGeometry relative="1" as="geometry">
                        <mxPoint x="-490" y="644.8299999999999" as="sourcePoint"/>
                        <mxPoint x="-420" y="644.8299999999999" as="targetPoint"/>
                    </mxGeometry>
                </mxCell>
                <mxCell id="_2faHYi9R_LIUurf6Xiq-0" value="{ ingenii }" style="shape=image;verticalLabelPosition=bottom;verticalAlign=top;imageAspect=0;aspect=fixed;image=data:image/png,iVBORw0KGgoAAAANSUhEUgAAAMgAAADICAYAAACtWK6eAAA5q0lEQVR4nOy9B3hbx5n3+0fvIAj2InY1UlTvzZJlucmObVl23GNnnb2OU9bOZpNsNlnflN2bvl++ddZJ7HUcO3G35VjuttxULcnqJEVJ7BQrSPTe7nMGAxAkQPAARCNzfs8DAgRwzgyAec+8885b+ODg4JgUTkA4OGLACQgHRww4AeHgiAEnIBwcMeAEhIMjBpyAcHDEgBMQDo4YcALCwREDTkA4OGLACQgHRww4AeHgiAEnIBwcMeAEhIMjBpyAcHDEgBMQDo4YCDPdgb9TigBcB2A5/Q36AbwM4GymO8bBkUkqAfwBgAeAP8rtG5nuIAdHptgKYGASwQjebADmZbqjHBzp5i4AzimEI3h7ItOd5eBIJ6tYCkbwdixJ7ZZzsxHHTOBsnAJyaZrt/R8A9gnnbKOzGAdHVrElTuHw0wV8onxvinM/DYCXxM836+HMvKnli1GeGwLwPoBDYWZdLwALAMU0B/CXp3j9bgBvAXh+Gm1wcCSNU/TK3Qrg/wOwMsXtsZmhnktxHzg4WMPMELemsT02AnIhjf3h4IiJMs3tXWAhIKY092lGwy3YZhf1AMQA3ACkAPIBzKWm5m0AygD0AKjIdEdnCpyApBYBgDUAFoQZRDwAmgEcpYvzdFJEheWNNLfLwTGORgB/BWCMoeoYALwKYF2mO8sxOdwMklwWAvgpgJ3MP1qtFtu3b0d9wyIUFxWSNwwMDqGp6Sw+eP99jI6OBo97BcAjAJoy2HcOjpTBo5t0ZmZ22HnzLv/u3bv9Xq/XPxnMa3v27PHfccedwRmFUbd+xl20OGYjLzCDPC8/3//6nj2TCsVk/O311/3FJSVBQeE28ThmFY8xA3vZsuX+i21tkwqBxxe4TUZfX79/+/Yrg0LyGgB5pj8YB8d0+TkzoK+++hq/1WodN+AtLr+/z+r1XzR6/S368TfmOeY1s2u8kNjtdnIuKiR/SqA/pQD+jVqpjgM4R72DXwXwALMsSsF3MKvh9N3EuRvA0zW1tWhtbYVQICBPmlzAoN0Hr5/dSQQ8oEjGh1oc+N9sNmPtunVobiLr9V10AT8VFQB+C+BGFu99ikYuWtj18O8bLmlDYuRQaxVeeuklIhweH9Br8aHPxl44GJj3Msd0W3xwegGVSoX333sfBQUFzMu/YXHVvx3A54xwbNy4Ea/v2YOLbW3w+/2h27lz5/C/Tz6JpUuXMe+/l84qV07rG+DgiAFRrR77/R+IamR0+v2t+khVKt7bOb3Xb3IG1K0XX3qZzaL9n5n3rF6zxv/BB3tZGQR2v/aaf86cOcFzfzeN3xnH3wnVjCZ0xfbtZMAZnP5pC8ZEIdHZA6v59Rs2BAfy1ij9+E/mtRtuvNFvsViiGgWcHr8/mqG5o7PTv2Xr1uC5v5qB73DGwK1B4udJAPe9/Mqr2HHDTeg0+1LSSKmcj/f2vIpbdt3M/PssgDvDXt7JrE2WLVuOg4cOQiqRkCdtHsDg9MHiAXxhah6zzlGLecgR8SClDi8WiwVr165FU1OTFcAG6prPMQFOQOJDCaC7uromt+V8G7osPqRGPAI/TJWShyWNDWg912KiFiorNf/2KpXK3KPHjmHB/PmwuoFhhw8OFp5dcmHAKCARAC0tLVi5ciVsNlsfgEUA9Cn6ODMWQaY7MMO4A8Bt999/Pxo2bIMrjsV4Iri8gFLgxTvvvCOhruwnAfwXgM179uzBqjVrMGjzYcjhh4dlX9w+wEg7XlFSgPyCArzxxhsqACIA76X2E808uBkkPl4GcPMrb76H+vXb0tOieRgLK4pBzb1fBmC85tpr8dabb6LP6oPJnfip1SKgQOxFTU0Nent7PQBKAOiS2PsZD2fmjY+FIpEYC1dtSFuDAnUBGhYtBnWZ/z7z4JFHHsGAbXrCwcAcb/YK8ejv/gfUHf+WpHR6FsEJCHuY9Uf96o2XgSeSpq1Rrx9oXEU84hsAfLOquhp1i1fB4ErO+Ycdflx+9fWYP38+OItWJJyAsIeMoMYVq9LfcENj8KHs1ttuh86RvMUPc6Z+mw9XXXsdaBzL/KSdfBbACQh76pg/lTV1aW+YLxizpTSs3oxk2wZ8ABavuyz4701JPv2MhhMQ9uQwf0rnVKa9YZVKHXq8dO2mlLSxeHVoXbUmJQ3MUDgBYY8sFSf1uN346x8fxdO//y0cdlvU96g1ueReJBZDLI1c/wxc6sGjP/sRXnvuzwn3Q5WjwZyqaubhZQmfZBbCZVZkT0r2jL73wJfw5qsvkMefffIhfvfc3yLe4/EEspEuWhaZd87v9+FL112O7s528r/DZsNt/5DYWludwwhiRy7NiOJI6CSzDG4GYQ9xD7dbrUk9aWfbWB63Sz1dUd8z2B/IZy0UiiJeM+n1IeFgOHf2dDK6tSAZJ5kNcALCniLmT2tTUgZgiKtv3BV6fPk1X4j7+BxtHjHTBrn5rnuT0a0vAShOxolmOpyKFZsldPf6eurFi7bz55LawP0PfRerN20Bn8fHouXRTcgDl3pjnuO/nnoeJz47iMKSUlTPTcrF/yEADwL4EMAHtKiPMRknnmlwAhKJgnrOfjmaRefYgU+T3uDiFbENR82nTpB7lzP6skAskWLN5suT1h+xSASX2y1mJjh6+xGAxwG8BOBg0hqaAcxWFWsTgLVxHsOjgnGeFtoko1YmEmDL/AL84Z4V0Cgk6OvtRk/HxdT0Ogo+nw/HPztAHjefPpHStvQjATestx/ehG9tn4t5RaHUwgo6qzAdeR1ATQKnX81okcnsbzqYjQIiB/Aprb/xDyyP2UaTtv2FupUjXynGN6+Yh73/vAn/c8cSbKrNRXVeINHIR++kL3Pnp++9CbMpoN24Xa5JZ5HpYrNYiPArZBKUKPi4f2MlXntwLZ77ympcs2jccoRRN88A+B2APJanZy48n9G6KOUp+QApYjYKiI0KCKju/JUY711Gr4of0KyIaCjX4IkvrcSn/7IZD2yqQI5UAIPNhY5hM2oLAlshBz76IB2fg/DWqy+O+//o/k9S0s5n+z8i93ML5DjTM4o+vQ1OjxdLytX49S2LyPdx/+YaqKTEkiana5RLAL49hQn8TnrhAb1oTbfEXFqZDQJyD00GvTrsuW1huvIfJ6m89BBNjbOe+SdPKcEf71mBl76yEutrNPD6/Lg0asXRDh1a+gwYMNqxolJDDvz0/bfRN4lJNpkwbex56VnyeF6Ritwf/Dg1wrn/g3fJfYVGDIvTg64RC453juB0zyiMNheZUb+1rQYfPLwBO5aEJgEJgF/SAkHRfLjuChOO03Q9E/SUWUxn7aSY3VLFbBCQe+nV/0MAv6Zetx4AV9GZAVRIgjNJDk2E8F8gewsC3LuxGm99cz021ubC7vKgfciMzzt16B61EkEJUqgQoio/oJc/97+PpfyDPfl/f0Xuy3KkWFEamL3e3v1SStra/2EgVips3UGwOj1o7jPgbK+eXCTkYgF+uXMBnrxvFZZUhBKu1FIV6p6wQ5mZ4xn6+BNar9FCPRJ+Qi9g9RNCibOO2RBReIjWvVhCM6UzX3g71ZNfoWrUfKo759KYcmJP3bawCL++pRFfWFwEp9uDTp0FHToLGRT+STwCZQLg8x4TzjefxfYdNyI3Lz8lH+pSdyd+9M9fg8vlxOYaDWq1EhzptcBkNGLD1u0oKZ+TtLbeee0lvPjU42SWuL4hH2JR5LBweXxE1Rwy2eEHD/OLlNi1vARqmRjHuw1we/1S6ui4HEABtXqBCsf11Ex8FV3k30TrmDCLuW9lc5DWbBCQEQAv0qvTFVQIbqfetx/QvLmrqeVlbdCn6t6NNfiPGxaQNUaHzkyEw+6eOqhbJeLjos6BQYMFRw9+itu+/AB4vOQHZj7y0APEaqWRCXFjQz4kQh70di8GzC4M9vXiC19MTlVnu9WKB2+/ARazCRurNagvVUEomFyxYCZUo92FQZMdUpEA62rysL2hGKcvWTBkIgYE5mJ0DX07o8LuoA7DPwfwaNjC/gc0/iRrhQOzRECCHKLCwMwklVTH3Ul1X+bqtpF5E6Mi/PC6enxlYwX5kc8PGGF2sK+8zAgD3+fBqT4rRoaHIBAIsGrD5qR+kNeffwa///V/ksc3NOSjUBnYripRi/FZtxndHW1YumoNKpLgev/yM0/gzVdegIDPx/ULc1GiVbASeEZQRixOOFwelGtluGFJMTpGHWgfHpew8WYAzMLtXSooDEfo49ToiklmNgkI6GzyJwCjdLYooylCiXDUFSrx7D+uxdIyJVoHjESn9sUZXCEQ8CHh+UNX88/2fYy5C+pRt6AhKR/gjRf/iu888CXyeE2lBusqAmsC5qou5vNIBpM+owN733wdV33hZmi0bC2tkXRcbMU37r4FXo8HaytzsLRMBZVCEtc5bC4vBgx2iIV87FpRBq1aiSPtOngCX+w9NCdwHq2N+O8A7gMwmHCn08xMFZBdNE2NnCYaUNLaHMEsPEdo1vXbqMqF5RUaPH3fCrg9bpzrN8DhTjxhj88HlCqFOK9zwOry4p2/vQylUomlq9dP60PtefEv+M7/ExAOrUKMWxvzIOAHruYatRR2pweVuRIc6THD4XTi4Efv47pdt0Mqiz8R/EBvN/7hpqsxqhsms+quRXnIVUoglSTmXGG0u2Gyu4mhY9O8Irxxuo8RkuD4+oBepMJNcELqvsOovnPoBa2crh+zhpmY1WQFzS0bCw9dkxC77Lq5hXj8zsVoHzJh2Dz9jTa3x4sBnQUOjw//c3gQJnsgQPz6XbfjZ7//87gIQDb4vF78+NtfxwtP/ZH8LxQI8MC6EuTLAudhhKS0UA2dwQq7w4NT/TbsPjtMXqtfvBRPv/kxFEoV6/a62i7gS9dfjsH+PvD5fNy/qgilajEKtQpIxNPzPhLweJhXkoNhiwc7HzsMr49ciNwA2ui6cKoGGPW4e1qdSCIzdQa5ilZwnUzA+XTdga0LCshGV+ewiejMyYDR150uL3h+P+bmy9A05IDb6yOWrQ/feh3avDzUzF/ISpc/8OF7eOjeW/HJe2+R/1USIe5bWUxMykFU8sCVnWnXanejWCWCyy9Aj8GO4cEBsrNft6AeZRVVU7b3/p7d+MbdN0M3FNByrlmgxYICGfg8HpmlpmtwYBSrUYsDJTkSXLW4DB+36mBzeQT094q1reCl68hHwzSBjDMTZ5CJlFBXdAHVdb8NYDvzwooKDX57WyN6RixEV46F1e3HsMlOHheqpZCLYm8RMYvT4dFAbMio3YvXW/ToHBmLFSmrqMT263di9cYtqK6bh/LKajJ8ers60XHxPI7s/xifvPsmeRykNEeGWxrzkCsbu27x+TwU5yuJcDD068zweALj5+MuKz4+P2YE2rD1Cly36w6s27INRaVjHh09ne147/VXsPfNv+HEkUOh5y+fl4fNlYE1To5KCnWM9Qcz8PuMTjJ7ysQiFKkiY1MmUqqRY9DswgN/PRmu0v47VYF1VCgG6JokxWn4EmM2CEg4C6j6pSjSKPCHOxthtTvhiGG+dXqBF48P4ODFEWxbkI/N8/JRqGA3sY4YbbDZx5JTfdJpwUcXRhLq+LpqLbZWKyEWjP9JtDkyKGTi0P82hxsjhrHQ3M96rXi7JdJSKhSKkJefj8GB/ojXmDZuWFSAhsLA5iMzaZTkq4gBIhZ+P3C8x4R3m4cxanPjrjVzsLRMEfOYApUUR3us+MmeUH3Sd8LMwFnPTFWxolFMneGKpSI+fn/HYni9HtinmDmeOtSL/Rd0ZBF/z5pSKMTsnQukYiFsdldoU7FKIya+TA4vYHZ6g5acSWEG5LwCOW5uLMCyElloQR46v0QIjWp8KLxIKCBC6aONlqvFqMiVQe/wwBhmrvb5fLBaImvk1OTJcfuyIlRqxoQuVy1jtThnBKk0RwKtUoKPzulwrMuI1dUaKCWTDyOby4PGUhV8PAHO9BKnyzq6Rtw3ZYNZwGyaQV6mdnf839uXIk/GizlzMAxb3PjPdy7ihqUleOZQN9bWFeKeVYWQCNkLidPlwdBoZBiuxw9c0NnJ3sCw1UNUMlChIi4rWinm5ssh5EUXIkZYisJUq3Bcbi+GRi0Ru/06mxcn+yzoNjjg9oyp8VKxANVaKZaUKJAzYTDLpCLka9hbwTr1Lvzi3QuYV6jA0goNdGYndi0rmvK4slw5fvNRN9470xd86nq6k57VzBYBuZkKCK5fUoY7VxURd5Gp6ByxoUfvxKa6XLx8cghvnxnA8spcfG1zfG4cZqsThiRYx8IpylNGdfkIYrW7MGq0T6sNZn3DqFZ8Prth0Gtw4mfvtqFEI8X3r6ohg+e1U4O4ccnUAsKQq5Thrv89FlwPDlMTb1aXgpsNKpYawG4AGo1CgkeurYPZwS5prUAoQF2+nKgOC4sV6Bq142SPEaM2D5bOUbO+ekjEQmIFCs4S04EZrIXa2MIBEvUnICZaB4sLQTSYGaowVwEhy9myddCKX73fBplYgIe3VpK9E4YyrQISAbtvyuX2YHlVPva2DIEGYYE6mWYts0FAGOFYxaw7fnvrYjjc7DM6Mz9s0KrJ3K2u0qDf4sHhthGyCdhQooJ0CmtW6FxiIVGfHDEcHaeCGfQFWgVZZ7BqUyQg73U448tizfSzgAgHu3aO9Vjx2MftEImE+KfLa8g6JNQHlsIBaqbSygXwgo/WATOoc+nhbNscDGemC8jNtOwxdq4oR11+fG4SE2GEZUm5Gq1DVpwfMONUjwlravIiLEuTIRTwIZeK4PX7x60B2LSrUUnJYjnamiMWjIDIpWJ4vD5yi9kOaDs5MtZq1ec9ZjyxvwvM27+zvQaV2ukl7vb6/FhcnoPPOozMTM+n8TiP04V71jGTBYRHHd4K8lUS/OPGCvCSYEpnZGFhkQLNgzb0Gx043WchMRJqKbuvihl4jJDIJCJyzWQGxGQzikjIJyZcbY6cvJ/H48Hu9qHX4EDLgBXtw1Z0jdjJbcQeEAC1VIiJe3lMm8x5mJmBOQfzOg+Be6FAQJ5nXs/TyFm7knj9wIfn9fiwxw+LyYSHtlWjtiB+l5ao5/b5UJgjw+H2UdAqvnq6SZh1zOSsJl+jATf4QmMh+EncfM1TikmMyGOfdECeV4Yfv3Eet6wsxfb57OvwM+oSM/BBXVO85AofkBRGMBjdPzhbGBxeHDqnI8J4fsAU87zMjLG4TI3lFWqsmKOGKGx2Y9S86bqKMBgdXjxzpA9Vy7fg6V8+hF3XXYX5RbH3O+KlsUSGBcVKnBsga/R/o8FVQ0ltJAnM5IjCf2f+lGjk2FCbm/STX9IHNuN27rwJv/zVr/H8kV68eiqx348Z1FKJCEq5mNyYQRzaGTc68aM3LuDl431TCgeosH3epcfj+7rwmw+7pjRlx4vR6cNv9nZg8ZYv4NVXX4VCoSD+a/F6PU8FM6te2xhKBpFLPSCyjpkqIN+mUWtkcy8VjNgCA89gMODhhx/Ck08+ifdaRvGrvZ0YtiSneg2jTv3ivfaQsyODWq3G008/A51uBH6/P3S7cOEiHnzwwXHHMwL11Gd9SekLw2edJvzrq824+e6v4KmnniLPWWmq1e7R6ZmUo9FQLCdrPsp9YZatrGEmqliltEY4VlVpMa8wOXrxRNp04zOt33fffaiursZNN+3Ev7/eirvWVmBDTc602jjQboBpgknaZDJhz57XSahtY2MjCciyWCw4duwYDhyMzNl2tEOPL6+vgJif+CWeEdQnD11Cl4WPV157HTt27Ai9NjQU8Bq2uFLjP3jnmnI095+D2+vLB/A9AD9MSUMJMhMF5B5akRVXLGC/JogHj5+HAerv5PWOqTBbtmzBqVMncd111+HJA2dwtEuDr2woj8s9JRw+L/pxL730ErmxP09CzRNOXrLgz4d6oc4rxIEDHwRLsYUYHQ34lg2anFhUkvwLfJ5ciE1ztfjwHPEnuy/bBGSmqVgymq4HFXkK1CXJqjKRPsPYrvjIyOi41yoqKvDuu+/i2muvxZleA3645zwOdU69dojG6io11NKpvWJjsaIqd1J3lViYnD789Wgf/vvDdmy98lrs378/QjjC6TOmrhrC+trQha4MwDdT1lACzDQBuTWYZX3nspKUNdJnHIsb6euP1PFLSkrwt7/9DY899hjcEOKJfZ34z3faceJSfF4TSjEfD22rIn5KibC6Wot718aXqNDh8WH3qSH86+4WHO624dlnn8Vrr+1GZWX0yll2e2Dt0WdITixNNKq1UiyrDAnJI3FkbEw5M03Fupv5o5SK0FiSmtkDxIlxbNHs9UTfvxIKhXjggQewdt06XH3VVWgbHMSjH1qwqlqLm5YUsYqXYKjUyvDIjjrsbzPgQNso2oZiC5lIKEBjmRpXzM/D/KL4voNj3Sa8dLyfOBjOnTuXqHFLliyJeczAwAC511mnWXN6Ci6r0+BEV2hfZBvNVJNxZpKALKNfHK5rZOcclyijFvbqxNIlS3Dq1Ck8/PDDePHFF3G0YxSfd+qxtkaLqxoKUJ4jnvIcAl5ggDA3m9tPTL/9Rgda+k043GHAjkUFKMtVoEglRIVWHteaw+nxoXnAhtdODqBXb4NMJsMPf/hD/OAHP4BYPHXfRkcDKibznTBrs0TUOTYsLFZCIREGnUwf5AQkfkhdMY1cjG1xbNglgtMb36q3qKiIqCpf/epXibWrra0NB9tGyG1esQqb5+aTwCIZC78uuYiH2nwpuXm9XiIgyytyUJUX32wxYHZj7zkdOd5GfbVuuukm/PznPyezRyJ06Kwk3iUVCPnA5QvysecUmbEuo9ka21LSWDz9ykB7xfTeQG9syA1mal9UnjMtqw0bBsIi9hwO9rPJpk2bcPZsE/7jP36Kn/70p+S58wNmcgNdUK+r0WJxqQJx+PixRm/3Yl+bAZ+cH4bBOqYmMmumV199FWvXxlsRYryRYtDiw9yCpHU3gpUVOUEBAc1p9svUtcaOVAmImqpDl9MsJCoaDhutvU6az6oZwHs0JHNiDOmtQYPChhpNiro8xoh9zObf0xu7utNEpFIJfvKTn+COO+7At7/9L3jrrTdDrzGqF3OTiAQoVokxRytHcY4U+UoJ8hTCCHeZETrI+6NYkBw+AYaNNhKM1T1qw6jVHdr9n8j3v//9hIQD5PP3jPXHZKUZllJDuUaCygIVuobJBeW22SggXwJwA4Ar49gVraK3FXQRbqfJpX8EIJhC/VrQ+OZ5BSmpxhyC0bMt9jGLjcmYWOWxhQsX4oknHkdpaeROv9PtJbEnXSx3p584EJ+QTqS5uTnhY8ONFMx3k2qurc/DY58QAVnOTCosUjyllGQICJ+WF3g46DwImhqH0ZtrC+UoVooglYhRwFwlwxZ5VrcfOpOD7NKeG7Dg3KAFPp9fRjeMmFnjGwBeo2l+iINeqhk0RZozbTYb5PL4de9z55JbzzBRmpqaEj42XMXq0ae+MvSKCjVy5WLobWT2vG+mC4iS+vLfFnyiQCXButo8bJ2nhVrCYpulODDR7FhUAJPTi7fPDmFv6wi8Xp+CZmJfTetQoL4kddN7kGgJrDs6OtHQUB/3uVpbW5PUq+nR09OT8LG9YSqWdYoEGMmAmaOqC+TQdxEBuRnA1zOZEmg6ApJPywuQzM0auRg7lxZhXU1uxCLa5/NHDeYRCHjjAoTUEgG+uKIEy8rV+K+97XAF3MMfYP4opCJiCkw1w+ZIR8Th4aHwyZE158+fT1KvpkdHR0fCx3rCVKxLhtTPIKD5zI53EftNEa03mfzKqSxJVEAYxXovs/Dm8XjYNDcPt60oJtlAfH4/HE4vyfbhdHvgdvtCKWomQywKBPVIxEKIxQLMK1Lg5uWleO7oWLWutVWalFh+JuJwR24MBj1a46V9GgMz2SSqJobjdLmJ23uqrYhLypQkJZI3cFHdkUkBSdTV5L+pVQrXNxbgS2tKIeLzYDDZ0TdkwrDeCpPVSdJzTiUcoGlsmPczx/UPmWF3uomFJ5y5henxhI6mZre0JLaW6OnOmhSzaGlpifsYgyHSQKF3pF7bkYn4KB+Le4+91Z9iEhGQLdRGjWVz1Li+sQgGsx39w2aYba6EExYEYQRKp7fhwPnh0HMioYBkGUkHZlukZcliMSd0rmxZgzAMDMZfcaCp6WzEc9G+n1RQVRBSpzdmMjQ8EQH5GfMnRybCHStLSa5Ys9XFaqZgi87mweGuMQ9ZZu3BMrnItPFFMWUODCRWziJR1SwVdHfFX3TUFkUYon0/qaCxdFyN9i1paTQK8Q67mmCB/Svna2G12MkCPNkc6DQF0+YTkpUsgA1WT+QAOHcufvXEmOD+Saro7IxfQKIZGaze9Fyp6grGqdSJ7XImgXg/7e0g/kICLMhPzYbdqD2QPjOcItXUTnXJwmiJvGrG424SpK0t425E4xgZib8UYMB6Nx6jOfpufbJRSfgoHQsDWJOWRqMQr4CQsgKNJUoIUuTVua/TTGKww6kpSF+ocvjMFeTs2UhdfCoS0flTSUdHZ/zHdEYeE+37SRVLykLrztq0NTqBeAVkJfOnmGWsQ7wws8eJ3pBqQnalFFIRCcvMJMxawhfnwOidxuZcKjAa2fqFjtEVRUDSSb4ypDnUB8Os0028AkIu5cGqq8lmX0dIOEaZCxjzIF4371QR72abyZRYGG6qGByKP2WRTpdYrZNksWD8xnBySwmzJKEVVyrsGMM2D05cCplT/0INAqjMS61zIlsMhviuwBcvXkxZXxIhkRktmpk3nRSrhFBKQ7PIpkz0ISEBMacg+nJCPPfeYN+KlelboCcTzyShujMFvV6f6S4Qwgw0GbFkxSsgZOdrIIrH63S5MBKyFH1G69YRSliErKaD9vb4VKzpOAhmA+3t2ZFwPez3b8xE+2wFpIF61ZJVW+twcp3Wes1uDJtDQvcMbY8QSAKdeaKZPGMxMpJZ/T0ag4PsP0O8RolUUT5m6k1NCs0piCUg6wH8iUb7naVXdhKX0WcMlBZLFueHxtnWX6a1sgnFyuwQkHj3NcITzmULXV3srVK9vZdS2he2TMgYWZzu9qMJyHJa9ecAgHtpGpYI9rYZk5bQuH1MvXqXlgQmV4sijSIi1X+miHdGGB6Of2Mu1dhs7Df5BqJUx80E2vFFTONLApYEwu21EgD/Jxh/waAQC0ixxqpcCfLlQlJ/w+gE+k1OsmbYe9GA7XOnFyPOyNjAWB6q9+k9Cb7Ik2dPXruWOKMDL12aXphspknE+zcVaKTjxsDCdEcYhgvIiwC+wDwQCfjYsTAPS6MkZ2Mu7QsLJLi8Vk1S5ds8wHT28br0zvBgqr30nuy3VOSlPkBqIjKphIbFj0c3PJz2viQbk4m9V/JkngBy2fQqTMVLcc64GSTtA0JItzX+NygczKLohvpcFLAY9TlsQmqnoN8SMocyo/IkfUz2QMS89C8UNbLon7u9vZ2sKwSCmVuUK569nIsXLkR9Podlpa1kIRq/BqlOa+N0DfJjGhxPCr7/w8oCVsKRDAwOHzr0IetVZ5g7AXHCKc9PTwxIOGL+5ELZ2souhDYeXT+dmM3sZ5DJYllifT+polAT8sWbXr2JBGAk4VvMgzyFGDfW5yWlzt9UePw8vN2qx+c941zCGf3SHF5cXiFIvyUoRzH5zr3dzm7gx6PKpBO2purRUf2kQh7r+0kVsjGhTH4psSlgZhCy0LhuYV7KPHTDYVrYfVaHMwNWlGvlUMnH6bQSmsmCIBCkf5GulU5uNutlmUTO6UxdJvR0cP589NmDz+MhN8b3kyrCEntkxoq1qESJ6tz07Fh3mzxYW6vFQ1doQsH/NrcP5wetaBm0oqnXSKxkDEW5qqBTb9oozZ38Csk2hNbhSE9YaqpomiTRXFUaww7CyVXLAR2Jzky7WwURzSvq0jdz1ZeosL5GMy4zhlzEx9JyFW5fUYxtCwtDzyszoGLNiSEg2ZIILtVYJlmr1BWk36rIkDtW/n5ZumcRfmmOdKKtOaXw/LEH/RtnAm5Yq2vyUp5eJhoSAVCqie5iP50MhTOJyQLE8jPkOLquNlRPhx9MYp4uhGVj6VXSgtszuRXkk4sGGGwBV+FrG/LT2KvxVOVJ0WeIXKSy3SwUCNhbARUSCS6vqUG+TAq3348P29rRFyOWZENNNeZpApuzZ0ZGcKyLfWqhnBx2RqCzZ6NfCJaWZWYGqcoVo740B819xKjzdQC/oQadlCMsVKTXru1ye0iiB/6E6cHp8WPP6cDsMb9YhTma9ApuOAuKVTjYNhrxvNlkIuWY586ti3m8TMbO0vPwxg14eMN65ErGPqvb58NzZ87ie+++C7NjbLG/rmIOfnv9dViYN7462ZFLfXhgzx5cGJp6IzM3l11dlTNnzkQ8V1ekIhnoM8U9a8vwvVeJgDBXzn8E8Ot0tJt2LcbvByy2SCvP0W4T9DTd/9b5mZs9GJj1kEgY/cLBxoVEpVJN+Z5/23IZfnz51nHCAbIxxsc9SxbjF2GlmEtycvDcbV+MEA6G1WWleGHXLuSyyJrIpl9nzpyF1RpZBm5FRerLTsSiQCHEwtLQDPg9WlIj5WTE2clsc0WkCzrSGdjlzZGJsHxOWj77pCjEfKyrjj4gjh2b2hVIrY7d//qiQnx388aY77mroR4NxYFSc19dvQp50sldPObm5+HZ226dsl8azdQq1uHDh6I+v6w88zX+r6wPVe9hrqC70tFmRgSEEY5R45gptMfgRNOlwKbhpnkFacnBOxU3LCkiuYYnsnfv3mmf+ydXXgkei8Dlf1y1CjkyGe5fsXzK924sL8d1U2SgZ+Mm09wc6aS4rkaLgiyI7FxcIg/3zXogHW1mzF3W7nTDag+oVB+2jrmSb6lLuzdBVDQyIa5pjAw/+Oijj6d13tr8fFxZXcXqvTctXIhdjYugYlFsk+HLy5ZOq28M+/bti3juusWpLZoaDysqQrPzanpLKXxfSlIwjHHJPHlsNjOLmGwunKIuJxvr8pArz44AKYYr5muhVYwfnE6ng1WeLG2U9QLDNTGK9U8kVyohC3m2bKuuhjDGLFFXF9u4MDqqx+efj1chr15UlLI0T/Hi9/vRWCCFcMzD4u5Ut8kftiQ/A8Oo3YvXW/T4zb4+PH44dmTaW2eGYbQH+rBtQQorRCaATMTH17ZWRyzY9+/fP+WxJcUlUZ+/f+XU6lI4lUr2plU+j4ettTWT96kkep+CfPrpJ+P+X1SmJjXfswWD2QGpgIdFRaH10F2pdoHnD0QpGJMoZqcXL50ZwaMH+3C81wSTY2rhO9AZmD3qChQoVmafK3lVrgT/cmXtuPXIiRMnpjxOKo00U1dqc1HLci8iUTZUVEz62lRrkHD1qq5Ija9vqUaUZVhGcLm9sATKsuGy2pABRUNNvimD3292JaU449FeC353qB9NAxbWAf/dRhdsroAKVl8og95kT2qW+GRRmyfFV7fUQCoKDDA2KpZMFml2XTrFFTwZLJtGG4cOBSxYtQUKfH1L5cRYjIzh9fkwErZxmyvlo1obWqx/JZVt8z1eHxnUidJtdOOxwwN4s2UEjkB9PyeA39OEDzE52h3YDBUL+agvlJOrhMGUnY5+jSVy/GDHPMwrUuHgwYNTxqjX1ETG9lSwMLNOl9VzorsqFRTEVl9NJhPOnjpJKnt958paqMRZYEqk6E2OiBJ+9cUhNWtBKssjkAn07GBiAT4tww48eaQPg2Mpe07QlD1fDSvhHBWvn4eW4UC7c/NlkAoDP4jV7obDmZ1J10pUInz3ymrcvb4S+6NYe8KRRtm3qNOk3ilUKRSiJoowlJfH9vFrOXkE372igrj4ZItaBTIeXLBHUdUbi8bN0Lenqn3yVbSPOGCJo4Kpxwe8e9GMF06Oi1t+hJrdgvlxYian7dTbQ1eFJROq144YbVmTlykaW2pzUKCPdMcIp6ysLOK5huL0ZK0pjbKrPpX7i6N5L0rS7Jc3FW6Pl6jd0WAuqPMLQ5/zllT1gTjXMDre/k4zrp43tTuB3QM8fXwI/WMbfccBfBHAxGS0Mcsrne4PzB5iAZ8shMPx+fwYGrWhKE8BXrbk/ZlA94mPsf6+H076enEUYXiptRVNAwMQCgWYk5cHDT85RgkH/NC73BgYGYHD78elKJWt5s6dG+MMfvQ1fZaUviQLj8eHoVFrzJJ+jFreGsipxkzNlwH4JNn9ENIKoptP91txxVwNhDHGo9Pjw5+ODmHIElKp3qLCEdcihpkbWgYDP+LSMiXEUbbOmavHiMGOPI08a3JjhWMz6NBz6lPMWRI96Xh5UR6UMgks9jG/sz/sP5DGHob1RatAY+Xka5CL+/fAbsyeTJB+vx86g3XK6mXzx1ceuzFVAvIEIyA2lweftBmxbZKdbEY4njkxHC4cf6Kux1MuYDx+HoRh4bwXR5xwUfVqVfnkiRnsTjcpEJqrzo4M7xM588afJhWQlQ1z8dtd88me0KjVjQGTA16PFx7wMWrzwEY9df3gweNPTOnnwQ9hWOaX/BxlKMhMKZegUClCWY6EeKQuro+eudPrduHE7t8n1H6qGDXaY4ZFBGHUrIZiZdDIdCuAh5PdFyHNhbuDmQn2dRhQliPGgoLxA3LU7sFfjw9ixBZaPH8NwP9Mce5QusQRmxtFYa7Sp2iZA7VUiIIp3O0tNhdxjc9RpjcfExsGWo9jtLsV2orI3XE+jQnRygTkVpef2f67JwkDbv/sXZiHsyPNqM/vx6jBBnscRprFxfKggJTShIPR44UTJHjpYgY8SXnx/MmhcVYtZuaYIBz/LwvhQPiaxBV2NXB5/WimuXgXFrHzEDVZnDBbszMRwtm3n850F1jhtETmxPI47Ti5+7GM9CcaBpMjLuFgmFsgJ4kOKUmPNgyemVFAbwsurF8+PYxnTujwevMIfnd4IFw4mLn4RyzPHYo40lnHzHTtemeoBmGtlr3VxGB2ZKWQXDzwBkyDkVF9Fl1fRvozGf0tRyOea3rnmayZPZjfN+i8Gg98+FGjDc3OU/v8x33+MT4CcAUA8su26aw4fskCU8BPilFsf0L3N9gSik/VO8ZMyO26wFQvFPBQF2elXOZLNFqSW3ohGez97cNw28dbjnpOJH29OC3splEcefZXgN8Hj9OBo8//Bp+/8rtMd4vArDmmc/EL00TKaVWCpDExhvIwgDK6fX8vDUw5Q9WqROpxHQGwWm8fE5A+Wp6qQC5KyNeeUbc8Xh/ycrKjdiGDvvci3vyP+3DVdx6DTJ0HXUczLuzfk+luRXD2nWfQsvcF+Dwe+P2Z32diNIkRoz3qRmA81IzXRBYDODjdvgWZLMj4cXqbLscYAblkDFz1XT6gj+a8qslPfIDb7G74fFZiAuZniQ2YWazv/tebocgrhrGvg6bIyz687uQ5p04HZkGu09vgdE3fa0ItERA/OerqtIEuBZJCqp0KPmT+jFpdMDl96Bi1h3bIqzTTi1BzOD0YGrGS/ZJswWHWY6SzBR5X9qmB2YTb7cWgzpIU4QgSttm8LWknTYOAvBV80G1womcsUTUqcqdv9mSEY3DEEnKD5sh+TFYnBkYsEc6H0yUsC05JsDpAMki1gNiDhT/PDdtgdgW+lIpcGSRJCjz3+0H8dZgFPEf2wqw3mN/JmKLfqXL8BTdpobjpSHTErFbntwzaoKT1RFRJqCsyEbPVSaZsbY5s0pQ9HJnB5fZi1GhjtTueKCXqcQv1pIVBpsOx+SlQh0ijPaBzVoVJu8PjR8uQHZ/1WtFrmp41g/khBnQWIiz+LAy8+nuDWYgbLQ6iBidLOFxeP073W8l4uRQ2XgTwQyEJXe+nn72Cko4ZpAlAb3jSYUbanR4f9ndZcKjLBE9YRdhdS4qwqHB665PgplOeRs7NJhmCuVjp9FZ4k1XplfJKkx6tg2NZR0s0cmypVmN+vgQlajEuDpOL8KJktZfO0XNV8IGPx8ObLaNoG7GFQmzLNFJcNT8P1RoRcYGfLj6fnwgJc3aJSJC1bvOzDeZ7N1qc0BvtSauCHE6hQgixSAid1QWPzw+Lw42zAxY0DztIrjGjgwgIc4X9RTLaS9eoUQG4MFE3FPJ5WFKmwvJSBcrUqUtMxufzoFZIoFJkV0DQbIJRaRnVNlrWzFTg9PrROmzH4W4T+oxRd+GXhdW8TJh0CMhOAD8DEIrYYa7mq+aosalKBZUkfZOYWCSARiWFRJy5JMyzEQcJS3BmbE/q4qgTH7UZcckQ4bH8PM3jGzP8OxapEhA+zVn0IIA1wSdlIgFWlKuwao4qKRVyE0UmFUElF3OCMk0cLg/MFie5zwbODdtxos+K1qFxfnFOWsX5jwBOxXvOZAuIlM4Y/xq+UMqRCrG2SoNlJfJQcoZsQCYRksAiiZhbo7CFUaXsTg9Rp1zu7PFiCGfA4sHBLjOaB8xknRLG09SvsIPtuZI5KhoAvEDvQ2yp0+KyalXaFjuJIBLyoVHJIJVwM0osrHZXyFl0JmBw+LC7aQRdo+OCXt20tsiPwoP6JiMZ47aSusKH8qQyi+/VFTnYXK3OqhljKgR8HpRyMRRycXhl1b9rvF4fceVhFt8zdW+px+TGBxcN6BoZJygDAL4B4OVYx05n9MoAfJ+qU2SlzQgGs8bYVJ0DpXhmDzCJSAC5TAS5VBxRDWu24/X5iMc0M2Okcvc73XQb3djTMoJh8zirVyvNrfBBtGMS/eU3APgLgFAe/9IcCXYtLoQ2jQVB0wGzNJGIhFRYRLN2rcLMDla7m8RmZMuiOxV4/Twc6zXjgwujcHvHzYi/oBavcU8m8mv/kJ6IBHSopUJcVqPBslJFRqrSphNmJpGKhWTNIpOKZvwuPbPItjvdxP2cEYoZqkElhN7uwXsXDKH0U5TPAfwTgFB+pniGdAmAJwFcHXxixZwcXDk3J2meuTMNRmAkYiGkYgGpyyEWCbJWHWPUJkYgPB4fcep0ur1p2dDLdi6MOvH+eT2GxtQuO50ESJFQtr9mA4B9NIMdlGIBblxchLrc7Ciskk0wswszy4hFQggEPCI06VbLfH4/mRU83oBQMAIxm9YSycbtA7F2NY9P4v5nAPez+eXq6ZRD8pKW5kjxxcV5ZG8jE9g9gGyGWWOFAj4RFmaWEQp44PMD/wv4fLLGEQj4rEOHmat+0MzKzAper59Ymrw+P9nJZl6bqTOD0+uHkPlueJnp/+f9DrzdPBS+d/LeVL/KCgB7AZB0i0vLVLhugTZj2b8dHj8ePzKAb6xPfZ0NjvSzr9NM3Nm31U6ebTPVjNq9+POxfhhpJp5YQ72Emr6IcKyrycON9ZkTDoZjvWaMWF3glIXZid7mwr52PYzOzO3Qa2UCfGVtGVSygPNsrOH+y6BatbJchatqU1oKbkrMLh8Od5uhkQozV5qXI6Xk01LTBzrNGe2HUsTD/auKkCMVTDrWlgK4k3kwJ1eGHQu16e3hBLx+4OXTQ7A4PVjAMl0px8yjvjCQSPBItxEdhswm4siR8HH3ytJJBSRUsefKuZqM+1Ht6zShi2ZEWTtWJ5tjlsFoB4toMaU9TTrY3ZlVpvNl/EkFhBTnLlRJMCcndYFMbGjXO7GvPZB4eVGxAhrpzN6c44gNc0EWC/gYtbnx/KlhYpjJJJMJCAkKV2d4MDYN2vDc8UFiwpSKBLhibupr/HFkFrVEgM21gd+5S+/AX08MwZ5BIZlMAtYCWMZMcavmqIgTYjphvo4P2014+9wIiWtm2r9jWSGKVdzG5N8DFRoxug0u4g5icnhIuYy5+TLIRek3z0wmIMwK6U6Pzw+HB5iXxuIvLq8fL58dxfGesRqg1y7IQ31R9iSr5kg9CwplaNU5YXN54XD7cKTHDK1CjCJl+i6SzBJoMgG5CGA7I8yDFjfkYkFKkyqAzhpNg3a8ckaHbv1YbPG2eXlYV5FZEzNH+mG0hvmFMlwyusgswtAyZIPO7kWpWpryOCOnx4fnTg7HNFBVA3g3mGyhNl+Oy+tyUaZKrp+Hz8/DyX4rjvaY0G8a89NXSYS4YVEB6rSZNRJwZBan1489zSM4OzDmdcvj8bCoWIn1VWqUKJM7Hr1+4PNLFnzcZoTN5ZnSgssIySs0hQqhsVSN1eWKaVu3hm0+HO81EeGwR4k/2FKnxZZqzqTLAQyY3Xj+tA6GKEnKq/LkaCiUYXGpEtPJA2L3+HFmwIajvRYMh+UPZjNPMcr/ozSkNiSuOTIRmVUqc8SkECefz0eBQhzhaObx8zFscZDF9rDVg26jC50jNmLGm0hhUTGGBgdC/yskQiwqkpNyv8VqMeQzKHyXY3oMWT3oN7vRNGjF+bAsJSq1Gm63Gw77+BQ/Aj6fJLCeo5GgVC2GSsyDRCwiAXwTR43Fw4PJ5iCOr30mF6k80D5im5gFsgfAv8Uz4ooA/AutZViW2MeORKlSYcXajbjj/gewYet2fH74AB792Y9x9OC+iPfmysWkrLFGJoRGwoNCKoZawgcvC6olcSQCD16eADqzgyyIB0xO6GweDFpcJF4lnFxtHq78wk587Ts/gEAgwCt/eQpvvvICWpvPJLtT+2iaoD+DbTwIny/AirXrl67asHlD/eJlG10ux41739oj3ffBuzAZI6unToVILMbGrdtx9Q0345qbbgFfEGkruHiuGU8++hu89/puOCYpYcwx+ymvqML9//Rt7LzzXqKlTKS/twd7XnoWb7z8HNovnE+ojdp5C3DjbXdh0bKVbZ1tF/7WdOrEgYMff/BRX0+3PqaA7Lj5i9vuvP/Bby1eserKyRJdG0Z06Lh4HhdbWzDYdwm64aGI9xQUFqGwpBRlFVWYV9+A/MLiuD7Amc+P4Phnh9B85iQuNJ9F+4VWeDyzN27675XikjKUV1VjwaLFWLV+E5atWQ9tfgHr4/1+Pzovnse5s6cxqhtGT2c7HI7xmX0kEgnmVNUgNy8f8+oXoW5B/aQBbXabbTCmgPz893/62Y6dX/wmzWCSVdisFvIFcIIy81EolKioro2qSWSaKVWsgqJizar1mzev37pt07LV6zZX1tQlrXoPB0cWYjh64NNPjx7cd+DogU8PxG0WUqrVgsrqukULFy+dm5uXX1JaPmchAEHt/IX5Eqm0smHJcmZOrEhN3zk4poWjr6f7gn5UZ+nv7TmvH9E5AeiaTp3o6O/tbunt7uzoarvYF35Ayuymc6pqclTqnGqlSiWqqKmrA6AqLZ+jyM3LrwFANlEUKjW/sqa2jNZj5zcsWa5lVNFsVOk4sgbD0EB/9/BgvxuA02ax9HS2XTCGv95+vrXDbrf5HHZbd/v51mEAlvYL5y447Pa4zZ1Zu7GQk6sVzFvYMIealIViiRRLVq4upqlOiQBV1tbJCotKSgAUBj2Q5UolI2iFVOi0aSozxxEbZqWss1rMQ82nTpjCnjcAGGg6dWLIZrUwg9cLYHhooP9SV9uFYFih2WqxtDefPhG/uTQJZK2ApJqS8jmSXG2+itEaaYGfca4BAoEA8xctZl5TUIGU0PdOSu38hXKplKSWlFNHUFFQcOnx6fSbsQKh8P3gYLMD8PT19jj1I7pYBSE99L3McQ79iM7W39sTrUoN0wYz4E3tF85ZHXb7zEynwsHBkRic+sHBEQNOQDg4YsAJCAdHDDgB4eCIAScgHBwx4ASEgyMGnIBwcMSAExAOjhhwAsLBEQNOQDg4YsAJCAdHDDgB4eCIAScgHBwx4ASEgyMGnIBwcMSAExAOjhhwAsLBEQNOQDg4YsAJCAdHDDgB4eCIAScgHBwx+P8DAAD//5PYFFrBhVFBAAAAAElFTkSuQmCC;fontSize=16;labelPosition=center;align=center;spacing=-10;fontFamily=Helvetica;" parent="rQPKTti5xz2RbczONzEl-1" vertex="1">
                    <mxGeometry x="-760" y="25" width="75" height="75" as="geometry"/>
                </mxCell>
                <mxCell id="W0A1yuBgf-S0EIWUTg15-1" value="" style="group;fontFamily=Helvetica;" parent="rQPKTti5xz2RbczONzEl-1" vertex="1" connectable="0">
                    <mxGeometry x="1620" y="160" width="200" height="640" as="geometry"/>
                </mxCell>
                <mxCell id="rQPKTti5xz2RbczONzEl-61" value="" style="rounded=0;whiteSpace=wrap;html=1;labelPosition=center;verticalLabelPosition=middle;align=center;verticalAlign=top;horizontal=1;direction=south;fillColor=#f5f5f5;strokeColor=#666666;fontColor=#333333;fontSize=15;sketch=1;fontFamily=Helvetica;" parent="W0A1yuBgf-S0EIWUTg15-1" vertex="1">
                    <mxGeometry width="200" height="640" as="geometry"/>
                </mxCell>
                <mxCell id="rQPKTti5xz2RbczONzEl-62" value="Serve" style="rounded=0;whiteSpace=wrap;html=1;align=center;fontSize=18;sketch=0;fontColor=#FFFFFF;fillColor=#13344C;fontFamily=Helvetica;" parent="W0A1yuBgf-S0EIWUTg15-1" vertex="1">
                    <mxGeometry width="200" height="30" as="geometry"/>
                </mxCell>
                <mxCell id="rQPKTti5xz2RbczONzEl-90" value="Dashboards and BI" style="pointerEvents=1;shadow=0;dashed=0;html=1;strokeColor=none;fillColor=#434445;aspect=fixed;labelPosition=center;verticalLabelPosition=bottom;verticalAlign=top;align=center;outlineConnect=0;shape=mxgraph.vvd.nsx_dashboard;rounded=0;labelBackgroundColor=none;sketch=0;fontSize=14;fontFamily=Helvetica;" parent="W0A1yuBgf-S0EIWUTg15-1" vertex="1">
                    <mxGeometry x="69.8900000000001" y="110" width="60.22" height="56" as="geometry"/>
                </mxCell>
                <mxCell id="W0A1yuBgf-S0EIWUTg15-15" value="Reports" style="pointerEvents=1;shadow=0;dashed=0;html=1;strokeColor=none;labelPosition=center;verticalLabelPosition=bottom;verticalAlign=top;align=center;fillColor=#505050;shape=mxgraph.mscae.intune.reports;labelBackgroundColor=none;fontSize=14;fontFamily=Helvetica;" parent="W0A1yuBgf-S0EIWUTg15-1" vertex="1">
                    <mxGeometry x="68.5" y="470" width="63" height="60" as="geometry"/>
                </mxCell>
                <mxCell id="rQPKTti5xz2RbczONzEl-96" style="edgeStyle=orthogonalEdgeStyle;rounded=0;sketch=0;orthogonalLoop=1;jettySize=auto;html=1;dashed=1;labelBackgroundColor=none;startArrow=classic;startFill=1;strokeColor=#000000;strokeWidth=1;fontSize=13;fontFamily=Helvetica;" parent="rQPKTti5xz2RbczONzEl-1" edge="1">
                    <mxGeometry relative="1" as="geometry">
                        <mxPoint x="622.44" y="375" as="sourcePoint"/>
                        <mxPoint x="622.44" y="615" as="targetPoint"/>
                    </mxGeometry>
                </mxCell>
                <mxCell id="W0A1yuBgf-S0EIWUTg15-19" value="Databricks" style="shape=image;verticalLabelPosition=bottom;verticalAlign=top;imageAspect=0;aspect=fixed;image=data:image/svg+xml,PHN2ZyB4bWxucz0iaHR0cDovL3d3dy53My5vcmcvMjAwMC9zdmciIGlkPSJiMWU3MTQ3OS0yMTM4LTQ0ZTAtYWRmMC0wMmZlOWZlZDVjMWUiIHdpZHRoPSIxNS42OTAwMDE0ODc3MzE5MzQiIGhlaWdodD0iMTciIHZpZXdCb3g9IjEuMTU0OTk5OTcxMzg5NzcwNSAwLjUgMTUuNjkwMDAxNDg3NzMxOTM0IDE3Ij48cGF0aCBkPSJNMS4xNTUsNC45M3YuNTEyTDksOS44NjhsNy4wMDYtMy45NTcsMCwxLjZMOSwxMS40OTEsMS41NSw3LjI1OGwtLjM5NS4yMlYxMC41NEw5LDE0Ljk1NWw3LjAwNi0zLjk0MiwwLDEuNTg2TDksMTYuNTgxLDEuNTUsMTIuMzQ3bC0uMzk1LjIydi41MTlMOSwxNy41bDcuODQ1LTQuNDE0VjEwLjAyMWwtLjQtLjIxOEw5LDE0LjAzNiwxLjk5MiwxMC4wNTRWOC40NzZMOSwxMi40MTQsMTYuODQ1LDhWNC45NzhsLS40LS4yMTlMOSw4Ljk5MywyLjM1Miw1LjIxNSw5LDEuNDZsNS40NzYsMy4wOTQuNDc5LS4yNjlWMy44NjNMOSwuNVoiIGZpbGw9IiNmZjM2MjEiLz48L3N2Zz4=;fontSize=14;sketch=0;fontFamily=Helvetica;" parent="rQPKTti5xz2RbczONzEl-1" vertex="1">
                    <mxGeometry x="230" y="270" width="65.88" height="70" as="geometry"/>
                </mxCell>
                <mxCell id="W0A1yuBgf-S0EIWUTg15-30" value="Databricks" style="shape=image;verticalLabelPosition=bottom;verticalAlign=top;imageAspect=0;aspect=fixed;image=data:image/svg+xml,PHN2ZyB4bWxucz0iaHR0cDovL3d3dy53My5vcmcvMjAwMC9zdmciIGlkPSJiMWU3MTQ3OS0yMTM4LTQ0ZTAtYWRmMC0wMmZlOWZlZDVjMWUiIHdpZHRoPSIxNS42OTAwMDE0ODc3MzE5MzQiIGhlaWdodD0iMTciIHZpZXdCb3g9IjEuMTU0OTk5OTcxMzg5NzcwNSAwLjUgMTUuNjkwMDAxNDg3NzMxOTM0IDE3Ij48cGF0aCBkPSJNMS4xNTUsNC45M3YuNTEyTDksOS44NjhsNy4wMDYtMy45NTcsMCwxLjZMOSwxMS40OTEsMS41NSw3LjI1OGwtLjM5NS4yMlYxMC41NEw5LDE0Ljk1NWw3LjAwNi0zLjk0MiwwLDEuNTg2TDksMTYuNTgxLDEuNTUsMTIuMzQ3bC0uMzk1LjIydi41MTlMOSwxNy41bDcuODQ1LTQuNDE0VjEwLjAyMWwtLjQtLjIxOEw5LDE0LjAzNiwxLjk5MiwxMC4wNTRWOC40NzZMOSwxMi40MTQsMTYuODQ1LDhWNC45NzhsLS40LS4yMTlMOSw4Ljk5MywyLjM1Miw1LjIxNSw5LDEuNDZsNS40NzYsMy4wOTQuNDc5LS4yNjlWMy44NjNMOSwuNVoiIGZpbGw9IiNmZjM2MjEiLz48L3N2Zz4=;fontSize=14;sketch=0;fontFamily=Helvetica;" parent="rQPKTti5xz2RbczONzEl-1" vertex="1">
                    <mxGeometry x="410" y="270" width="65.88" height="70" as="geometry"/>
                </mxCell>
                <mxCell id="W0A1yuBgf-S0EIWUTg15-32" value="Databricks" style="shape=image;verticalLabelPosition=bottom;verticalAlign=top;imageAspect=0;aspect=fixed;image=data:image/svg+xml,PHN2ZyB4bWxucz0iaHR0cDovL3d3dy53My5vcmcvMjAwMC9zdmciIGlkPSJiMWU3MTQ3OS0yMTM4LTQ0ZTAtYWRmMC0wMmZlOWZlZDVjMWUiIHdpZHRoPSIxNS42OTAwMDE0ODc3MzE5MzQiIGhlaWdodD0iMTciIHZpZXdCb3g9IjEuMTU0OTk5OTcxMzg5NzcwNSAwLjUgMTUuNjkwMDAxNDg3NzMxOTM0IDE3Ij48cGF0aCBkPSJNMS4xNTUsNC45M3YuNTEyTDksOS44NjhsNy4wMDYtMy45NTcsMCwxLjZMOSwxMS40OTEsMS41NSw3LjI1OGwtLjM5NS4yMlYxMC41NEw5LDE0Ljk1NWw3LjAwNi0zLjk0MiwwLDEuNTg2TDksMTYuNTgxLDEuNTUsMTIuMzQ3bC0uMzk1LjIydi41MTlMOSwxNy41bDcuODQ1LTQuNDE0VjEwLjAyMWwtLjQtLjIxOEw5LDE0LjAzNiwxLjk5MiwxMC4wNTRWOC40NzZMOSwxMi40MTQsMTYuODQ1LDhWNC45NzhsLS40LS4yMTlMOSw4Ljk5MywyLjM1Miw1LjIxNSw5LDEuNDZsNS40NzYsMy4wOTQuNDc5LS4yNjlWMy44NjNMOSwuNVoiIGZpbGw9IiNmZjM2MjEiLz48L3N2Zz4=;fontSize=14;sketch=0;fontFamily=Helvetica;" parent="rQPKTti5xz2RbczONzEl-1" vertex="1">
                    <mxGeometry x="590" y="270" width="65.88" height="70" as="geometry"/>
                </mxCell>
                <mxCell id="W0A1yuBgf-S0EIWUTg15-33" style="edgeStyle=none;rounded=0;sketch=0;orthogonalLoop=1;jettySize=auto;html=1;dashed=1;startArrow=none;startFill=0;strokeColor=#000000;strokeWidth=1;fontSize=13;fontFamily=Helvetica;" parent="rQPKTti5xz2RbczONzEl-1" edge="1">
                    <mxGeometry relative="1" as="geometry">
                        <mxPoint x="310" y="304.5" as="sourcePoint"/>
                        <mxPoint x="400" y="304.5" as="targetPoint"/>
                    </mxGeometry>
                </mxCell>
                <mxCell id="W0A1yuBgf-S0EIWUTg15-37" value="Transformations" style="edgeLabel;html=1;align=center;verticalAlign=middle;resizable=0;points=[];fontSize=14;labelBackgroundColor=none;fontFamily=Helvetica;" parent="W0A1yuBgf-S0EIWUTg15-33" vertex="1" connectable="0">
                    <mxGeometry x="-0.3333" y="1" relative="1" as="geometry">
                        <mxPoint x="10" y="-13.5" as="offset"/>
                    </mxGeometry>
                </mxCell>
                <mxCell id="W0A1yuBgf-S0EIWUTg15-34" style="edgeStyle=none;rounded=0;sketch=0;orthogonalLoop=1;jettySize=auto;html=1;dashed=1;startArrow=none;startFill=0;strokeColor=#000000;strokeWidth=1;fontSize=13;fontFamily=Helvetica;" parent="rQPKTti5xz2RbczONzEl-1" edge="1">
                    <mxGeometry relative="1" as="geometry">
                        <mxPoint x="489.6" y="304.5" as="sourcePoint"/>
                        <mxPoint x="580" y="304.5" as="targetPoint"/>
                    </mxGeometry>
                </mxCell>
                <mxCell id="W0A1yuBgf-S0EIWUTg15-38" value="Aggregations" style="edgeLabel;html=1;align=center;verticalAlign=middle;resizable=0;points=[];fontSize=14;labelBackgroundColor=none;fontFamily=Helvetica;" parent="W0A1yuBgf-S0EIWUTg15-34" vertex="1" connectable="0">
                    <mxGeometry x="0.0044" relative="1" as="geometry">
                        <mxPoint x="-4.6" y="-14.5" as="offset"/>
                    </mxGeometry>
                </mxCell>
                <mxCell id="W0A1yuBgf-S0EIWUTg15-39" style="edgeStyle=orthogonalEdgeStyle;rounded=0;orthogonalLoop=1;jettySize=auto;html=1;dashed=1;startArrow=none;startFill=0;strokeColor=#000000;strokeWidth=1;fontSize=13;sketch=0;fontFamily=Helvetica;" parent="rQPKTti5xz2RbczONzEl-1" edge="1">
                    <mxGeometry relative="1" as="geometry">
                        <mxPoint y="679.5" as="targetPoint"/>
                        <mxPoint x="-200" y="679.5" as="sourcePoint"/>
                        <Array as="points">
                            <mxPoint x="-100" y="679.5"/>
                            <mxPoint x="-100" y="679.5"/>
                        </Array>
                    </mxGeometry>
                </mxCell>
                <mxCell id="W0A1yuBgf-S0EIWUTg15-12" value="" style="rounded=0;whiteSpace=wrap;html=1;labelPosition=center;verticalLabelPosition=middle;align=center;verticalAlign=top;horizontal=1;direction=south;fillColor=#f5f5f5;strokeColor=#666666;fontColor=#333333;fontSize=15;sketch=1;fontFamily=Helvetica;" parent="rQPKTti5xz2RbczONzEl-1" vertex="1">
                    <mxGeometry x="940" y="160" width="200" height="640" as="geometry"/>
                </mxCell>
                <mxCell id="W0A1yuBgf-S0EIWUTg15-11" value="Analyse" style="rounded=0;whiteSpace=wrap;html=1;align=center;fontSize=18;sketch=0;fontColor=#FFFFFF;fillColor=#13344C;fontFamily=Helvetica;" parent="rQPKTti5xz2RbczONzEl-1" vertex="1">
                    <mxGeometry x="940" y="160" width="200" height="30" as="geometry"/>
                </mxCell>
                <mxCell id="rQPKTti5xz2RbczONzEl-63" value="Predictive Analytics" style="outlineConnect=0;fontColor=#232F3E;gradientColor=none;fillColor=#116D5B;strokeColor=none;dashed=0;verticalLabelPosition=bottom;verticalAlign=top;align=center;html=1;fontSize=14;fontStyle=0;aspect=fixed;pointerEvents=1;shape=mxgraph.aws4.sagemaker_model;rounded=0;labelBackgroundColor=none;sketch=0;fontFamily=Helvetica;" parent="rQPKTti5xz2RbczONzEl-1" vertex="1">
                    <mxGeometry x="1005" y="270" width="70" height="70" as="geometry"/>
                </mxCell>
                <mxCell id="rQPKTti5xz2RbczONzEl-86" value="Machine Learning" style="aspect=fixed;html=1;points=[];align=center;image;fontSize=14;image=img/lib/mscae/Machine_Learning_Service_Workspaces.svg;rounded=0;dashed=1;labelBackgroundColor=none;sketch=0;fillColor=none;fontFamily=Helvetica;" parent="rQPKTti5xz2RbczONzEl-1" vertex="1">
                    <mxGeometry x="1007.8" y="460" width="64.4" height="70" as="geometry"/>
                </mxCell>
                <mxCell id="rQPKTti5xz2RbczONzEl-95" value="SQL Analytics" style="aspect=fixed;html=1;points=[];align=center;image;fontSize=14;image=img/lib/mscae/Databricks.svg;rounded=0;dashed=1;labelBackgroundColor=none;sketch=0;fillColor=none;fontFamily=Helvetica;" parent="rQPKTti5xz2RbczONzEl-1" vertex="1">
                    <mxGeometry x="1008.75" y="649.5" width="62.5" height="60" as="geometry"/>
                </mxCell>
                <mxCell id="W0A1yuBgf-S0EIWUTg15-41" style="rounded=0;sketch=0;orthogonalLoop=1;jettySize=auto;html=1;dashed=1;startArrow=none;startFill=0;strokeColor=#000000;strokeWidth=1;fontSize=13;fontFamily=Helvetica;" parent="rQPKTti5xz2RbczONzEl-1" edge="1">
                    <mxGeometry relative="1" as="geometry">
                        <mxPoint x="1160" y="494.5" as="sourcePoint"/>
                        <mxPoint x="1260" y="494.5" as="targetPoint"/>
                    </mxGeometry>
                </mxCell>
                <mxCell id="W0A1yuBgf-S0EIWUTg15-43" value="" style="group;fontFamily=Helvetica;" parent="rQPKTti5xz2RbczONzEl-1" vertex="1" connectable="0">
                    <mxGeometry x="1280" y="160" width="200" height="640" as="geometry"/>
                </mxCell>
                <mxCell id="W0A1yuBgf-S0EIWUTg15-3" value="" style="rounded=0;whiteSpace=wrap;html=1;labelPosition=center;verticalLabelPosition=middle;align=center;verticalAlign=top;horizontal=1;direction=south;fillColor=#f5f5f5;strokeColor=#666666;fontColor=#333333;fontSize=15;sketch=1;fontFamily=Helvetica;" parent="W0A1yuBgf-S0EIWUTg15-43" vertex="1">
                    <mxGeometry width="200" height="640" as="geometry"/>
                </mxCell>
                <mxCell id="W0A1yuBgf-S0EIWUTg15-4" value="Results" style="rounded=0;whiteSpace=wrap;html=1;align=center;fontSize=18;sketch=0;fontColor=#FFFFFF;fillColor=#13344C;fontFamily=Helvetica;" parent="W0A1yuBgf-S0EIWUTg15-43" vertex="1">
                    <mxGeometry width="200" height="30" as="geometry"/>
                </mxCell>
                <mxCell id="W0A1yuBgf-S0EIWUTg15-9" value="Azure SQL&lt;br style=&quot;font-size: 14px;&quot;&gt;Database" style="aspect=fixed;html=1;points=[];align=center;image;fontSize=14;image=img/lib/azure2/databases/SQL_Database.svg;labelBackgroundColor=none;fontFamily=Helvetica;" parent="W0A1yuBgf-S0EIWUTg15-43" vertex="1">
                    <mxGeometry x="76" y="113" width="48" height="64" as="geometry"/>
                </mxCell>
                <mxCell id="W0A1yuBgf-S0EIWUTg15-10" value="Azure Analysis&lt;br style=&quot;font-size: 14px;&quot;&gt;Services" style="aspect=fixed;html=1;points=[];align=center;image;fontSize=14;image=img/lib/azure2/analytics/Analysis_Services.svg;labelBackgroundColor=none;fontFamily=Helvetica;" parent="W0A1yuBgf-S0EIWUTg15-43" vertex="1">
                    <mxGeometry x="68.5" y="311" width="63" height="48" as="geometry"/>
                </mxCell>
                <mxCell id="W0A1yuBgf-S0EIWUTg15-42" value="Flat Files" style="aspect=fixed;html=1;points=[];align=center;image;fontSize=14;image=img/lib/azure2/general/File.svg;labelBackgroundColor=none;fontFamily=Helvetica;" parent="W0A1yuBgf-S0EIWUTg15-43" vertex="1">
                    <mxGeometry x="72" y="485.5" width="56.00000000000001" height="69" as="geometry"/>
                </mxCell>
                <mxCell id="W0A1yuBgf-S0EIWUTg15-44" style="rounded=0;sketch=0;orthogonalLoop=1;jettySize=auto;html=1;dashed=1;startArrow=none;startFill=0;strokeColor=#000000;strokeWidth=1;fontSize=13;fontFamily=Helvetica;" parent="rQPKTti5xz2RbczONzEl-1" edge="1">
                    <mxGeometry relative="1" as="geometry">
                        <mxPoint x="1500" y="494.5" as="sourcePoint"/>
                        <mxPoint x="1600" y="494.5" as="targetPoint"/>
                    </mxGeometry>
                </mxCell>
            </root>
        </mxGraphModel>
    </diagram>
</mxfile>